M48
;Layer_Color=9474304
;FILE_FORMAT=2:5
INCH,LZ
;TYPE=PLATED
T1F00S00C0.01200
T3F00S00C0.02756
T4F00S00C0.03000
T5F00S00C0.03500
T6F00S00C0.03543
T7F00S00C0.04331
%
T01
X01575Y01215
X01535Y0129
X01327Y01518
T03
X0042398Y00675
X0054602
T04
X0115315Y0159
X0135
T05
X0014Y00195
X0024
X0034
X0099Y001511
X0109
X0119
X0129
Y002511
X0119
X0109
X0099
Y003711
X0109
X0119
X0129
X0034Y00295
X0024
X0014
T06
X01905Y0158
X02005
X02105
X01805
X01705
X01605
X00945Y0145843
X00945Y0126157
X0099Y00785
X0109
X0119
X0129
X0139
Y00485
X0129
X0119
X0109
X0099
X0089
X0079
X0069
X0059
X0049
X0039
X0029
Y00785
X0039
X0049
X0059
X0069
X0079
X0089
X00565Y017
X00465
X00365
X00265
X0019Y00785
X0009
Y00485
X0019
T07
X0044Y0093
X0064
M30
