G04*
G04 #@! TF.GenerationSoftware,Altium Limited,Altium Designer,22.1.2 (22)*
G04*
G04 Layer_Physical_Order=2*
G04 Layer_Color=16711680*
%FSLAX25Y25*%
%MOIN*%
G70*
G04*
G04 #@! TF.SameCoordinates,7393A906-C076-4882-B3B6-B19C62209B97*
G04*
G04*
G04 #@! TF.FilePolarity,Positive*
G04*
G01*
G75*
%ADD13C,0.01000*%
%ADD38R,0.04331X0.06496*%
%ADD39C,0.01500*%
%ADD40C,0.05500*%
%ADD41C,0.05906*%
%ADD42C,0.07284*%
%ADD43C,0.05118*%
%ADD44R,0.05906X0.05906*%
%ADD45R,0.07284X0.07284*%
%ADD46R,0.05906X0.05906*%
%ADD47C,0.03600*%
%ADD48R,0.03543X0.06102*%
%ADD49R,0.03740X0.06693*%
G36*
X205251Y174856D02*
X207680Y174205D01*
X210003Y173243D01*
X212181Y171985D01*
X214176Y170455D01*
X215954Y168676D01*
X217485Y166681D01*
X218743Y164503D01*
X219705Y162180D01*
X220356Y159751D01*
X220684Y157257D01*
Y156000D01*
Y20000D01*
Y18743D01*
X220356Y16249D01*
X219705Y13820D01*
X218743Y11497D01*
X217485Y9319D01*
X215954Y7324D01*
X214176Y5545D01*
X212181Y4014D01*
X210003Y2757D01*
X207680Y1795D01*
X205251Y1144D01*
X202757Y816D01*
X17243D01*
X14749Y1144D01*
X12320Y1795D01*
X9997Y2757D01*
X7819Y4014D01*
X5824Y5545D01*
X4045Y7324D01*
X2514Y9319D01*
X1257Y11497D01*
X295Y13820D01*
X-356Y16249D01*
X-684Y18743D01*
Y20000D01*
Y156000D01*
Y157257D01*
X-356Y159751D01*
X295Y162180D01*
X1257Y164503D01*
X2514Y166681D01*
X4045Y168676D01*
X5824Y170455D01*
X7819Y171985D01*
X9997Y173243D01*
X12320Y174205D01*
X14749Y174856D01*
X17243Y175184D01*
X202757D01*
X205251Y174856D01*
D02*
G37*
%LPC*%
G36*
X47000Y173921D02*
Y170500D01*
X50421D01*
X50351Y171032D01*
X49953Y171993D01*
X49319Y172819D01*
X48493Y173453D01*
X47532Y173851D01*
X47000Y173921D01*
D02*
G37*
G36*
X37000D02*
Y170500D01*
X40421D01*
X40351Y171032D01*
X39953Y171993D01*
X39319Y172819D01*
X38493Y173453D01*
X37532Y173851D01*
X37000Y173921D01*
D02*
G37*
G36*
X46000D02*
X45468Y173851D01*
X44507Y173453D01*
X43681Y172819D01*
X43047Y171993D01*
X42649Y171032D01*
X42579Y170500D01*
X46000D01*
Y173921D01*
D02*
G37*
G36*
X36000D02*
X35468Y173851D01*
X34507Y173453D01*
X33681Y172819D01*
X33047Y171993D01*
X32649Y171032D01*
X32579Y170500D01*
X36000D01*
Y173921D01*
D02*
G37*
G36*
X50421Y169500D02*
X47000D01*
Y166079D01*
X47532Y166149D01*
X48493Y166547D01*
X49319Y167181D01*
X49953Y168007D01*
X50351Y168968D01*
X50421Y169500D01*
D02*
G37*
G36*
X40421D02*
X37000D01*
Y166079D01*
X37532Y166149D01*
X38493Y166547D01*
X39319Y167181D01*
X39953Y168007D01*
X40351Y168968D01*
X40421Y169500D01*
D02*
G37*
G36*
X36000D02*
X32579D01*
X32649Y168968D01*
X33047Y168007D01*
X33681Y167181D01*
X34507Y166547D01*
X35468Y166149D01*
X36000Y166079D01*
Y169500D01*
D02*
G37*
G36*
X46000D02*
X42579D01*
X42649Y168968D01*
X43047Y168007D01*
X43681Y167181D01*
X44507Y166547D01*
X45468Y166149D01*
X46000Y166079D01*
Y169500D01*
D02*
G37*
G36*
X60453Y173953D02*
X52547D01*
Y166047D01*
X60453D01*
Y173953D01*
D02*
G37*
G36*
X138937Y173232D02*
X138086Y173062D01*
X137364Y172580D01*
X136882Y171859D01*
X136713Y171008D01*
Y168252D01*
X136882Y167401D01*
X137364Y166680D01*
X138086Y166197D01*
X138937Y166028D01*
X139788Y166197D01*
X140509Y166680D01*
X140992Y167401D01*
X141161Y168252D01*
Y171008D01*
X140992Y171859D01*
X140509Y172580D01*
X139788Y173062D01*
X138937Y173232D01*
D02*
G37*
G36*
X111378D02*
X110527Y173062D01*
X109806Y172580D01*
X109323Y171859D01*
X109154Y171008D01*
Y168252D01*
X109323Y167401D01*
X109806Y166680D01*
X110527Y166197D01*
X111378Y166028D01*
X112229Y166197D01*
X112950Y166680D01*
X113433Y167401D01*
X113602Y168252D01*
Y171008D01*
X113433Y171859D01*
X112950Y172580D01*
X112229Y173062D01*
X111378Y173232D01*
D02*
G37*
G36*
X26500Y173987D02*
X25468Y173851D01*
X24507Y173453D01*
X23681Y172819D01*
X23047Y171993D01*
X22649Y171032D01*
X22513Y170000D01*
X22649Y168968D01*
X23047Y168007D01*
X23681Y167181D01*
X24507Y166547D01*
X25468Y166149D01*
X26500Y166013D01*
X27532Y166149D01*
X28493Y166547D01*
X29319Y167181D01*
X29953Y168007D01*
X30351Y168968D01*
X30487Y170000D01*
X30351Y171032D01*
X29953Y171993D01*
X29319Y172819D01*
X28493Y173453D01*
X27532Y173851D01*
X26500Y173987D01*
D02*
G37*
G36*
X181000Y161921D02*
Y158500D01*
X184421D01*
X184351Y159032D01*
X183953Y159993D01*
X183319Y160819D01*
X182493Y161453D01*
X181532Y161851D01*
X181000Y161921D01*
D02*
G37*
G36*
X180000D02*
X179468Y161851D01*
X178507Y161453D01*
X177681Y160819D01*
X177047Y159993D01*
X176649Y159032D01*
X176579Y158500D01*
X180000D01*
Y161921D01*
D02*
G37*
G36*
X135000Y162782D02*
X134021Y162654D01*
X133109Y162276D01*
X132325Y161674D01*
X131724Y160891D01*
X131346Y159979D01*
X131218Y159000D01*
X131346Y158021D01*
X131724Y157109D01*
X132325Y156325D01*
X133109Y155724D01*
X133407Y155601D01*
X133636Y155092D01*
X133489Y154689D01*
X132879Y154601D01*
X133431Y154528D01*
Y154528D01*
X132700Y154624D01*
X131969Y154528D01*
X131288Y154246D01*
X130703Y153797D01*
X130254Y153212D01*
X129972Y152531D01*
X129876Y151800D01*
X129953Y151216D01*
X106424Y127687D01*
X98145D01*
X97953Y128151D01*
X97319Y128977D01*
X96493Y129610D01*
X95532Y130008D01*
X94500Y130144D01*
X93468Y130008D01*
X92507Y129610D01*
X91681Y128977D01*
X91047Y128151D01*
X90649Y127189D01*
X90513Y126157D01*
X90649Y125126D01*
X91047Y124164D01*
X91681Y123338D01*
X92507Y122705D01*
X93468Y122307D01*
X94500Y122171D01*
X95532Y122307D01*
X96493Y122705D01*
X97319Y123338D01*
X97953Y124164D01*
X98145Y124628D01*
X107057D01*
X107643Y124744D01*
X108139Y125076D01*
X132116Y149053D01*
X132700Y148976D01*
X133431Y149072D01*
X134112Y149354D01*
X134697Y149803D01*
X135146Y150388D01*
X135428Y151069D01*
X135524Y151800D01*
X135428Y152531D01*
X135146Y153212D01*
X134697Y153797D01*
X134296Y154105D01*
X134112Y154246D01*
X134056Y154333D01*
X134645Y155264D01*
X135000Y155218D01*
X135979Y155347D01*
X136891Y155724D01*
X137674Y156325D01*
X138276Y157109D01*
X138654Y158021D01*
X138782Y159000D01*
X138654Y159979D01*
X138276Y160891D01*
X137674Y161674D01*
X136891Y162276D01*
X135979Y162654D01*
X135000Y162782D01*
D02*
G37*
G36*
X115315D02*
X114336Y162654D01*
X113424Y162276D01*
X112640Y161674D01*
X112039Y160891D01*
X111662Y159979D01*
X111533Y159000D01*
X111662Y158021D01*
X112039Y157109D01*
X112640Y156325D01*
X113424Y155724D01*
X114336Y155347D01*
X115315Y155218D01*
X116294Y155347D01*
X117206Y155724D01*
X117990Y156325D01*
X118591Y157109D01*
X118968Y158021D01*
X119097Y159000D01*
X118968Y159979D01*
X118591Y160891D01*
X117990Y161674D01*
X117206Y162276D01*
X116294Y162654D01*
X115315Y162782D01*
D02*
G37*
G36*
X184421Y157500D02*
X181000D01*
Y154079D01*
X181532Y154149D01*
X182493Y154547D01*
X183319Y155181D01*
X183953Y156007D01*
X184351Y156968D01*
X184421Y157500D01*
D02*
G37*
G36*
X180000D02*
X176579D01*
X176649Y156968D01*
X177047Y156007D01*
X177681Y155181D01*
X178507Y154547D01*
X179468Y154149D01*
X180000Y154079D01*
Y157500D01*
D02*
G37*
G36*
X210500Y161987D02*
X209468Y161851D01*
X208507Y161453D01*
X207681Y160819D01*
X207047Y159993D01*
X206649Y159032D01*
X206513Y158000D01*
X206649Y156968D01*
X207047Y156007D01*
X207681Y155181D01*
X208507Y154547D01*
X209468Y154149D01*
X210500Y154013D01*
X211532Y154149D01*
X212493Y154547D01*
X213319Y155181D01*
X213953Y156007D01*
X214351Y156968D01*
X214487Y158000D01*
X214351Y159032D01*
X213953Y159993D01*
X213319Y160819D01*
X212493Y161453D01*
X211532Y161851D01*
X210500Y161987D01*
D02*
G37*
G36*
X200500D02*
X199468Y161851D01*
X198507Y161453D01*
X197681Y160819D01*
X197047Y159993D01*
X196649Y159032D01*
X196513Y158000D01*
X196649Y156968D01*
X197047Y156007D01*
X197681Y155181D01*
X198507Y154547D01*
X199468Y154149D01*
X200500Y154013D01*
X201532Y154149D01*
X202493Y154547D01*
X203319Y155181D01*
X203953Y156007D01*
X204351Y156968D01*
X204487Y158000D01*
X204351Y159032D01*
X203953Y159993D01*
X203319Y160819D01*
X202493Y161453D01*
X201532Y161851D01*
X200500Y161987D01*
D02*
G37*
G36*
X190500D02*
X189468Y161851D01*
X188507Y161453D01*
X187681Y160819D01*
X187047Y159993D01*
X186649Y159032D01*
X186513Y158000D01*
X186649Y156968D01*
X187047Y156007D01*
X187681Y155181D01*
X188507Y154547D01*
X189468Y154149D01*
X190500Y154013D01*
X191532Y154149D01*
X192493Y154547D01*
X193319Y155181D01*
X193953Y156007D01*
X194351Y156968D01*
X194487Y158000D01*
X194351Y159032D01*
X193953Y159993D01*
X193319Y160819D01*
X192493Y161453D01*
X191532Y161851D01*
X190500Y161987D01*
D02*
G37*
G36*
X170500D02*
X169468Y161851D01*
X168507Y161453D01*
X167681Y160819D01*
X167047Y159993D01*
X166649Y159032D01*
X166513Y158000D01*
X166649Y156968D01*
X166736Y156759D01*
X129973Y119997D01*
X118712D01*
X118029Y119861D01*
X117451Y119474D01*
X80241Y82264D01*
X80032Y82351D01*
X79000Y82487D01*
X77968Y82351D01*
X77007Y81953D01*
X76181Y81319D01*
X75547Y80493D01*
X75149Y79532D01*
X75013Y78500D01*
X75149Y77468D01*
X75236Y77259D01*
X57738Y59762D01*
X57351Y59183D01*
X57216Y58500D01*
Y52039D01*
X57007Y51953D01*
X56181Y51319D01*
X55547Y50493D01*
X55149Y49532D01*
X55013Y48500D01*
X55149Y47468D01*
X55236Y47259D01*
X48761Y40784D01*
X35034D01*
X34731Y41784D01*
X34962Y41938D01*
X37759Y44736D01*
X37968Y44649D01*
X39000Y44513D01*
X40032Y44649D01*
X40993Y45047D01*
X41819Y45681D01*
X42453Y46507D01*
X42851Y47468D01*
X42987Y48500D01*
X42851Y49532D01*
X42453Y50493D01*
X41819Y51319D01*
X40993Y51953D01*
X40032Y52351D01*
X39000Y52487D01*
X37968Y52351D01*
X37007Y51953D01*
X36181Y51319D01*
X35547Y50493D01*
X35149Y49532D01*
X35013Y48500D01*
X35149Y47468D01*
X35236Y47259D01*
X33369Y45392D01*
X32918Y45470D01*
X32460Y46490D01*
X32475Y46561D01*
X32851Y47468D01*
X32987Y48500D01*
X32851Y49532D01*
X32453Y50493D01*
X31819Y51319D01*
X30993Y51953D01*
X30032Y52351D01*
X29000Y52487D01*
X27968Y52351D01*
X27007Y51953D01*
X26181Y51319D01*
X25547Y50493D01*
X25149Y49532D01*
X25013Y48500D01*
X25149Y47468D01*
X25547Y46507D01*
X25948Y45984D01*
X25557Y45027D01*
X25516Y44984D01*
X22484D01*
X22443Y45027D01*
X22052Y45984D01*
X22453Y46507D01*
X22851Y47468D01*
X22987Y48500D01*
X22851Y49532D01*
X22453Y50493D01*
X21819Y51319D01*
X20993Y51953D01*
X20032Y52351D01*
X19000Y52487D01*
X17968Y52351D01*
X17007Y51953D01*
X16181Y51319D01*
X15547Y50493D01*
X15149Y49532D01*
X15013Y48500D01*
X15149Y47468D01*
X15547Y46507D01*
X16181Y45681D01*
X17007Y45047D01*
X17968Y44649D01*
X18118Y44629D01*
X18476Y43573D01*
X7736Y32834D01*
X7350Y32255D01*
X7214Y31572D01*
Y24502D01*
X7350Y23819D01*
X7736Y23240D01*
X10047Y20929D01*
Y15547D01*
X17953D01*
Y23453D01*
X12571D01*
X11196Y24827D01*
X11265Y25356D01*
X11472Y25549D01*
X12332Y25913D01*
X12968Y25649D01*
X14000Y25513D01*
X15032Y25649D01*
X15993Y26047D01*
X16819Y26681D01*
X17453Y27507D01*
X17851Y28468D01*
X17987Y29500D01*
X17851Y30532D01*
X17764Y30741D01*
X24239Y37216D01*
X49500D01*
X50183Y37352D01*
X50762Y37738D01*
X57759Y44736D01*
X57968Y44649D01*
X59000Y44513D01*
X60032Y44649D01*
X60993Y45047D01*
X61819Y45681D01*
X62453Y46507D01*
X62851Y47468D01*
X62987Y48500D01*
X62851Y49532D01*
X62453Y50493D01*
X61819Y51319D01*
X60993Y51953D01*
X60784Y52039D01*
Y57761D01*
X77759Y74736D01*
X77968Y74649D01*
X79000Y74513D01*
X80032Y74649D01*
X80993Y75047D01*
X81819Y75681D01*
X82453Y76507D01*
X82851Y77468D01*
X82987Y78500D01*
X82851Y79532D01*
X82764Y79741D01*
X119451Y116428D01*
X130712D01*
X131395Y116564D01*
X131974Y116951D01*
X169259Y154236D01*
X169468Y154149D01*
X170500Y154013D01*
X171532Y154149D01*
X172493Y154547D01*
X173319Y155181D01*
X173953Y156007D01*
X174351Y156968D01*
X174487Y158000D01*
X174351Y159032D01*
X173953Y159993D01*
X173319Y160819D01*
X172493Y161453D01*
X171532Y161851D01*
X170500Y161987D01*
D02*
G37*
G36*
X160500D02*
X159468Y161851D01*
X158507Y161453D01*
X157681Y160819D01*
X157047Y159993D01*
X156649Y159032D01*
X156513Y158000D01*
X156649Y156968D01*
X157047Y156007D01*
X157681Y155181D01*
X158507Y154547D01*
X159468Y154149D01*
X160500Y154013D01*
X161532Y154149D01*
X162493Y154547D01*
X163319Y155181D01*
X163953Y156007D01*
X164351Y156968D01*
X164487Y158000D01*
X164351Y159032D01*
X163953Y159993D01*
X163319Y160819D01*
X162493Y161453D01*
X161532Y161851D01*
X160500Y161987D01*
D02*
G37*
G36*
X95000Y149764D02*
Y146343D01*
X98421D01*
X98351Y146874D01*
X97953Y147836D01*
X97319Y148662D01*
X96493Y149295D01*
X95532Y149694D01*
X95000Y149764D01*
D02*
G37*
G36*
X94000D02*
X93468Y149694D01*
X92507Y149295D01*
X91681Y148662D01*
X91047Y147836D01*
X90649Y146874D01*
X90579Y146343D01*
X94000D01*
Y149764D01*
D02*
G37*
G36*
X98421Y145343D02*
X95000D01*
Y141921D01*
X95532Y141991D01*
X96493Y142390D01*
X97319Y143023D01*
X97953Y143849D01*
X98351Y144811D01*
X98421Y145343D01*
D02*
G37*
G36*
X94000D02*
X90579D01*
X90649Y144811D01*
X91047Y143849D01*
X91681Y143023D01*
X92507Y142390D01*
X93468Y141991D01*
X94000Y141921D01*
Y145343D01*
D02*
G37*
G36*
X166665Y142248D02*
X164000D01*
Y138500D01*
X166665D01*
Y142248D01*
D02*
G37*
G36*
X163000D02*
X160335D01*
Y138500D01*
X163000D01*
Y142248D01*
D02*
G37*
G36*
X177886D02*
X171555D01*
Y134007D01*
X171555Y133752D01*
X171555Y133752D01*
X171661Y133051D01*
X171661D01*
Y130529D01*
X170944D01*
X170359Y130413D01*
X169863Y130081D01*
X167695Y127914D01*
X166772Y128297D01*
Y132796D01*
X166772Y133051D01*
X166665Y134007D01*
Y137500D01*
X163500D01*
X160335D01*
Y133752D01*
X160519D01*
X161228Y133051D01*
X161228Y132752D01*
Y130529D01*
X155856D01*
X155497Y130997D01*
X154912Y131446D01*
X154231Y131728D01*
X153500Y131824D01*
X152769Y131728D01*
X152088Y131446D01*
X151503Y130997D01*
X151054Y130412D01*
X150772Y129731D01*
X150676Y129000D01*
X150772Y128269D01*
X151054Y127588D01*
X151503Y127003D01*
X152088Y126554D01*
X152769Y126272D01*
X153500Y126176D01*
X154231Y126272D01*
X154912Y126554D01*
X155497Y127003D01*
X155856Y127471D01*
X161228D01*
Y124949D01*
X163424D01*
X163806Y124025D01*
X162811Y123029D01*
X159856D01*
X159497Y123497D01*
X158912Y123946D01*
X158231Y124228D01*
X157500Y124324D01*
X156769Y124228D01*
X156088Y123946D01*
X155503Y123497D01*
X155054Y122912D01*
X154772Y122231D01*
X154676Y121500D01*
X154753Y120916D01*
X118142Y84305D01*
X117810Y83809D01*
X117694Y83223D01*
Y82237D01*
X117007Y81953D01*
X116181Y81319D01*
X115547Y80493D01*
X115149Y79532D01*
X115013Y78500D01*
X115149Y77468D01*
X115547Y76507D01*
X116181Y75681D01*
X117007Y75047D01*
X117968Y74649D01*
X119000Y74513D01*
X120032Y74649D01*
X120993Y75047D01*
X121819Y75681D01*
X122453Y76507D01*
X122851Y77468D01*
X122987Y78500D01*
X122851Y79532D01*
X122453Y80493D01*
X121819Y81319D01*
X121216Y81782D01*
X121091Y82645D01*
X121138Y82975D01*
X156916Y118753D01*
X157500Y118676D01*
X158231Y118772D01*
X158912Y119054D01*
X159497Y119503D01*
X159856Y119971D01*
X163444D01*
X164029Y120087D01*
X164526Y120419D01*
X170661Y126554D01*
X171661Y126140D01*
Y124949D01*
X177205D01*
Y133051D01*
X177886Y133752D01*
X177886D01*
Y142248D01*
D02*
G37*
G36*
X68642Y97642D02*
X59358D01*
Y88358D01*
X68642D01*
Y97642D01*
D02*
G37*
G36*
X44000Y97682D02*
X42788Y97522D01*
X41659Y97054D01*
X40690Y96311D01*
X39946Y95341D01*
X39478Y94212D01*
X39318Y93000D01*
X39478Y91788D01*
X39946Y90659D01*
X40690Y89689D01*
X41659Y88946D01*
X42788Y88478D01*
X44000Y88318D01*
X45212Y88478D01*
X46341Y88946D01*
X47311Y89689D01*
X48055Y90659D01*
X48522Y91788D01*
X48682Y93000D01*
X48522Y94212D01*
X48055Y95341D01*
X47311Y96311D01*
X46341Y97054D01*
X45212Y97522D01*
X44000Y97682D01*
D02*
G37*
G36*
X69500Y82421D02*
Y79000D01*
X72921D01*
X72851Y79532D01*
X72453Y80493D01*
X71819Y81319D01*
X70993Y81953D01*
X70032Y82351D01*
X69500Y82421D01*
D02*
G37*
G36*
X68500D02*
X67968Y82351D01*
X67007Y81953D01*
X66181Y81319D01*
X65547Y80493D01*
X65149Y79532D01*
X65079Y79000D01*
X68500D01*
Y82421D01*
D02*
G37*
G36*
X72921Y78000D02*
X69500D01*
Y74579D01*
X70032Y74649D01*
X70993Y75047D01*
X71819Y75681D01*
X72453Y76507D01*
X72851Y77468D01*
X72921Y78000D01*
D02*
G37*
G36*
X68500D02*
X65079D01*
X65149Y77468D01*
X65547Y76507D01*
X66181Y75681D01*
X67007Y75047D01*
X67968Y74649D01*
X68500Y74579D01*
Y78000D01*
D02*
G37*
G36*
X129000Y82487D02*
X127968Y82351D01*
X127007Y81953D01*
X126181Y81319D01*
X125547Y80493D01*
X125149Y79532D01*
X125013Y78500D01*
X125149Y77468D01*
X125547Y76507D01*
X126181Y75681D01*
X127007Y75047D01*
X127968Y74649D01*
X129000Y74513D01*
X130032Y74649D01*
X130993Y75047D01*
X131819Y75681D01*
X132453Y76507D01*
X132851Y77468D01*
X132987Y78500D01*
X132851Y79532D01*
X132453Y80493D01*
X131819Y81319D01*
X130993Y81953D01*
X130032Y82351D01*
X129000Y82487D01*
D02*
G37*
G36*
X109000D02*
X107968Y82351D01*
X107007Y81953D01*
X106181Y81319D01*
X105547Y80493D01*
X105149Y79532D01*
X105013Y78500D01*
X105149Y77468D01*
X105547Y76507D01*
X106181Y75681D01*
X107007Y75047D01*
X107968Y74649D01*
X109000Y74513D01*
X110032Y74649D01*
X110993Y75047D01*
X111819Y75681D01*
X112453Y76507D01*
X112851Y77468D01*
X112987Y78500D01*
X112851Y79532D01*
X112453Y80493D01*
X111819Y81319D01*
X110993Y81953D01*
X110032Y82351D01*
X109000Y82487D01*
D02*
G37*
G36*
X99000D02*
X97968Y82351D01*
X97007Y81953D01*
X96181Y81319D01*
X95547Y80493D01*
X95149Y79532D01*
X95013Y78500D01*
X95149Y77468D01*
X95547Y76507D01*
X96181Y75681D01*
X97007Y75047D01*
X97968Y74649D01*
X99000Y74513D01*
X100032Y74649D01*
X100993Y75047D01*
X101819Y75681D01*
X102453Y76507D01*
X102851Y77468D01*
X102987Y78500D01*
X102851Y79532D01*
X102453Y80493D01*
X101819Y81319D01*
X100993Y81953D01*
X100032Y82351D01*
X99000Y82487D01*
D02*
G37*
G36*
X89000D02*
X87968Y82351D01*
X87007Y81953D01*
X86181Y81319D01*
X85547Y80493D01*
X85149Y79532D01*
X85013Y78500D01*
X85149Y77468D01*
X85547Y76507D01*
X86181Y75681D01*
X87007Y75047D01*
X87968Y74649D01*
X89000Y74513D01*
X90032Y74649D01*
X90993Y75047D01*
X91819Y75681D01*
X92453Y76507D01*
X92851Y77468D01*
X92987Y78500D01*
X92851Y79532D01*
X92453Y80493D01*
X91819Y81319D01*
X90993Y81953D01*
X90032Y82351D01*
X89000Y82487D01*
D02*
G37*
G36*
X39000D02*
X37968Y82351D01*
X37007Y81953D01*
X36181Y81319D01*
X35547Y80493D01*
X35149Y79532D01*
X35013Y78500D01*
X35149Y77468D01*
X35547Y76507D01*
X36181Y75681D01*
X37007Y75047D01*
X37968Y74649D01*
X39000Y74513D01*
X40032Y74649D01*
X40993Y75047D01*
X41819Y75681D01*
X42453Y76507D01*
X42851Y77468D01*
X42987Y78500D01*
X42851Y79532D01*
X42453Y80493D01*
X41819Y81319D01*
X40993Y81953D01*
X40032Y82351D01*
X39000Y82487D01*
D02*
G37*
G36*
X29000D02*
X27968Y82351D01*
X27007Y81953D01*
X26181Y81319D01*
X25547Y80493D01*
X25149Y79532D01*
X25013Y78500D01*
X25149Y77468D01*
X25547Y76507D01*
X26181Y75681D01*
X27007Y75047D01*
X27968Y74649D01*
X29000Y74513D01*
X30032Y74649D01*
X30993Y75047D01*
X31819Y75681D01*
X32453Y76507D01*
X32851Y77468D01*
X32987Y78500D01*
X32851Y79532D01*
X32453Y80493D01*
X31819Y81319D01*
X30993Y81953D01*
X30032Y82351D01*
X29000Y82487D01*
D02*
G37*
G36*
X19000D02*
X17968Y82351D01*
X17007Y81953D01*
X16181Y81319D01*
X15547Y80493D01*
X15149Y79532D01*
X15013Y78500D01*
X15149Y77468D01*
X15547Y76507D01*
X16181Y75681D01*
X17007Y75047D01*
X17968Y74649D01*
X19000Y74513D01*
X20032Y74649D01*
X20993Y75047D01*
X21819Y75681D01*
X22453Y76507D01*
X22851Y77468D01*
X22987Y78500D01*
X22851Y79532D01*
X22453Y80493D01*
X21819Y81319D01*
X20993Y81953D01*
X20032Y82351D01*
X19000Y82487D01*
D02*
G37*
G36*
X9000D02*
X7968Y82351D01*
X7007Y81953D01*
X6181Y81319D01*
X5547Y80493D01*
X5149Y79532D01*
X5013Y78500D01*
X5149Y77468D01*
X5547Y76507D01*
X6181Y75681D01*
X7007Y75047D01*
X7968Y74649D01*
X9000Y74513D01*
X10032Y74649D01*
X10993Y75047D01*
X11819Y75681D01*
X12453Y76507D01*
X12851Y77468D01*
X12987Y78500D01*
X12851Y79532D01*
X12453Y80493D01*
X11819Y81319D01*
X10993Y81953D01*
X10032Y82351D01*
X9000Y82487D01*
D02*
G37*
G36*
X59000D02*
X57968Y82351D01*
X57007Y81953D01*
X56181Y81319D01*
X55547Y80493D01*
X55149Y79532D01*
X55013Y78500D01*
X55149Y77468D01*
X55547Y76507D01*
X56181Y75681D01*
X57007Y75047D01*
X57471Y74855D01*
Y72563D01*
X55774Y70867D01*
X55531Y70967D01*
X54602Y71090D01*
X53673Y70967D01*
X52807Y70609D01*
X52064Y70038D01*
X51494Y69295D01*
X51135Y68429D01*
X51013Y67500D01*
X51135Y66571D01*
X51245Y66305D01*
X44469Y59529D01*
X36882D01*
Y62154D01*
X36882Y62347D01*
Y63153D01*
X36882Y63346D01*
Y65971D01*
X39179D01*
X39289Y65705D01*
X39859Y64962D01*
X40603Y64391D01*
X41469Y64033D01*
X42398Y63910D01*
X43327Y64033D01*
X44192Y64391D01*
X44936Y64962D01*
X45507Y65705D01*
X45865Y66571D01*
X45987Y67500D01*
X45865Y68429D01*
X45755Y68695D01*
X50026Y72966D01*
X50358Y73462D01*
X50474Y74047D01*
Y74832D01*
X50993Y75047D01*
X51819Y75681D01*
X52453Y76507D01*
X52851Y77468D01*
X52987Y78500D01*
X52851Y79532D01*
X52453Y80493D01*
X51819Y81319D01*
X50993Y81953D01*
X50032Y82351D01*
X49000Y82487D01*
X47968Y82351D01*
X47007Y81953D01*
X46181Y81319D01*
X45547Y80493D01*
X45149Y79532D01*
X45013Y78500D01*
X45149Y77468D01*
X45547Y76507D01*
X46181Y75681D01*
X46645Y75325D01*
X46837Y74274D01*
X46790Y74055D01*
X43592Y70858D01*
X43327Y70967D01*
X42398Y71090D01*
X41469Y70967D01*
X40603Y70609D01*
X39859Y70038D01*
X39289Y69295D01*
X39179Y69029D01*
X36882D01*
Y71846D01*
X31142D01*
Y63346D01*
X31142Y63153D01*
Y62347D01*
X31142Y62154D01*
Y53654D01*
X36882D01*
Y56471D01*
X45102D01*
X45688Y56587D01*
X46184Y56919D01*
X53408Y64143D01*
X53673Y64033D01*
X54602Y63910D01*
X55531Y64033D01*
X56397Y64391D01*
X57141Y64962D01*
X57711Y65705D01*
X58070Y66571D01*
X58192Y67500D01*
X58070Y68429D01*
X57950Y68717D01*
X60081Y70849D01*
X60413Y71345D01*
X60529Y71930D01*
Y74855D01*
X60993Y75047D01*
X61819Y75681D01*
X62453Y76507D01*
X62851Y77468D01*
X62987Y78500D01*
X62851Y79532D01*
X62453Y80493D01*
X61819Y81319D01*
X60993Y81953D01*
X60032Y82351D01*
X59000Y82487D01*
D02*
G37*
G36*
X25858Y71846D02*
X23488D01*
Y68000D01*
X25858D01*
Y71846D01*
D02*
G37*
G36*
X22488D02*
X20118D01*
Y68000D01*
X22488D01*
Y71846D01*
D02*
G37*
G36*
X25858Y67000D02*
X22988D01*
X20118D01*
Y63346D01*
X20118Y63153D01*
Y62347D01*
X20118Y62154D01*
Y58500D01*
X22988D01*
X25858D01*
Y62154D01*
X25858Y62347D01*
Y63153D01*
X25858Y63346D01*
Y67000D01*
D02*
G37*
G36*
Y57500D02*
X23488D01*
Y53654D01*
X25858D01*
Y57500D01*
D02*
G37*
G36*
X22488D02*
X20118D01*
Y53654D01*
X22488D01*
Y57500D01*
D02*
G37*
G36*
X142953Y82453D02*
X135047D01*
Y76710D01*
X122515Y64178D01*
X83149D01*
X82563Y64061D01*
X82067Y63730D01*
X73019Y54681D01*
X72687Y54185D01*
X72571Y53600D01*
Y51952D01*
X72392Y51802D01*
X71571Y51510D01*
X70993Y51953D01*
X70032Y52351D01*
X69000Y52487D01*
X67968Y52351D01*
X67007Y51953D01*
X66181Y51319D01*
X65547Y50493D01*
X65149Y49532D01*
X65013Y48500D01*
X65149Y47468D01*
X65547Y46507D01*
X66181Y45681D01*
X67007Y45047D01*
X67968Y44649D01*
X69000Y44513D01*
X70032Y44649D01*
X70271Y44748D01*
X70837Y43900D01*
X47967Y21029D01*
X37645D01*
X37453Y21493D01*
X36819Y22319D01*
X35993Y22953D01*
X35032Y23351D01*
X34000Y23487D01*
X32968Y23351D01*
X32007Y22953D01*
X31181Y22319D01*
X30547Y21493D01*
X30149Y20532D01*
X30013Y19500D01*
X30149Y18468D01*
X30547Y17507D01*
X31181Y16681D01*
X32007Y16047D01*
X32968Y15649D01*
X34000Y15513D01*
X35032Y15649D01*
X35993Y16047D01*
X36819Y16681D01*
X37453Y17507D01*
X37645Y17971D01*
X48600D01*
X49185Y18087D01*
X49681Y18419D01*
X75181Y43919D01*
X75513Y44415D01*
X75602Y44864D01*
X75987Y45120D01*
X76629Y45337D01*
X77007Y45047D01*
X77968Y44649D01*
X78500Y44579D01*
Y48500D01*
Y52421D01*
X77968Y52351D01*
X77007Y51953D01*
X76703Y51720D01*
X75831Y52129D01*
X75738Y53075D01*
X83782Y61119D01*
X123149D01*
X123734Y61236D01*
X124230Y61567D01*
X137210Y74547D01*
X142953D01*
Y82453D01*
D02*
G37*
G36*
X79500Y52421D02*
Y49000D01*
X82921D01*
X82851Y49532D01*
X82453Y50493D01*
X81819Y51319D01*
X80993Y51953D01*
X80032Y52351D01*
X79500Y52421D01*
D02*
G37*
G36*
X82921Y48000D02*
X79500D01*
Y44579D01*
X80032Y44649D01*
X80993Y45047D01*
X81819Y45681D01*
X82453Y46507D01*
X82851Y47468D01*
X82921Y48000D01*
D02*
G37*
G36*
X139000Y52487D02*
X137968Y52351D01*
X137007Y51953D01*
X136181Y51319D01*
X135547Y50493D01*
X135149Y49532D01*
X135013Y48500D01*
X135149Y47468D01*
X135547Y46507D01*
X136181Y45681D01*
X137007Y45047D01*
X137968Y44649D01*
X139000Y44513D01*
X140032Y44649D01*
X140993Y45047D01*
X141819Y45681D01*
X142453Y46507D01*
X142851Y47468D01*
X142987Y48500D01*
X142851Y49532D01*
X142453Y50493D01*
X141819Y51319D01*
X140993Y51953D01*
X140032Y52351D01*
X139000Y52487D01*
D02*
G37*
G36*
X129000D02*
X127968Y52351D01*
X127007Y51953D01*
X126181Y51319D01*
X125547Y50493D01*
X125149Y49532D01*
X125013Y48500D01*
X125149Y47468D01*
X125547Y46507D01*
X126181Y45681D01*
X127007Y45047D01*
X127968Y44649D01*
X129000Y44513D01*
X130032Y44649D01*
X130993Y45047D01*
X131819Y45681D01*
X132453Y46507D01*
X132851Y47468D01*
X132987Y48500D01*
X132851Y49532D01*
X132453Y50493D01*
X131819Y51319D01*
X130993Y51953D01*
X130032Y52351D01*
X129000Y52487D01*
D02*
G37*
G36*
X119000D02*
X117968Y52351D01*
X117007Y51953D01*
X116181Y51319D01*
X115547Y50493D01*
X115149Y49532D01*
X115013Y48500D01*
X115149Y47468D01*
X115547Y46507D01*
X116181Y45681D01*
X117007Y45047D01*
X117968Y44649D01*
X119000Y44513D01*
X120032Y44649D01*
X120993Y45047D01*
X121819Y45681D01*
X122453Y46507D01*
X122851Y47468D01*
X122987Y48500D01*
X122851Y49532D01*
X122453Y50493D01*
X121819Y51319D01*
X120993Y51953D01*
X120032Y52351D01*
X119000Y52487D01*
D02*
G37*
G36*
X109000D02*
X107968Y52351D01*
X107007Y51953D01*
X106181Y51319D01*
X105547Y50493D01*
X105149Y49532D01*
X105013Y48500D01*
X105149Y47468D01*
X105547Y46507D01*
X106181Y45681D01*
X107007Y45047D01*
X107968Y44649D01*
X109000Y44513D01*
X110032Y44649D01*
X110993Y45047D01*
X111819Y45681D01*
X112453Y46507D01*
X112851Y47468D01*
X112987Y48500D01*
X112851Y49532D01*
X112453Y50493D01*
X111819Y51319D01*
X110993Y51953D01*
X110032Y52351D01*
X109000Y52487D01*
D02*
G37*
G36*
X99000D02*
X97968Y52351D01*
X97007Y51953D01*
X96181Y51319D01*
X95547Y50493D01*
X95149Y49532D01*
X95013Y48500D01*
X95149Y47468D01*
X95547Y46507D01*
X96181Y45681D01*
X97007Y45047D01*
X97968Y44649D01*
X99000Y44513D01*
X100032Y44649D01*
X100993Y45047D01*
X101819Y45681D01*
X102453Y46507D01*
X102851Y47468D01*
X102987Y48500D01*
X102851Y49532D01*
X102453Y50493D01*
X101819Y51319D01*
X100993Y51953D01*
X100032Y52351D01*
X99000Y52487D01*
D02*
G37*
G36*
X89000D02*
X87968Y52351D01*
X87007Y51953D01*
X86181Y51319D01*
X85547Y50493D01*
X85149Y49532D01*
X85013Y48500D01*
X85149Y47468D01*
X85547Y46507D01*
X86181Y45681D01*
X87007Y45047D01*
X87968Y44649D01*
X89000Y44513D01*
X90032Y44649D01*
X90993Y45047D01*
X91819Y45681D01*
X92453Y46507D01*
X92851Y47468D01*
X92987Y48500D01*
X92851Y49532D01*
X92453Y50493D01*
X91819Y51319D01*
X90993Y51953D01*
X90032Y52351D01*
X89000Y52487D01*
D02*
G37*
G36*
X49000D02*
X47968Y52351D01*
X47007Y51953D01*
X46181Y51319D01*
X45547Y50493D01*
X45149Y49532D01*
X45013Y48500D01*
X45149Y47468D01*
X45547Y46507D01*
X46181Y45681D01*
X47007Y45047D01*
X47968Y44649D01*
X49000Y44513D01*
X50032Y44649D01*
X50993Y45047D01*
X51819Y45681D01*
X52453Y46507D01*
X52851Y47468D01*
X52987Y48500D01*
X52851Y49532D01*
X52453Y50493D01*
X51819Y51319D01*
X50993Y51953D01*
X50032Y52351D01*
X49000Y52487D01*
D02*
G37*
G36*
X9000D02*
X7968Y52351D01*
X7007Y51953D01*
X6181Y51319D01*
X5547Y50493D01*
X5149Y49532D01*
X5013Y48500D01*
X5149Y47468D01*
X5547Y46507D01*
X6181Y45681D01*
X7007Y45047D01*
X7968Y44649D01*
X9000Y44513D01*
X10032Y44649D01*
X10993Y45047D01*
X11819Y45681D01*
X12453Y46507D01*
X12851Y47468D01*
X12987Y48500D01*
X12851Y49532D01*
X12453Y50493D01*
X11819Y51319D01*
X10993Y51953D01*
X10032Y52351D01*
X9000Y52487D01*
D02*
G37*
G36*
X102953Y41063D02*
X95047D01*
Y33158D01*
X102953D01*
Y41063D01*
D02*
G37*
G36*
X129000Y41097D02*
X127968Y40961D01*
X127007Y40563D01*
X126181Y39929D01*
X125547Y39104D01*
X125149Y38142D01*
X125013Y37110D01*
X125149Y36078D01*
X125547Y35117D01*
X126181Y34291D01*
X127007Y33658D01*
X127968Y33259D01*
X129000Y33123D01*
X130032Y33259D01*
X130993Y33658D01*
X131819Y34291D01*
X132453Y35117D01*
X132851Y36078D01*
X132987Y37110D01*
X132851Y38142D01*
X132453Y39104D01*
X131819Y39929D01*
X130993Y40563D01*
X130032Y40961D01*
X129000Y41097D01*
D02*
G37*
G36*
X119000D02*
X117968Y40961D01*
X117007Y40563D01*
X116181Y39929D01*
X115547Y39104D01*
X115149Y38142D01*
X115013Y37110D01*
X115149Y36078D01*
X115547Y35117D01*
X116181Y34291D01*
X117007Y33658D01*
X117968Y33259D01*
X119000Y33123D01*
X120032Y33259D01*
X120993Y33658D01*
X121819Y34291D01*
X122453Y35117D01*
X122851Y36078D01*
X122987Y37110D01*
X122851Y38142D01*
X122453Y39104D01*
X121819Y39929D01*
X120993Y40563D01*
X120032Y40961D01*
X119000Y41097D01*
D02*
G37*
G36*
X109000D02*
X107968Y40961D01*
X107007Y40563D01*
X106181Y39929D01*
X105547Y39104D01*
X105149Y38142D01*
X105013Y37110D01*
X105149Y36078D01*
X105547Y35117D01*
X106181Y34291D01*
X107007Y33658D01*
X107968Y33259D01*
X109000Y33123D01*
X110032Y33259D01*
X110993Y33658D01*
X111819Y34291D01*
X112453Y35117D01*
X112851Y36078D01*
X112987Y37110D01*
X112851Y38142D01*
X112453Y39104D01*
X111819Y39929D01*
X110993Y40563D01*
X110032Y40961D01*
X109000Y41097D01*
D02*
G37*
G36*
X34500Y33421D02*
Y30000D01*
X37921D01*
X37851Y30532D01*
X37453Y31493D01*
X36819Y32319D01*
X35993Y32953D01*
X35032Y33351D01*
X34500Y33421D01*
D02*
G37*
G36*
X33500D02*
X32968Y33351D01*
X32007Y32953D01*
X31181Y32319D01*
X30547Y31493D01*
X30149Y30532D01*
X30079Y30000D01*
X33500D01*
Y33421D01*
D02*
G37*
G36*
X129500Y29031D02*
Y25610D01*
X132921D01*
X132851Y26142D01*
X132453Y27104D01*
X131819Y27929D01*
X130993Y28563D01*
X130032Y28961D01*
X129500Y29031D01*
D02*
G37*
G36*
X128500D02*
X127968Y28961D01*
X127007Y28563D01*
X126181Y27929D01*
X125547Y27104D01*
X125149Y26142D01*
X125079Y25610D01*
X128500D01*
Y29031D01*
D02*
G37*
G36*
X119500D02*
Y25610D01*
X122921D01*
X122851Y26142D01*
X122453Y27104D01*
X121819Y27929D01*
X120993Y28563D01*
X120032Y28961D01*
X119500Y29031D01*
D02*
G37*
G36*
X118500D02*
X117968Y28961D01*
X117007Y28563D01*
X116181Y27929D01*
X115547Y27104D01*
X115149Y26142D01*
X115079Y25610D01*
X118500D01*
Y29031D01*
D02*
G37*
G36*
X109500D02*
Y25610D01*
X112921D01*
X112851Y26142D01*
X112453Y27104D01*
X111819Y27929D01*
X110993Y28563D01*
X110032Y28961D01*
X109500Y29031D01*
D02*
G37*
G36*
X108500D02*
X107968Y28961D01*
X107007Y28563D01*
X106181Y27929D01*
X105547Y27104D01*
X105149Y26142D01*
X105079Y25610D01*
X108500D01*
Y29031D01*
D02*
G37*
G36*
X99500D02*
Y25610D01*
X102921D01*
X102851Y26142D01*
X102453Y27104D01*
X101819Y27929D01*
X100993Y28563D01*
X100032Y28961D01*
X99500Y29031D01*
D02*
G37*
G36*
X98500D02*
X97968Y28961D01*
X97007Y28563D01*
X96181Y27929D01*
X95547Y27104D01*
X95149Y26142D01*
X95079Y25610D01*
X98500D01*
Y29031D01*
D02*
G37*
G36*
X37921Y29000D02*
X34500D01*
Y25579D01*
X35032Y25649D01*
X35993Y26047D01*
X36819Y26681D01*
X37453Y27507D01*
X37851Y28468D01*
X37921Y29000D01*
D02*
G37*
G36*
X33500D02*
X30079D01*
X30149Y28468D01*
X30547Y27507D01*
X31181Y26681D01*
X32007Y26047D01*
X32968Y25649D01*
X33500Y25579D01*
Y29000D01*
D02*
G37*
G36*
X24000Y33487D02*
X22968Y33351D01*
X22007Y32953D01*
X21181Y32319D01*
X20547Y31493D01*
X20149Y30532D01*
X20013Y29500D01*
X20149Y28468D01*
X20547Y27507D01*
X21181Y26681D01*
X22007Y26047D01*
X22968Y25649D01*
X24000Y25513D01*
X25032Y25649D01*
X25993Y26047D01*
X26819Y26681D01*
X27453Y27507D01*
X27851Y28468D01*
X27987Y29500D01*
X27851Y30532D01*
X27453Y31493D01*
X26819Y32319D01*
X25993Y32953D01*
X25032Y33351D01*
X24000Y33487D01*
D02*
G37*
G36*
X132921Y24610D02*
X129500D01*
Y21189D01*
X130032Y21259D01*
X130993Y21657D01*
X131819Y22291D01*
X132453Y23117D01*
X132851Y24078D01*
X132921Y24610D01*
D02*
G37*
G36*
X128500D02*
X125079D01*
X125149Y24078D01*
X125547Y23117D01*
X126181Y22291D01*
X127007Y21657D01*
X127968Y21259D01*
X128500Y21189D01*
Y24610D01*
D02*
G37*
G36*
X122921D02*
X119500D01*
Y21189D01*
X120032Y21259D01*
X120993Y21657D01*
X121819Y22291D01*
X122453Y23117D01*
X122851Y24078D01*
X122921Y24610D01*
D02*
G37*
G36*
X118500D02*
X115079D01*
X115149Y24078D01*
X115547Y23117D01*
X116181Y22291D01*
X117007Y21657D01*
X117968Y21259D01*
X118500Y21189D01*
Y24610D01*
D02*
G37*
G36*
X112921D02*
X109500D01*
Y21189D01*
X110032Y21259D01*
X110993Y21657D01*
X111819Y22291D01*
X112453Y23117D01*
X112851Y24078D01*
X112921Y24610D01*
D02*
G37*
G36*
X108500D02*
X105079D01*
X105149Y24078D01*
X105547Y23117D01*
X106181Y22291D01*
X107007Y21657D01*
X107968Y21259D01*
X108500Y21189D01*
Y24610D01*
D02*
G37*
G36*
X102921D02*
X99500D01*
Y21189D01*
X100032Y21259D01*
X100993Y21657D01*
X101819Y22291D01*
X102453Y23117D01*
X102851Y24078D01*
X102921Y24610D01*
D02*
G37*
G36*
X98500D02*
X95079D01*
X95149Y24078D01*
X95547Y23117D01*
X96181Y22291D01*
X97007Y21657D01*
X97968Y21259D01*
X98500Y21189D01*
Y24610D01*
D02*
G37*
G36*
X24000Y23487D02*
X22968Y23351D01*
X22007Y22953D01*
X21181Y22319D01*
X20547Y21493D01*
X20149Y20532D01*
X20013Y19500D01*
X20149Y18468D01*
X20547Y17507D01*
X21181Y16681D01*
X22007Y16047D01*
X22968Y15649D01*
X24000Y15513D01*
X25032Y15649D01*
X25993Y16047D01*
X26819Y16681D01*
X27453Y17507D01*
X27851Y18468D01*
X27987Y19500D01*
X27851Y20532D01*
X27453Y21493D01*
X26819Y22319D01*
X25993Y22953D01*
X25032Y23351D01*
X24000Y23487D01*
D02*
G37*
G36*
X102953Y19063D02*
X95047D01*
Y11157D01*
X102953D01*
Y19063D01*
D02*
G37*
G36*
X129000Y19097D02*
X127968Y18961D01*
X127007Y18563D01*
X126181Y17929D01*
X125547Y17104D01*
X125149Y16142D01*
X125013Y15110D01*
X125149Y14078D01*
X125547Y13117D01*
X126181Y12291D01*
X127007Y11658D01*
X127968Y11259D01*
X129000Y11123D01*
X130032Y11259D01*
X130993Y11658D01*
X131819Y12291D01*
X132453Y13117D01*
X132851Y14078D01*
X132987Y15110D01*
X132851Y16142D01*
X132453Y17104D01*
X131819Y17929D01*
X130993Y18563D01*
X130032Y18961D01*
X129000Y19097D01*
D02*
G37*
G36*
X119000D02*
X117968Y18961D01*
X117007Y18563D01*
X116181Y17929D01*
X115547Y17104D01*
X115149Y16142D01*
X115013Y15110D01*
X115149Y14078D01*
X115547Y13117D01*
X116181Y12291D01*
X117007Y11658D01*
X117968Y11259D01*
X119000Y11123D01*
X120032Y11259D01*
X120993Y11658D01*
X121819Y12291D01*
X122453Y13117D01*
X122851Y14078D01*
X122987Y15110D01*
X122851Y16142D01*
X122453Y17104D01*
X121819Y17929D01*
X120993Y18563D01*
X120032Y18961D01*
X119000Y19097D01*
D02*
G37*
G36*
X109000D02*
X107968Y18961D01*
X107007Y18563D01*
X106181Y17929D01*
X105547Y17104D01*
X105149Y16142D01*
X105013Y15110D01*
X105149Y14078D01*
X105547Y13117D01*
X106181Y12291D01*
X107007Y11658D01*
X107968Y11259D01*
X109000Y11123D01*
X110032Y11259D01*
X110993Y11658D01*
X111819Y12291D01*
X112453Y13117D01*
X112851Y14078D01*
X112987Y15110D01*
X112851Y16142D01*
X112453Y17104D01*
X111819Y17929D01*
X110993Y18563D01*
X110032Y18961D01*
X109000Y19097D01*
D02*
G37*
%LPD*%
D13*
X107057Y126157D02*
X132700Y151800D01*
X94500Y126157D02*
X107057D01*
X74100Y45000D02*
Y53600D01*
X83149Y62649D01*
X48600Y19500D02*
X74100Y45000D01*
X34000Y19500D02*
X48600D01*
X83149Y62649D02*
X123149D01*
X157500Y121500D02*
X163444D01*
X170944Y129000D02*
X174433D01*
X163444Y121500D02*
X170944Y129000D01*
X174433D02*
Y137713D01*
X174721Y138000D01*
X153500Y129000D02*
X164000D01*
X34012Y67500D02*
X42398D01*
X34012Y58000D02*
X45102D01*
X54602Y67500D01*
Y67532D02*
X59000Y71930D01*
Y78500D01*
X48945Y74047D02*
Y78445D01*
X42398Y67500D02*
X48945Y74047D01*
Y78445D02*
X49000Y78500D01*
X119223Y78723D02*
Y83223D01*
X119000Y78500D02*
X119223Y78723D01*
Y83223D02*
X157500Y121500D01*
X119000Y78500D02*
X120000D01*
X123149Y62649D02*
X139000Y78500D01*
D38*
X163500Y138000D02*
D03*
X174721D02*
D03*
D39*
X8998Y31572D02*
X20626Y43200D01*
X33700D02*
X39000Y48500D01*
X20626Y43200D02*
X33700D01*
X8998Y24502D02*
X14000Y19500D01*
X8998Y24502D02*
Y31572D01*
X14000Y29500D02*
X23500Y39000D01*
X49500D01*
X59000Y48500D01*
X130712Y118212D02*
X170500Y158000D01*
X118712Y118212D02*
X130712D01*
X79000Y78500D02*
X118712Y118212D01*
X59000Y58500D02*
X79000Y78500D01*
X59000Y48500D02*
Y58500D01*
D40*
X115315Y159000D02*
D03*
X135000D02*
D03*
D41*
X180500Y158000D02*
D03*
X200500D02*
D03*
X210500D02*
D03*
X190500D02*
D03*
X170500D02*
D03*
X160500D02*
D03*
X129000Y78500D02*
D03*
X119000D02*
D03*
X109000D02*
D03*
X99000D02*
D03*
X89000D02*
D03*
X79000D02*
D03*
X69000D02*
D03*
X59000D02*
D03*
X49000D02*
D03*
X39000D02*
D03*
X29000D02*
D03*
X19000D02*
D03*
X9000D02*
D03*
X139000Y48500D02*
D03*
X129000D02*
D03*
X119000D02*
D03*
X109000D02*
D03*
X99000D02*
D03*
X89000D02*
D03*
X79000D02*
D03*
X69000D02*
D03*
X59000D02*
D03*
X49000D02*
D03*
X39000D02*
D03*
X29000D02*
D03*
X19000D02*
D03*
X9000D02*
D03*
X94500Y145843D02*
D03*
X94500Y126157D02*
D03*
X34000Y29500D02*
D03*
Y19500D02*
D03*
X24000Y29500D02*
D03*
Y19500D02*
D03*
X14000Y29500D02*
D03*
X99000Y25110D02*
D03*
X109000Y15110D02*
D03*
Y25110D02*
D03*
X119000Y15110D02*
D03*
Y25110D02*
D03*
X129000Y15110D02*
D03*
Y25110D02*
D03*
X109000Y37110D02*
D03*
X119000D02*
D03*
X129000D02*
D03*
X46500Y170000D02*
D03*
X36500D02*
D03*
X26500D02*
D03*
D42*
X44000Y93000D02*
D03*
D43*
X54602Y67500D02*
D03*
X42398D02*
D03*
D44*
X139000Y78500D02*
D03*
D45*
X64000Y93000D02*
D03*
D46*
X14000Y19500D02*
D03*
X99000Y15110D02*
D03*
Y37110D02*
D03*
X56500Y170000D02*
D03*
D47*
X132700Y151800D02*
D03*
X153500Y129000D02*
D03*
X157500Y121500D02*
D03*
D48*
X174433Y129000D02*
D03*
X164000D02*
D03*
D49*
X22988Y58000D02*
D03*
X34012D02*
D03*
X22988Y67500D02*
D03*
X34012D02*
D03*
M02*
