G04*
G04 #@! TF.GenerationSoftware,Altium Limited,Altium Designer,22.1.2 (22)*
G04*
G04 Layer_Color=16711935*
%FSLAX25Y25*%
%MOIN*%
G70*
G04*
G04 #@! TF.SameCoordinates,7393A906-C076-4882-B3B6-B19C62209B97*
G04*
G04*
G04 #@! TF.FilePolarity,Positive*
G04*
G01*
G75*
%ADD13C,0.01000*%
%ADD51C,0.00394*%
D13*
X221500Y156000D02*
G03*
X201500Y176000I-20000J0D01*
G01*
Y0D02*
G03*
X221500Y20000I0J20000D01*
G01*
X18500Y176000D02*
G03*
X-1500Y156000I0J-20000D01*
G01*
Y20000D02*
G03*
X18500Y0I20000J0D01*
G01*
X201500D01*
X18500Y176000D02*
X201500D01*
X221500Y20000D02*
Y156000D01*
X-1500Y20000D02*
Y156000D01*
D51*
X107579Y175339D02*
X143661D01*
X153504Y175732D02*
Y167735D01*
X149505D01*
X148172Y169068D01*
Y171734D01*
X149505Y173066D01*
X153504D01*
X140175Y169068D02*
X141508Y167735D01*
X144174D01*
X145507Y169068D01*
Y174399D01*
X144174Y175732D01*
X141508D01*
X140175Y174399D01*
X137509Y167735D02*
Y175732D01*
X133510D01*
X132177Y174399D01*
Y173066D01*
X133510Y171734D01*
X137509D01*
X133510D01*
X132177Y170401D01*
Y169068D01*
X133510Y167735D01*
X137509D01*
X116183D02*
X121514D01*
Y175732D01*
X116183D01*
X121514Y171734D02*
X118849D01*
X113517Y167735D02*
Y175732D01*
X109518D01*
X108185Y174399D01*
Y169068D01*
X109518Y167735D01*
X113517D01*
X100188Y169068D02*
X101521Y167735D01*
X104187D01*
X105519Y169068D01*
Y174399D01*
X104187Y175732D01*
X101521D01*
X100188Y174399D01*
Y171734D01*
X102854D01*
X92190Y167735D02*
X97522D01*
Y175732D01*
X92190D01*
X97522Y171734D02*
X94856D01*
M02*
