G04*
G04 #@! TF.GenerationSoftware,Altium Limited,Altium Designer,22.1.2 (22)*
G04*
G04 Layer_Physical_Order=1*
G04 Layer_Color=255*
%FSLAX25Y25*%
%MOIN*%
G70*
G04*
G04 #@! TF.SameCoordinates,7393A906-C076-4882-B3B6-B19C62209B97*
G04*
G04*
G04 #@! TF.FilePolarity,Positive*
G04*
G01*
G75*
%ADD13C,0.01000*%
%ADD17R,0.01500X0.05315*%
%ADD20R,0.06717X0.04349*%
%ADD22O,0.07284X0.01772*%
%ADD24R,0.04349X0.06717*%
%ADD25R,0.03937X0.05906*%
%ADD34C,0.01968*%
%ADD35R,0.06102X0.03543*%
%ADD36R,0.05512X0.05906*%
%ADD37R,0.05906X0.07480*%
%ADD38R,0.04331X0.06496*%
%ADD39C,0.01500*%
%ADD40C,0.05500*%
%ADD41C,0.05906*%
%ADD42C,0.07284*%
%ADD43C,0.05118*%
%ADD44R,0.05906X0.05906*%
%ADD45R,0.07284X0.07284*%
%ADD46R,0.05906X0.05906*%
%ADD47C,0.03600*%
G36*
X141299Y167858D02*
X139331D01*
Y171402D01*
X141299D01*
X141299Y167858D01*
D02*
G37*
G36*
X110984Y167858D02*
X109016D01*
X109016Y171402D01*
X110984D01*
Y167858D01*
D02*
G37*
G36*
X139331Y165890D02*
X134213D01*
Y173370D01*
X139331D01*
Y165890D01*
D02*
G37*
G36*
X116102D02*
X110984D01*
Y173370D01*
X116102D01*
Y165890D01*
D02*
G37*
G36*
X205251Y174856D02*
X207680Y174205D01*
X210003Y173243D01*
X212181Y171985D01*
X214176Y170455D01*
X215954Y168676D01*
X217485Y166681D01*
X218743Y164503D01*
X219705Y162180D01*
X220356Y159751D01*
X220684Y157257D01*
Y156000D01*
Y20000D01*
Y18743D01*
X220356Y16249D01*
X219705Y13820D01*
X218743Y11497D01*
X217485Y9319D01*
X215954Y7324D01*
X214176Y5545D01*
X212181Y4014D01*
X210003Y2757D01*
X207680Y1795D01*
X205251Y1144D01*
X202757Y816D01*
X17243D01*
X14749Y1144D01*
X12320Y1795D01*
X9997Y2757D01*
X7819Y4014D01*
X5824Y5545D01*
X4045Y7324D01*
X2514Y9319D01*
X1257Y11497D01*
X295Y13820D01*
X-356Y16249D01*
X-684Y18743D01*
Y20000D01*
Y156000D01*
Y157257D01*
X-356Y159751D01*
X295Y162180D01*
X1257Y164503D01*
X2514Y166681D01*
X4045Y168676D01*
X5824Y170455D01*
X7819Y171985D01*
X9997Y173243D01*
X12320Y174205D01*
X14749Y174856D01*
X17243Y175184D01*
X109747D01*
X109945Y174184D01*
X109487Y173995D01*
X108867Y173519D01*
X108391Y172899D01*
X108092Y172177D01*
X107990Y171402D01*
X107996Y171356D01*
X107996Y167905D01*
X107990Y167858D01*
X108092Y167083D01*
X108391Y166361D01*
X108867Y165741D01*
X109487Y165265D01*
X110209Y164966D01*
X110984Y164864D01*
X111030Y164870D01*
X116102D01*
X116268Y164903D01*
X117268Y164890D01*
X117748Y164890D01*
X132475D01*
X133047Y164890D01*
X134047Y164903D01*
X134213Y164870D01*
X139285D01*
X139331Y164864D01*
X140106Y164966D01*
X140828Y165265D01*
X141448Y165741D01*
X141924Y166361D01*
X142223Y167083D01*
X142325Y167858D01*
X142319Y167904D01*
X142319Y171355D01*
X142325Y171402D01*
X142223Y172177D01*
X141924Y172899D01*
X141448Y173519D01*
X140828Y173995D01*
X140369Y174184D01*
X140568Y175184D01*
X202757D01*
X205251Y174856D01*
D02*
G37*
%LPC*%
G36*
X47000Y173921D02*
Y170500D01*
X50421D01*
X50351Y171032D01*
X49953Y171993D01*
X49319Y172819D01*
X48493Y173453D01*
X47532Y173851D01*
X47000Y173921D01*
D02*
G37*
G36*
X37000D02*
Y170500D01*
X40421D01*
X40351Y171032D01*
X39953Y171993D01*
X39319Y172819D01*
X38493Y173453D01*
X37532Y173851D01*
X37000Y173921D01*
D02*
G37*
G36*
X46000D02*
X45468Y173851D01*
X44507Y173453D01*
X43681Y172819D01*
X43047Y171993D01*
X42649Y171032D01*
X42579Y170500D01*
X46000D01*
Y173921D01*
D02*
G37*
G36*
X36000D02*
X35468Y173851D01*
X34507Y173453D01*
X33681Y172819D01*
X33047Y171993D01*
X32649Y171032D01*
X32579Y170500D01*
X36000D01*
Y173921D01*
D02*
G37*
G36*
X50421Y169500D02*
X47000D01*
Y166079D01*
X47532Y166149D01*
X48493Y166547D01*
X49319Y167181D01*
X49953Y168007D01*
X50351Y168968D01*
X50421Y169500D01*
D02*
G37*
G36*
X40421D02*
X37000D01*
Y166079D01*
X37532Y166149D01*
X38493Y166547D01*
X39319Y167181D01*
X39953Y168007D01*
X40351Y168968D01*
X40421Y169500D01*
D02*
G37*
G36*
X36000D02*
X32579D01*
X32649Y168968D01*
X33047Y168007D01*
X33681Y167181D01*
X34507Y166547D01*
X35468Y166149D01*
X36000Y166079D01*
Y169500D01*
D02*
G37*
G36*
X46000D02*
X42579D01*
X42649Y168968D01*
X43047Y168007D01*
X43681Y167181D01*
X44507Y166547D01*
X45468Y166149D01*
X46000Y166079D01*
Y169500D01*
D02*
G37*
G36*
X98859Y168296D02*
X95000D01*
Y165621D01*
X98859D01*
Y168296D01*
D02*
G37*
G36*
X94000D02*
X90141D01*
Y165621D01*
X94000D01*
Y168296D01*
D02*
G37*
G36*
X135000Y162782D02*
X134021Y162654D01*
X133109Y162276D01*
X133026Y162212D01*
X132026Y162657D01*
Y162657D01*
X120539D01*
Y159000D01*
Y155342D01*
X123471D01*
Y150134D01*
X119500Y146163D01*
X114696D01*
X114326Y146410D01*
X113591Y146557D01*
X108079D01*
X107343Y146410D01*
X106719Y145993D01*
X106302Y145370D01*
X106156Y144634D01*
X106302Y143898D01*
X106666Y143354D01*
X106302Y142811D01*
X106213Y142364D01*
X105410Y141993D01*
X105193Y141970D01*
X103529Y143633D01*
Y152758D01*
X103413Y153343D01*
X103081Y153839D01*
X100960Y155960D01*
X100464Y156292D01*
X99879Y156408D01*
X98859D01*
Y158053D01*
X90141D01*
Y151704D01*
X98859D01*
Y152275D01*
X99724Y152646D01*
X100471Y152041D01*
Y143000D01*
X100587Y142415D01*
X100919Y141919D01*
X104403Y138434D01*
X104899Y138103D01*
X105421Y137999D01*
X105493Y137974D01*
X105843Y137457D01*
X110835D01*
X115414D01*
X115367Y137692D01*
X115004Y138236D01*
X115367Y138780D01*
X115513Y139516D01*
X115507Y139545D01*
X116282Y140545D01*
X120075D01*
X120660Y140662D01*
X121156Y140993D01*
X128798Y148635D01*
X129130Y149131D01*
X129246Y149716D01*
Y150209D01*
X130246Y150408D01*
X130254Y150388D01*
X130703Y149803D01*
X131288Y149354D01*
X131969Y149072D01*
X132700Y148976D01*
X133431Y149072D01*
X134112Y149354D01*
X134697Y149803D01*
X135146Y150388D01*
X135428Y151069D01*
X135524Y151800D01*
X135428Y152531D01*
X135146Y153212D01*
X134697Y153797D01*
X134296Y154105D01*
X134112Y154246D01*
X134056Y154333D01*
X134645Y155264D01*
X135000Y155218D01*
X135979Y155347D01*
X136891Y155724D01*
X137674Y156325D01*
X138276Y157109D01*
X138654Y158021D01*
X138782Y159000D01*
X138654Y159979D01*
X138276Y160891D01*
X137674Y161674D01*
X136891Y162276D01*
X135979Y162654D01*
X135000Y162782D01*
D02*
G37*
G36*
X98859Y164621D02*
X95000D01*
Y161947D01*
X98859D01*
Y164621D01*
D02*
G37*
G36*
X94000D02*
X90141D01*
Y161947D01*
X94000D01*
Y164621D01*
D02*
G37*
G36*
X202468Y164281D02*
X195252D01*
X194667Y164165D01*
X194170Y163833D01*
X191996Y161659D01*
X191532Y161851D01*
X190500Y161987D01*
X189468Y161851D01*
X188507Y161453D01*
X187681Y160819D01*
X187047Y159993D01*
X186649Y159032D01*
X186513Y158000D01*
X186649Y156968D01*
X187047Y156007D01*
X187681Y155181D01*
X188507Y154547D01*
X189468Y154149D01*
X190500Y154013D01*
X191532Y154149D01*
X192493Y154547D01*
X193319Y155181D01*
X193953Y156007D01*
X194351Y156968D01*
X194487Y158000D01*
X194351Y159032D01*
X194159Y159496D01*
X195809Y161146D01*
X196811Y161051D01*
X197211Y160206D01*
X197047Y159993D01*
X196649Y159032D01*
X196513Y158000D01*
X196649Y156968D01*
X196841Y156504D01*
X163366Y123029D01*
X159856D01*
X159497Y123497D01*
X158912Y123946D01*
X158231Y124228D01*
X157500Y124324D01*
X156769Y124228D01*
X156088Y123946D01*
X155503Y123497D01*
X155054Y122912D01*
X154772Y122231D01*
X154676Y121500D01*
X154772Y120769D01*
X155054Y120088D01*
X155503Y119503D01*
X156088Y119054D01*
X156769Y118772D01*
X157500Y118676D01*
X158231Y118772D01*
X158912Y119054D01*
X159497Y119503D01*
X159856Y119971D01*
X164000D01*
X164585Y120087D01*
X165081Y120419D01*
X198694Y154032D01*
X199416Y153837D01*
X199721Y152808D01*
X159808Y112896D01*
X145613D01*
X144838Y113895D01*
X144844Y113925D01*
X144698Y114661D01*
X144334Y115205D01*
X144698Y115748D01*
X144844Y116484D01*
X144698Y117220D01*
X144334Y117764D01*
X144698Y118307D01*
X144844Y119043D01*
X144838Y119073D01*
X145613Y120073D01*
X146102D01*
X146688Y120189D01*
X147184Y120521D01*
X152916Y126253D01*
X153500Y126176D01*
X154231Y126272D01*
X154912Y126554D01*
X155497Y127003D01*
X155946Y127588D01*
X156228Y128269D01*
X156324Y129000D01*
X156228Y129731D01*
X155946Y130412D01*
X155497Y130997D01*
X154912Y131446D01*
X154231Y131728D01*
X153500Y131824D01*
X152769Y131728D01*
X152088Y131446D01*
X151503Y130997D01*
X151054Y130412D01*
X150772Y129731D01*
X150676Y129000D01*
X150753Y128416D01*
X146054Y123717D01*
X144949Y123956D01*
X144838Y124132D01*
X144844Y124161D01*
X144698Y124897D01*
X144334Y125441D01*
X144698Y125985D01*
X144745Y126221D01*
X140165D01*
X135586D01*
X135633Y125985D01*
X135996Y125441D01*
X135633Y124897D01*
X135487Y124161D01*
X135633Y123426D01*
X135996Y122882D01*
X135633Y122338D01*
X135487Y121602D01*
X135633Y120867D01*
X135996Y120323D01*
X135633Y119779D01*
X135487Y119043D01*
X135633Y118307D01*
X135996Y117764D01*
X135633Y117220D01*
X135487Y116484D01*
X135633Y115748D01*
X135996Y115205D01*
X135633Y114661D01*
X135487Y113925D01*
X135633Y113189D01*
X135996Y112646D01*
X135633Y112102D01*
X135487Y111366D01*
X135633Y110630D01*
X136050Y110006D01*
X136674Y109590D01*
X137409Y109443D01*
X142921D01*
X143657Y109590D01*
X144027Y109837D01*
X156867D01*
X157250Y108913D01*
X130496Y82159D01*
X130032Y82351D01*
X129000Y82487D01*
X127968Y82351D01*
X127007Y81953D01*
X126181Y81319D01*
X125547Y80493D01*
X125149Y79532D01*
X125013Y78500D01*
X125149Y77468D01*
X125547Y76507D01*
X126181Y75681D01*
X127007Y75047D01*
X127968Y74649D01*
X129000Y74513D01*
X130032Y74649D01*
X130993Y75047D01*
X131819Y75681D01*
X132453Y76507D01*
X132851Y77468D01*
X132987Y78500D01*
X132851Y79532D01*
X132659Y79996D01*
X134123Y81460D01*
X135047Y81078D01*
Y74547D01*
X142953D01*
Y82453D01*
X136422D01*
X136039Y83377D01*
X161523Y108860D01*
X161855Y109356D01*
X161971Y109942D01*
Y110733D01*
X203884Y152646D01*
X204320Y152937D01*
X206333Y154950D01*
X206456Y155134D01*
X207414Y155286D01*
X207637Y155238D01*
X207681Y155181D01*
X208507Y154547D01*
X209468Y154149D01*
X210500Y154013D01*
X211532Y154149D01*
X212493Y154547D01*
X213319Y155181D01*
X213953Y156007D01*
X214351Y156968D01*
X214487Y158000D01*
X214351Y159032D01*
X213953Y159993D01*
X213319Y160819D01*
X212493Y161453D01*
X211532Y161851D01*
X210500Y161987D01*
X209468Y161851D01*
X208507Y161453D01*
X207681Y160819D01*
X207637Y160762D01*
X207414Y160714D01*
X206456Y160866D01*
X206333Y161050D01*
X203550Y163833D01*
X203054Y164165D01*
X202468Y164281D01*
D02*
G37*
G36*
X181000Y161921D02*
Y158500D01*
X184421D01*
X184351Y159032D01*
X183953Y159993D01*
X183319Y160819D01*
X182493Y161453D01*
X181532Y161851D01*
X181000Y161921D01*
D02*
G37*
G36*
X180000D02*
X179468Y161851D01*
X178507Y161453D01*
X177681Y160819D01*
X177047Y159993D01*
X176649Y159032D01*
X176579Y158500D01*
X180000D01*
Y161921D01*
D02*
G37*
G36*
X115315Y162782D02*
X114336Y162654D01*
X113424Y162276D01*
X112640Y161674D01*
X112039Y160891D01*
X111662Y159979D01*
X111533Y159000D01*
X111662Y158021D01*
X112039Y157109D01*
X112640Y156325D01*
X113424Y155724D01*
X114336Y155347D01*
X115315Y155218D01*
X116294Y155347D01*
X117206Y155724D01*
X117289Y155788D01*
X118289Y155342D01*
Y155342D01*
X119539D01*
Y159000D01*
Y162657D01*
X118289D01*
Y162657D01*
X117289Y162212D01*
X117206Y162276D01*
X116294Y162654D01*
X115315Y162782D01*
D02*
G37*
G36*
X184421Y157500D02*
X181000D01*
Y154079D01*
X181532Y154149D01*
X182493Y154547D01*
X183319Y155181D01*
X183953Y156007D01*
X184351Y156968D01*
X184421Y157500D01*
D02*
G37*
G36*
X180000D02*
X176579D01*
X176649Y156968D01*
X177047Y156007D01*
X177681Y155181D01*
X178507Y154547D01*
X179468Y154149D01*
X180000Y154079D01*
Y157500D01*
D02*
G37*
G36*
X170500Y161987D02*
X169468Y161851D01*
X168507Y161453D01*
X167681Y160819D01*
X167047Y159993D01*
X166649Y159032D01*
X166513Y158000D01*
X166649Y156968D01*
X167047Y156007D01*
X167681Y155181D01*
X168507Y154547D01*
X169468Y154149D01*
X170500Y154013D01*
X171532Y154149D01*
X172493Y154547D01*
X173319Y155181D01*
X173953Y156007D01*
X174351Y156968D01*
X174487Y158000D01*
X174351Y159032D01*
X173953Y159993D01*
X173319Y160819D01*
X172493Y161453D01*
X171532Y161851D01*
X170500Y161987D01*
D02*
G37*
G36*
X160500D02*
X159468Y161851D01*
X158507Y161453D01*
X157681Y160819D01*
X157047Y159993D01*
X156649Y159032D01*
X156513Y158000D01*
X156649Y156968D01*
X157047Y156007D01*
X157681Y155181D01*
X158507Y154547D01*
X159468Y154149D01*
X160500Y154013D01*
X161532Y154149D01*
X162493Y154547D01*
X163319Y155181D01*
X163953Y156007D01*
X164351Y156968D01*
X164487Y158000D01*
X164351Y159032D01*
X163953Y159993D01*
X163319Y160819D01*
X162493Y161453D01*
X161532Y161851D01*
X160500Y161987D01*
D02*
G37*
G36*
X95000Y149764D02*
Y146343D01*
X98421D01*
X98351Y146874D01*
X97953Y147836D01*
X97319Y148662D01*
X96493Y149295D01*
X95532Y149694D01*
X95000Y149764D01*
D02*
G37*
G36*
X94000D02*
X93468Y149694D01*
X92507Y149295D01*
X91681Y148662D01*
X91047Y147836D01*
X90649Y146874D01*
X90579Y146343D01*
X94000D01*
Y149764D01*
D02*
G37*
G36*
X98421Y145343D02*
X95000D01*
Y141921D01*
X95532Y141991D01*
X96493Y142390D01*
X97319Y143023D01*
X97953Y143849D01*
X98351Y144811D01*
X98421Y145343D01*
D02*
G37*
G36*
X94000D02*
X90579D01*
X90649Y144811D01*
X91047Y143849D01*
X91681Y143023D01*
X92507Y142390D01*
X93468Y141991D01*
X94000Y141921D01*
Y145343D01*
D02*
G37*
G36*
X115414Y136457D02*
X110835D01*
X106255D01*
X106302Y136221D01*
X106666Y135677D01*
X106302Y135133D01*
X106156Y134398D01*
X106162Y134368D01*
X105387Y133368D01*
X100181D01*
X99596Y133252D01*
X99100Y132920D01*
X95996Y129816D01*
X95532Y130008D01*
X94500Y130144D01*
X93468Y130008D01*
X92507Y129610D01*
X91681Y128977D01*
X91047Y128151D01*
X90649Y127189D01*
X90513Y126157D01*
X90649Y125126D01*
X91047Y124164D01*
X91681Y123338D01*
X92507Y122705D01*
X92971Y122513D01*
Y120296D01*
X90141D01*
Y113947D01*
X98859D01*
Y120296D01*
X96029D01*
Y122513D01*
X96493Y122705D01*
X97319Y123338D01*
X97953Y124164D01*
X98351Y125126D01*
X98487Y126157D01*
X98351Y127189D01*
X98159Y127653D01*
X100815Y130309D01*
X105387D01*
X105798Y129780D01*
X110835D01*
X115414D01*
X115367Y130015D01*
X115004Y130559D01*
X115367Y131103D01*
X115513Y131839D01*
X115367Y132574D01*
X115004Y133118D01*
X115367Y133662D01*
X115513Y134398D01*
X115367Y135133D01*
X115004Y135677D01*
X115367Y136221D01*
X115414Y136457D01*
D02*
G37*
G36*
X142921Y146557D02*
X137409D01*
X136674Y146410D01*
X136050Y145993D01*
X135633Y145370D01*
X135487Y144634D01*
X135633Y143898D01*
X135996Y143354D01*
X135633Y142811D01*
X135487Y142075D01*
X135633Y141339D01*
X135996Y140795D01*
X135633Y140252D01*
X135487Y139516D01*
X135633Y138780D01*
X135996Y138236D01*
X135633Y137692D01*
X135487Y136957D01*
X135633Y136221D01*
X135996Y135677D01*
X135633Y135133D01*
X135487Y134398D01*
X135633Y133662D01*
X135996Y133118D01*
X135633Y132574D01*
X135487Y131839D01*
X135633Y131103D01*
X135996Y130559D01*
X135633Y130015D01*
X135487Y129279D01*
X135633Y128544D01*
X135996Y128000D01*
X135633Y127456D01*
X135586Y127220D01*
X140165D01*
X144745D01*
X144698Y127456D01*
X144334Y128000D01*
X144698Y128544D01*
X144844Y129279D01*
X144698Y130015D01*
X144334Y130559D01*
X144698Y131103D01*
X144844Y131839D01*
X144698Y132574D01*
X144334Y133118D01*
X144698Y133662D01*
X144844Y134398D01*
X144698Y135133D01*
X144334Y135677D01*
X144698Y136221D01*
X144844Y136957D01*
X144698Y137692D01*
X144334Y138236D01*
X144698Y138780D01*
X144844Y139516D01*
X144698Y140252D01*
X144334Y140795D01*
X144698Y141339D01*
X144844Y142075D01*
X144698Y142811D01*
X144334Y143354D01*
X144698Y143898D01*
X144844Y144634D01*
X144698Y145370D01*
X144281Y145993D01*
X143657Y146410D01*
X142921Y146557D01*
D02*
G37*
G36*
X115414Y128779D02*
X110835D01*
X106255D01*
X106302Y128544D01*
X106666Y128000D01*
X106302Y127456D01*
X106156Y126720D01*
X106302Y125985D01*
X106666Y125441D01*
X106302Y124897D01*
X106156Y124161D01*
X106302Y123426D01*
X106666Y122882D01*
X106302Y122338D01*
X106156Y121602D01*
X106302Y120867D01*
X106666Y120323D01*
X106302Y119779D01*
X106255Y119543D01*
X110835D01*
X115414D01*
X115367Y119779D01*
X115004Y120323D01*
X115367Y120867D01*
X115513Y121602D01*
X115367Y122338D01*
X115004Y122882D01*
X115367Y123426D01*
X115513Y124161D01*
X115367Y124897D01*
X115004Y125441D01*
X115367Y125985D01*
X115513Y126720D01*
X115367Y127456D01*
X115004Y128000D01*
X115367Y128544D01*
X115414Y128779D01*
D02*
G37*
G36*
X115414Y118543D02*
X110835D01*
X106255D01*
X106302Y118307D01*
X106666Y117764D01*
X106302Y117220D01*
X106255Y116984D01*
X110835D01*
X115414D01*
X115367Y117220D01*
X115004Y117764D01*
X115367Y118307D01*
X115414Y118543D01*
D02*
G37*
G36*
X115414Y115984D02*
X110835D01*
X106255D01*
X106302Y115748D01*
X106666Y115205D01*
X106302Y114661D01*
X106156Y113925D01*
X106302Y113189D01*
X106666Y112646D01*
X106302Y112102D01*
X106156Y111366D01*
X106302Y110630D01*
X106719Y110006D01*
X107343Y109590D01*
X108079Y109443D01*
X113591D01*
X114326Y109590D01*
X114950Y110006D01*
X115367Y110630D01*
X115513Y111366D01*
X115367Y112102D01*
X115004Y112646D01*
X115367Y113189D01*
X115513Y113925D01*
X115367Y114661D01*
X115004Y115205D01*
X115367Y115748D01*
X115414Y115984D01*
D02*
G37*
G36*
X98859Y110053D02*
X95000D01*
Y107379D01*
X98859D01*
Y110053D01*
D02*
G37*
G36*
X94000D02*
X90141D01*
Y107379D01*
X94000D01*
Y110053D01*
D02*
G37*
G36*
X98859Y106379D02*
X95000D01*
Y103704D01*
X98859D01*
Y106379D01*
D02*
G37*
G36*
X94000D02*
X90141D01*
Y103704D01*
X94000D01*
Y106379D01*
D02*
G37*
G36*
X26500Y173987D02*
X25468Y173851D01*
X24507Y173453D01*
X23681Y172819D01*
X23047Y171993D01*
X22649Y171032D01*
X22513Y170000D01*
X22649Y168968D01*
X23047Y168007D01*
X23681Y167181D01*
X24507Y166547D01*
X24716Y166461D01*
Y113676D01*
X11028Y99988D01*
X5449D01*
Y94445D01*
X13551D01*
Y97465D01*
X27762Y111675D01*
X27762Y111675D01*
X28148Y112254D01*
X28284Y112937D01*
X28284Y112937D01*
Y166461D01*
X28493Y166547D01*
X29319Y167181D01*
X29953Y168007D01*
X30351Y168968D01*
X30487Y170000D01*
X30351Y171032D01*
X29953Y171993D01*
X29319Y172819D01*
X28493Y173453D01*
X27532Y173851D01*
X26500Y173987D01*
D02*
G37*
G36*
X33276Y96248D02*
X30610D01*
Y92500D01*
X33276D01*
Y96248D01*
D02*
G37*
G36*
X29610D02*
X26945D01*
Y92500D01*
X29610D01*
Y96248D01*
D02*
G37*
G36*
X132661Y94953D02*
X129405D01*
Y91500D01*
X132661D01*
Y94953D01*
D02*
G37*
G36*
X128405D02*
X125150D01*
Y91500D01*
X128405D01*
Y94953D01*
D02*
G37*
G36*
X80432Y95359D02*
X77758D01*
Y91500D01*
X80432D01*
Y95359D01*
D02*
G37*
G36*
X76758D02*
X74083D01*
Y91500D01*
X76758D01*
Y95359D01*
D02*
G37*
G36*
X60453Y173953D02*
X52547D01*
Y166047D01*
X54716D01*
Y113739D01*
X42738Y101762D01*
X42351Y101183D01*
X42216Y100500D01*
Y97285D01*
X41659Y97054D01*
X40690Y96311D01*
X39946Y95341D01*
X39478Y94212D01*
X39318Y93000D01*
X39478Y91788D01*
X39708Y91232D01*
X36761Y88284D01*
X33276D01*
Y91500D01*
X30110D01*
X26945D01*
Y88284D01*
X24046D01*
X22055Y90275D01*
Y96248D01*
X15724D01*
Y90275D01*
X14551Y89102D01*
X13551Y89516D01*
Y89555D01*
X5449D01*
Y84012D01*
X13551D01*
Y84999D01*
X14756D01*
X15439Y85135D01*
X16018Y85522D01*
X18248Y87752D01*
X19532D01*
X22045Y85238D01*
X22624Y84851D01*
X23307Y84716D01*
X23307Y84716D01*
X37500D01*
X38183Y84851D01*
X38762Y85238D01*
X42232Y88708D01*
X42788Y88478D01*
X44000Y88318D01*
X45212Y88478D01*
X46341Y88946D01*
X47311Y89689D01*
X48055Y90659D01*
X48522Y91788D01*
X48682Y93000D01*
X48522Y94212D01*
X48055Y95341D01*
X47311Y96311D01*
X46341Y97054D01*
X45784Y97285D01*
Y99761D01*
X57762Y111738D01*
X58148Y112317D01*
X58284Y113000D01*
X58284Y113000D01*
Y166047D01*
X60453D01*
Y173953D01*
D02*
G37*
G36*
X132661Y90500D02*
X129405D01*
Y87047D01*
X132661D01*
Y90500D01*
D02*
G37*
G36*
X128405D02*
X125150D01*
Y87047D01*
X128405D01*
Y90500D01*
D02*
G37*
G36*
X110276Y95248D02*
X103945D01*
Y86752D01*
X110276D01*
Y89471D01*
X113339D01*
Y87047D01*
X120850D01*
Y94953D01*
X113339D01*
Y92529D01*
X110276D01*
Y95248D01*
D02*
G37*
G36*
X80432Y90500D02*
X77758D01*
Y86641D01*
X80432D01*
Y90500D01*
D02*
G37*
G36*
X99055Y95248D02*
X92724D01*
Y86752D01*
X93705D01*
X94089Y85752D01*
X90496Y82159D01*
X90032Y82351D01*
X89000Y82487D01*
X87968Y82351D01*
X87007Y81953D01*
X86181Y81319D01*
X85547Y80493D01*
X85149Y79532D01*
X85013Y78500D01*
X85149Y77468D01*
X85547Y76507D01*
X86181Y75681D01*
X87007Y75047D01*
X87968Y74649D01*
X89000Y74513D01*
X90032Y74649D01*
X90993Y75047D01*
X91819Y75681D01*
X92453Y76507D01*
X92851Y77468D01*
X92987Y78500D01*
X92851Y79532D01*
X92659Y79996D01*
X96971Y84308D01*
X97303Y84804D01*
X97419Y85390D01*
Y86752D01*
X99055D01*
Y95248D01*
D02*
G37*
G36*
X68642Y97642D02*
X59358D01*
Y88358D01*
X66118D01*
X69340Y85137D01*
X69340Y85137D01*
X72154Y82323D01*
X71493Y81569D01*
X71370Y81664D01*
X70993Y81953D01*
X70032Y82351D01*
X69500Y82421D01*
Y79000D01*
X72921D01*
X72851Y79532D01*
X72453Y80493D01*
X72164Y80870D01*
X72069Y80993D01*
X72823Y81654D01*
X75125Y79351D01*
X75013Y78500D01*
X75149Y77468D01*
X75547Y76507D01*
X76181Y75681D01*
X77007Y75047D01*
X77968Y74649D01*
X79000Y74513D01*
X80032Y74649D01*
X80993Y75047D01*
X81819Y75681D01*
X82453Y76507D01*
X82851Y77468D01*
X82987Y78500D01*
X82851Y79532D01*
X82764Y79741D01*
X88489Y85465D01*
X88489Y85465D01*
X88876Y86044D01*
X88994Y86641D01*
X90675D01*
Y95359D01*
X84325D01*
Y86641D01*
X84325Y86641D01*
X84325D01*
X83835Y85858D01*
X80241Y82264D01*
X80032Y82351D01*
X79000Y82487D01*
X77968Y82351D01*
X77405Y82118D01*
X73740Y85783D01*
X74296Y86641D01*
X74995Y86641D01*
X76758D01*
Y90500D01*
X74083D01*
Y87616D01*
X74083Y86854D01*
X73225Y86298D01*
X71863Y87660D01*
X71863Y87660D01*
X68642Y90882D01*
Y97642D01*
D02*
G37*
G36*
X68500Y82421D02*
X67968Y82351D01*
X67007Y81953D01*
X66181Y81319D01*
X65547Y80493D01*
X65149Y79532D01*
X65079Y79000D01*
X68500D01*
Y82421D01*
D02*
G37*
G36*
X119000Y82487D02*
X117968Y82351D01*
X117007Y81953D01*
X116181Y81319D01*
X115547Y80493D01*
X115149Y79532D01*
X115013Y78500D01*
X115149Y77468D01*
X115547Y76507D01*
X116181Y75681D01*
X117007Y75047D01*
X117968Y74649D01*
X119000Y74513D01*
X120032Y74649D01*
X120993Y75047D01*
X121819Y75681D01*
X122453Y76507D01*
X122851Y77468D01*
X122987Y78500D01*
X122851Y79532D01*
X122453Y80493D01*
X121819Y81319D01*
X120993Y81953D01*
X120032Y82351D01*
X119000Y82487D01*
D02*
G37*
G36*
X109000D02*
X107968Y82351D01*
X107007Y81953D01*
X106181Y81319D01*
X105547Y80493D01*
X105149Y79532D01*
X105013Y78500D01*
X105149Y77468D01*
X105547Y76507D01*
X106181Y75681D01*
X107007Y75047D01*
X107968Y74649D01*
X109000Y74513D01*
X110032Y74649D01*
X110993Y75047D01*
X111819Y75681D01*
X112453Y76507D01*
X112851Y77468D01*
X112987Y78500D01*
X112851Y79532D01*
X112453Y80493D01*
X111819Y81319D01*
X110993Y81953D01*
X110032Y82351D01*
X109000Y82487D01*
D02*
G37*
G36*
X99000D02*
X97968Y82351D01*
X97007Y81953D01*
X96181Y81319D01*
X95547Y80493D01*
X95149Y79532D01*
X95013Y78500D01*
X95149Y77468D01*
X95547Y76507D01*
X96181Y75681D01*
X97007Y75047D01*
X97968Y74649D01*
X99000Y74513D01*
X100032Y74649D01*
X100993Y75047D01*
X101819Y75681D01*
X102453Y76507D01*
X102851Y77468D01*
X102987Y78500D01*
X102851Y79532D01*
X102453Y80493D01*
X101819Y81319D01*
X100993Y81953D01*
X100032Y82351D01*
X99000Y82487D01*
D02*
G37*
G36*
X59000D02*
X57968Y82351D01*
X57007Y81953D01*
X56181Y81319D01*
X55547Y80493D01*
X55149Y79532D01*
X55013Y78500D01*
X55149Y77468D01*
X55547Y76507D01*
X56181Y75681D01*
X57007Y75047D01*
X57968Y74649D01*
X59000Y74513D01*
X60032Y74649D01*
X60993Y75047D01*
X61819Y75681D01*
X62453Y76507D01*
X62851Y77468D01*
X62987Y78500D01*
X62851Y79532D01*
X62453Y80493D01*
X61819Y81319D01*
X60993Y81953D01*
X60032Y82351D01*
X59000Y82487D01*
D02*
G37*
G36*
X49000D02*
X47968Y82351D01*
X47007Y81953D01*
X46181Y81319D01*
X45547Y80493D01*
X45149Y79532D01*
X45013Y78500D01*
X45149Y77468D01*
X45547Y76507D01*
X46181Y75681D01*
X47007Y75047D01*
X47968Y74649D01*
X49000Y74513D01*
X50032Y74649D01*
X50993Y75047D01*
X51819Y75681D01*
X52453Y76507D01*
X52851Y77468D01*
X52987Y78500D01*
X52851Y79532D01*
X52453Y80493D01*
X51819Y81319D01*
X50993Y81953D01*
X50032Y82351D01*
X49000Y82487D01*
D02*
G37*
G36*
X39000D02*
X37968Y82351D01*
X37007Y81953D01*
X36181Y81319D01*
X35547Y80493D01*
X35149Y79532D01*
X35013Y78500D01*
X35149Y77468D01*
X35547Y76507D01*
X36181Y75681D01*
X37007Y75047D01*
X37968Y74649D01*
X39000Y74513D01*
X40032Y74649D01*
X40993Y75047D01*
X41819Y75681D01*
X42453Y76507D01*
X42851Y77468D01*
X42987Y78500D01*
X42851Y79532D01*
X42453Y80493D01*
X41819Y81319D01*
X40993Y81953D01*
X40032Y82351D01*
X39000Y82487D01*
D02*
G37*
G36*
X29000D02*
X27968Y82351D01*
X27007Y81953D01*
X26181Y81319D01*
X25547Y80493D01*
X25149Y79532D01*
X25013Y78500D01*
X25149Y77468D01*
X25547Y76507D01*
X26181Y75681D01*
X27007Y75047D01*
X27968Y74649D01*
X29000Y74513D01*
X30032Y74649D01*
X30993Y75047D01*
X31819Y75681D01*
X32453Y76507D01*
X32851Y77468D01*
X32987Y78500D01*
X32851Y79532D01*
X32453Y80493D01*
X31819Y81319D01*
X30993Y81953D01*
X30032Y82351D01*
X29000Y82487D01*
D02*
G37*
G36*
X19000D02*
X17968Y82351D01*
X17007Y81953D01*
X16181Y81319D01*
X15547Y80493D01*
X15149Y79532D01*
X15013Y78500D01*
X15149Y77468D01*
X15547Y76507D01*
X16181Y75681D01*
X17007Y75047D01*
X17968Y74649D01*
X19000Y74513D01*
X20032Y74649D01*
X20993Y75047D01*
X21819Y75681D01*
X22453Y76507D01*
X22851Y77468D01*
X22987Y78500D01*
X22851Y79532D01*
X22453Y80493D01*
X21819Y81319D01*
X20993Y81953D01*
X20032Y82351D01*
X19000Y82487D01*
D02*
G37*
G36*
X9000D02*
X7968Y82351D01*
X7007Y81953D01*
X6181Y81319D01*
X5547Y80493D01*
X5149Y79532D01*
X5013Y78500D01*
X5149Y77468D01*
X5547Y76507D01*
X6181Y75681D01*
X7007Y75047D01*
X7968Y74649D01*
X9000Y74513D01*
X10032Y74649D01*
X10993Y75047D01*
X11819Y75681D01*
X12453Y76507D01*
X12851Y77468D01*
X12987Y78500D01*
X12851Y79532D01*
X12453Y80493D01*
X11819Y81319D01*
X10993Y81953D01*
X10032Y82351D01*
X9000Y82487D01*
D02*
G37*
G36*
X54602Y71090D02*
X53673Y70967D01*
X52807Y70609D01*
X52064Y70038D01*
X51494Y69295D01*
X51135Y68429D01*
X51013Y67500D01*
X51135Y66571D01*
X51494Y65705D01*
X52064Y64962D01*
X52807Y64391D01*
X53673Y64033D01*
X54602Y63910D01*
X55531Y64033D01*
X56397Y64391D01*
X57141Y64962D01*
X57711Y65705D01*
X58070Y66571D01*
X58192Y67500D01*
X58070Y68429D01*
X57711Y69295D01*
X57141Y70038D01*
X56397Y70609D01*
X55531Y70967D01*
X54602Y71090D01*
D02*
G37*
G36*
X42398D02*
X41469Y70967D01*
X40603Y70609D01*
X39859Y70038D01*
X39289Y69295D01*
X38930Y68429D01*
X38808Y67500D01*
X38930Y66571D01*
X39289Y65705D01*
X39859Y64962D01*
X40603Y64391D01*
X41469Y64033D01*
X42398Y63910D01*
X43327Y64033D01*
X44192Y64391D01*
X44936Y64962D01*
X45507Y65705D01*
X45865Y66571D01*
X45987Y67500D01*
X45865Y68429D01*
X45507Y69295D01*
X44936Y70038D01*
X44192Y70609D01*
X43327Y70967D01*
X42398Y71090D01*
D02*
G37*
G36*
X79500Y52421D02*
Y49000D01*
X82921D01*
X82851Y49532D01*
X82453Y50493D01*
X81819Y51319D01*
X80993Y51953D01*
X80032Y52351D01*
X79500Y52421D01*
D02*
G37*
G36*
X72921Y78000D02*
X69000D01*
X65079D01*
X65149Y77468D01*
X65547Y76507D01*
X66181Y75681D01*
X67007Y75047D01*
X67471Y74855D01*
Y58500D01*
X67587Y57915D01*
X67919Y57419D01*
X75341Y49996D01*
X75149Y49532D01*
X75079Y49000D01*
X78500D01*
Y52421D01*
X77968Y52351D01*
X77504Y52159D01*
X70529Y59133D01*
Y74855D01*
X70993Y75047D01*
X71819Y75681D01*
X72453Y76507D01*
X72851Y77468D01*
X72921Y78000D01*
D02*
G37*
G36*
X82921Y48000D02*
X79500D01*
Y44579D01*
X80032Y44649D01*
X80993Y45047D01*
X81819Y45681D01*
X82453Y46507D01*
X82851Y47468D01*
X82921Y48000D01*
D02*
G37*
G36*
X78500D02*
X75079D01*
X75149Y47468D01*
X75547Y46507D01*
X76181Y45681D01*
X77007Y45047D01*
X77968Y44649D01*
X78500Y44579D01*
Y48000D01*
D02*
G37*
G36*
X139000Y52487D02*
X137968Y52351D01*
X137007Y51953D01*
X136181Y51319D01*
X135547Y50493D01*
X135149Y49532D01*
X135013Y48500D01*
X135149Y47468D01*
X135547Y46507D01*
X136181Y45681D01*
X137007Y45047D01*
X137968Y44649D01*
X139000Y44513D01*
X140032Y44649D01*
X140993Y45047D01*
X141819Y45681D01*
X142453Y46507D01*
X142851Y47468D01*
X142987Y48500D01*
X142851Y49532D01*
X142453Y50493D01*
X141819Y51319D01*
X140993Y51953D01*
X140032Y52351D01*
X139000Y52487D01*
D02*
G37*
G36*
X129000D02*
X127968Y52351D01*
X127007Y51953D01*
X126181Y51319D01*
X125547Y50493D01*
X125149Y49532D01*
X125013Y48500D01*
X125149Y47468D01*
X125547Y46507D01*
X126181Y45681D01*
X127007Y45047D01*
X127968Y44649D01*
X129000Y44513D01*
X130032Y44649D01*
X130993Y45047D01*
X131819Y45681D01*
X132453Y46507D01*
X132851Y47468D01*
X132987Y48500D01*
X132851Y49532D01*
X132453Y50493D01*
X131819Y51319D01*
X130993Y51953D01*
X130032Y52351D01*
X129000Y52487D01*
D02*
G37*
G36*
X39000D02*
X37968Y52351D01*
X37007Y51953D01*
X36181Y51319D01*
X35547Y50493D01*
X35149Y49532D01*
X35013Y48500D01*
X35149Y47468D01*
X35547Y46507D01*
X36181Y45681D01*
X37007Y45047D01*
X37968Y44649D01*
X39000Y44513D01*
X40032Y44649D01*
X40993Y45047D01*
X41819Y45681D01*
X42453Y46507D01*
X42851Y47468D01*
X42987Y48500D01*
X42851Y49532D01*
X42453Y50493D01*
X41819Y51319D01*
X40993Y51953D01*
X40032Y52351D01*
X39000Y52487D01*
D02*
G37*
G36*
X29000D02*
X27968Y52351D01*
X27007Y51953D01*
X26181Y51319D01*
X25547Y50493D01*
X25149Y49532D01*
X25013Y48500D01*
X25149Y47468D01*
X25236Y47259D01*
X22738Y44762D01*
X22352Y44183D01*
X22216Y43500D01*
Y33039D01*
X22007Y32953D01*
X21181Y32319D01*
X20547Y31493D01*
X20149Y30532D01*
X20013Y29500D01*
X20149Y28468D01*
X20547Y27507D01*
X21181Y26681D01*
X22007Y26047D01*
X22968Y25649D01*
X24000Y25513D01*
X25032Y25649D01*
X25993Y26047D01*
X26819Y26681D01*
X27453Y27507D01*
X27851Y28468D01*
X27987Y29500D01*
X27851Y30532D01*
X27453Y31493D01*
X26819Y32319D01*
X25993Y32953D01*
X25784Y33039D01*
Y42761D01*
X27759Y44736D01*
X27968Y44649D01*
X29000Y44513D01*
X30032Y44649D01*
X30993Y45047D01*
X31819Y45681D01*
X32453Y46507D01*
X32851Y47468D01*
X32987Y48500D01*
X32851Y49532D01*
X32453Y50493D01*
X31819Y51319D01*
X30993Y51953D01*
X30032Y52351D01*
X29000Y52487D01*
D02*
G37*
G36*
X19000D02*
X17968Y52351D01*
X17007Y51953D01*
X16181Y51319D01*
X15547Y50493D01*
X15149Y49532D01*
X15013Y48500D01*
X15149Y47468D01*
X15547Y46507D01*
X16181Y45681D01*
X17007Y45047D01*
X17968Y44649D01*
X19000Y44513D01*
X20032Y44649D01*
X20993Y45047D01*
X21819Y45681D01*
X22453Y46507D01*
X22851Y47468D01*
X22987Y48500D01*
X22851Y49532D01*
X22453Y50493D01*
X21819Y51319D01*
X20993Y51953D01*
X20032Y52351D01*
X19000Y52487D01*
D02*
G37*
G36*
X9000D02*
X7968Y52351D01*
X7007Y51953D01*
X6181Y51319D01*
X5547Y50493D01*
X5149Y49532D01*
X5013Y48500D01*
X5149Y47468D01*
X5547Y46507D01*
X6181Y45681D01*
X7007Y45047D01*
X7968Y44649D01*
X9000Y44513D01*
X10032Y44649D01*
X10993Y45047D01*
X11819Y45681D01*
X12453Y46507D01*
X12851Y47468D01*
X12987Y48500D01*
X12851Y49532D01*
X12453Y50493D01*
X11819Y51319D01*
X10993Y51953D01*
X10032Y52351D01*
X9000Y52487D01*
D02*
G37*
G36*
X69000D02*
X67968Y52351D01*
X67007Y51953D01*
X66181Y51319D01*
X65547Y50493D01*
X65149Y49532D01*
X65013Y48500D01*
X65149Y47468D01*
X65547Y46507D01*
X66181Y45681D01*
X67007Y45047D01*
X67968Y44649D01*
X69000Y44513D01*
X69110Y44416D01*
X69141Y43237D01*
X68764Y42859D01*
X67826Y42859D01*
X66904Y43049D01*
X66762Y43262D01*
X62764Y47259D01*
X62851Y47468D01*
X62987Y48500D01*
X62851Y49532D01*
X62453Y50493D01*
X61819Y51319D01*
X60993Y51953D01*
X60032Y52351D01*
X59000Y52487D01*
X57968Y52351D01*
X57007Y51953D01*
X56181Y51319D01*
X55547Y50493D01*
X55149Y49532D01*
X55013Y48500D01*
X55149Y47468D01*
X55341Y47004D01*
X53889Y45552D01*
X52909Y45633D01*
X52453Y46507D01*
X52851Y47468D01*
X52987Y48500D01*
X52851Y49532D01*
X52453Y50493D01*
X51819Y51319D01*
X50993Y51953D01*
X50032Y52351D01*
X49000Y52487D01*
X47968Y52351D01*
X47007Y51953D01*
X46181Y51319D01*
X45547Y50493D01*
X45149Y49532D01*
X45013Y48500D01*
X45149Y47468D01*
X45236Y47259D01*
X40853Y42876D01*
X40466Y42297D01*
X40330Y41614D01*
Y21280D01*
X38944Y19893D01*
X37888Y20252D01*
X37851Y20532D01*
X37453Y21493D01*
X36819Y22319D01*
X35993Y22953D01*
X35032Y23351D01*
X34000Y23487D01*
X32968Y23351D01*
X32007Y22953D01*
X31181Y22319D01*
X30547Y21493D01*
X30149Y20532D01*
X30013Y19500D01*
X30149Y18468D01*
X30413Y17832D01*
X30049Y16972D01*
X29856Y16765D01*
X29327Y16696D01*
X27764Y18259D01*
X27851Y18468D01*
X27987Y19500D01*
X27851Y20532D01*
X27453Y21493D01*
X26819Y22319D01*
X25993Y22953D01*
X25032Y23351D01*
X24000Y23487D01*
X22968Y23351D01*
X22007Y22953D01*
X21181Y22319D01*
X20547Y21493D01*
X20149Y20532D01*
X20013Y19500D01*
X20149Y18468D01*
X20547Y17507D01*
X21181Y16681D01*
X22007Y16047D01*
X22968Y15649D01*
X24000Y15513D01*
X25032Y15649D01*
X25241Y15736D01*
X27740Y13236D01*
X27740Y13236D01*
X28319Y12850D01*
X29002Y12714D01*
X36072D01*
X36755Y12850D01*
X37334Y13236D01*
X43376Y19279D01*
X43763Y19858D01*
X43899Y20541D01*
X43899Y20541D01*
Y40875D01*
X45704Y42681D01*
X46704Y42267D01*
X46704Y42144D01*
X46704Y42144D01*
X46704Y42104D01*
Y34141D01*
X53053D01*
Y42471D01*
X54500D01*
X55085Y42587D01*
X55581Y42919D01*
X57504Y44841D01*
X57968Y44649D01*
X59000Y44513D01*
X60032Y44649D01*
X60241Y44736D01*
X61194Y43782D01*
X60811Y42859D01*
X60621D01*
Y38500D01*
Y34141D01*
X62704D01*
X63118Y33141D01*
X60261Y30284D01*
X53000D01*
X52317Y30149D01*
X51738Y29762D01*
X48738Y26762D01*
X48351Y26183D01*
X48216Y25500D01*
Y24248D01*
X46614D01*
Y15752D01*
X52945D01*
Y24248D01*
X52686D01*
X52271Y25248D01*
X53739Y26716D01*
X61000D01*
X61683Y26851D01*
X62262Y27238D01*
X65500Y30477D01*
X71024Y24953D01*
X70768Y24108D01*
X70652Y23953D01*
X67413D01*
Y21529D01*
X64165D01*
Y24248D01*
X57835D01*
Y15752D01*
X64165D01*
Y18471D01*
X67413D01*
Y16047D01*
X73350D01*
Y23216D01*
X73350Y23953D01*
X74242Y24216D01*
X76758D01*
X77650Y23953D01*
X77650Y23216D01*
Y20500D01*
X83587D01*
Y23216D01*
X83587Y23953D01*
X84478Y24216D01*
X87371D01*
X92849Y18738D01*
X93427Y18351D01*
X94110Y18216D01*
X95047D01*
Y11157D01*
X102953D01*
Y18216D01*
X105140D01*
X105633Y17216D01*
X105547Y17104D01*
X105149Y16142D01*
X105013Y15110D01*
X105149Y14078D01*
X105547Y13117D01*
X106181Y12291D01*
X107007Y11658D01*
X107968Y11259D01*
X109000Y11123D01*
X110032Y11259D01*
X110993Y11658D01*
X111819Y12291D01*
X112453Y13117D01*
X112851Y14078D01*
X112987Y15110D01*
X112851Y16142D01*
X112453Y17104D01*
X112367Y17216D01*
X112860Y18216D01*
X115140D01*
X115633Y17216D01*
X115547Y17104D01*
X115149Y16142D01*
X115013Y15110D01*
X115149Y14078D01*
X115547Y13117D01*
X116181Y12291D01*
X117007Y11658D01*
X117968Y11259D01*
X119000Y11123D01*
X120032Y11259D01*
X120993Y11658D01*
X121819Y12291D01*
X122453Y13117D01*
X122851Y14078D01*
X122987Y15110D01*
X122851Y16142D01*
X122453Y17104D01*
X122367Y17216D01*
X122860Y18216D01*
X125140D01*
X125633Y17216D01*
X125547Y17104D01*
X125149Y16142D01*
X125013Y15110D01*
X125149Y14078D01*
X125547Y13117D01*
X126181Y12291D01*
X127007Y11658D01*
X127968Y11259D01*
X129000Y11123D01*
X130032Y11259D01*
X130993Y11658D01*
X131819Y12291D01*
X132453Y13117D01*
X132851Y14078D01*
X132987Y15110D01*
X132851Y16142D01*
X132453Y17104D01*
X131819Y17929D01*
X130993Y18563D01*
X130784Y18650D01*
Y19414D01*
X130649Y20097D01*
X130473Y20360D01*
X130626Y21302D01*
X130782Y21570D01*
X130993Y21657D01*
X131819Y22291D01*
X132453Y23117D01*
X132851Y24078D01*
X132921Y24610D01*
X125079D01*
X125149Y24078D01*
X125547Y23117D01*
X125802Y22784D01*
X125309Y21784D01*
X122691D01*
X122198Y22784D01*
X122453Y23117D01*
X122851Y24078D01*
X122921Y24610D01*
X115079D01*
X115149Y24078D01*
X115547Y23117D01*
X115802Y22784D01*
X115309Y21784D01*
X112691D01*
X112198Y22784D01*
X112453Y23117D01*
X112851Y24078D01*
X112921Y24610D01*
X105079D01*
X105149Y24078D01*
X105547Y23117D01*
X105802Y22784D01*
X105309Y21784D01*
X102691D01*
X102198Y22784D01*
X102453Y23117D01*
X102851Y24078D01*
X102921Y24610D01*
X95079D01*
X95149Y24078D01*
X95444Y23367D01*
X95163Y22608D01*
X94922Y22289D01*
X94412Y22221D01*
X89372Y27262D01*
X88793Y27648D01*
X88110Y27784D01*
X73239D01*
X67882Y33141D01*
X68296Y34141D01*
X74174D01*
Y42859D01*
X72529D01*
Y45461D01*
X72413Y46047D01*
X72267Y46265D01*
X72453Y46507D01*
X72851Y47468D01*
X72987Y48500D01*
X72851Y49532D01*
X72453Y50493D01*
X71819Y51319D01*
X70993Y51953D01*
X70032Y52351D01*
X69000Y52487D01*
D02*
G37*
G36*
X99000D02*
X97968Y52351D01*
X97007Y51953D01*
X96181Y51319D01*
X95547Y50493D01*
X95149Y49532D01*
X95013Y48500D01*
X95149Y47468D01*
X95547Y46507D01*
X96181Y45681D01*
X97007Y45047D01*
X97968Y44649D01*
X99000Y44513D01*
X99998Y44644D01*
X102579Y42063D01*
X102165Y41063D01*
X95047D01*
Y40422D01*
X94123Y40040D01*
X90529Y43633D01*
Y44855D01*
X90993Y45047D01*
X91819Y45681D01*
X92453Y46507D01*
X92851Y47468D01*
X92987Y48500D01*
X92851Y49532D01*
X92453Y50493D01*
X91819Y51319D01*
X90993Y51953D01*
X90032Y52351D01*
X89000Y52487D01*
X87968Y52351D01*
X87007Y51953D01*
X86181Y51319D01*
X85547Y50493D01*
X85149Y49532D01*
X85013Y48500D01*
X85149Y47468D01*
X85547Y46507D01*
X86181Y45681D01*
X87007Y45047D01*
X87471Y44855D01*
Y43000D01*
X87587Y42415D01*
X87919Y41919D01*
X93808Y36029D01*
X94305Y35697D01*
X94890Y35581D01*
X95047D01*
Y33158D01*
X102953D01*
Y40275D01*
X103953Y40690D01*
X105545Y39097D01*
X105149Y38142D01*
X105013Y37110D01*
X105149Y36078D01*
X105547Y35117D01*
X106181Y34291D01*
X107007Y33658D01*
X107968Y33259D01*
X109000Y33123D01*
X110032Y33259D01*
X110993Y33658D01*
X111819Y34291D01*
X112453Y35117D01*
X112851Y36078D01*
X112987Y37110D01*
X112851Y38142D01*
X112453Y39104D01*
X111819Y39929D01*
X110993Y40563D01*
X110032Y40961D01*
X109000Y41097D01*
X108002Y40966D01*
X102455Y46513D01*
X102851Y47468D01*
X102987Y48500D01*
X102851Y49532D01*
X102453Y50493D01*
X101819Y51319D01*
X100993Y51953D01*
X100032Y52351D01*
X99000Y52487D01*
D02*
G37*
G36*
X84417Y42859D02*
X81742D01*
Y39000D01*
X84417D01*
Y42859D01*
D02*
G37*
G36*
X80742D02*
X78068D01*
Y39000D01*
X80742D01*
Y42859D01*
D02*
G37*
G36*
X59621D02*
X56947D01*
Y39000D01*
X59621D01*
Y42859D01*
D02*
G37*
G36*
X84417Y38000D02*
X81742D01*
Y34141D01*
X84417D01*
Y38000D01*
D02*
G37*
G36*
X80742D02*
X78068D01*
Y34141D01*
X80742D01*
Y38000D01*
D02*
G37*
G36*
X59621D02*
X56947D01*
Y34141D01*
X59621D01*
Y38000D01*
D02*
G37*
G36*
X119000Y52487D02*
X117968Y52351D01*
X117007Y51953D01*
X116181Y51319D01*
X115547Y50493D01*
X115149Y49532D01*
X115013Y48500D01*
X115149Y47468D01*
X115547Y46507D01*
X116181Y45681D01*
X117007Y45047D01*
X117968Y44649D01*
X119000Y44513D01*
X119998Y44644D01*
X125545Y39097D01*
X125149Y38142D01*
X125013Y37110D01*
X125149Y36078D01*
X125547Y35117D01*
X126181Y34291D01*
X127007Y33658D01*
X127968Y33259D01*
X129000Y33123D01*
X130032Y33259D01*
X130993Y33658D01*
X131819Y34291D01*
X132453Y35117D01*
X132851Y36078D01*
X132987Y37110D01*
X132851Y38142D01*
X132453Y39104D01*
X131819Y39929D01*
X130993Y40563D01*
X130032Y40961D01*
X129000Y41097D01*
X128002Y40966D01*
X122455Y46513D01*
X122851Y47468D01*
X122987Y48500D01*
X122851Y49532D01*
X122453Y50493D01*
X121819Y51319D01*
X120993Y51953D01*
X120032Y52351D01*
X119000Y52487D01*
D02*
G37*
G36*
X109000D02*
X107968Y52351D01*
X107007Y51953D01*
X106181Y51319D01*
X105547Y50493D01*
X105149Y49532D01*
X105013Y48500D01*
X105149Y47468D01*
X105547Y46507D01*
X106181Y45681D01*
X107007Y45047D01*
X107968Y44649D01*
X109000Y44513D01*
X109998Y44644D01*
X115545Y39097D01*
X115149Y38142D01*
X115013Y37110D01*
X115149Y36078D01*
X115547Y35117D01*
X116181Y34291D01*
X117007Y33658D01*
X117968Y33259D01*
X119000Y33123D01*
X120032Y33259D01*
X120993Y33658D01*
X121819Y34291D01*
X122453Y35117D01*
X122851Y36078D01*
X122987Y37110D01*
X122851Y38142D01*
X122453Y39104D01*
X121819Y39929D01*
X120993Y40563D01*
X120032Y40961D01*
X119000Y41097D01*
X118002Y40966D01*
X112455Y46513D01*
X112851Y47468D01*
X112987Y48500D01*
X112851Y49532D01*
X112453Y50493D01*
X111819Y51319D01*
X110993Y51953D01*
X110032Y52351D01*
X109000Y52487D01*
D02*
G37*
G36*
X34500Y33421D02*
Y30000D01*
X37921D01*
X37851Y30532D01*
X37453Y31493D01*
X36819Y32319D01*
X35993Y32953D01*
X35032Y33351D01*
X34500Y33421D01*
D02*
G37*
G36*
X33500D02*
X32968Y33351D01*
X32007Y32953D01*
X31181Y32319D01*
X30547Y31493D01*
X30149Y30532D01*
X30079Y30000D01*
X33500D01*
Y33421D01*
D02*
G37*
G36*
X129500Y29031D02*
Y25610D01*
X132921D01*
X132851Y26142D01*
X132453Y27104D01*
X131819Y27929D01*
X130993Y28563D01*
X130032Y28961D01*
X129500Y29031D01*
D02*
G37*
G36*
X128500D02*
X127968Y28961D01*
X127007Y28563D01*
X126181Y27929D01*
X125547Y27104D01*
X125149Y26142D01*
X125079Y25610D01*
X128500D01*
Y29031D01*
D02*
G37*
G36*
X119500D02*
Y25610D01*
X122921D01*
X122851Y26142D01*
X122453Y27104D01*
X121819Y27929D01*
X120993Y28563D01*
X120032Y28961D01*
X119500Y29031D01*
D02*
G37*
G36*
X118500D02*
X117968Y28961D01*
X117007Y28563D01*
X116181Y27929D01*
X115547Y27104D01*
X115149Y26142D01*
X115079Y25610D01*
X118500D01*
Y29031D01*
D02*
G37*
G36*
X109500D02*
Y25610D01*
X112921D01*
X112851Y26142D01*
X112453Y27104D01*
X111819Y27929D01*
X110993Y28563D01*
X110032Y28961D01*
X109500Y29031D01*
D02*
G37*
G36*
X108500D02*
X107968Y28961D01*
X107007Y28563D01*
X106181Y27929D01*
X105547Y27104D01*
X105149Y26142D01*
X105079Y25610D01*
X108500D01*
Y29031D01*
D02*
G37*
G36*
X99500D02*
Y25610D01*
X102921D01*
X102851Y26142D01*
X102453Y27104D01*
X101819Y27929D01*
X100993Y28563D01*
X100032Y28961D01*
X99500Y29031D01*
D02*
G37*
G36*
X98500D02*
X97968Y28961D01*
X97007Y28563D01*
X96181Y27929D01*
X95547Y27104D01*
X95149Y26142D01*
X95079Y25610D01*
X98500D01*
Y29031D01*
D02*
G37*
G36*
X37921Y29000D02*
X34500D01*
Y25579D01*
X35032Y25649D01*
X35993Y26047D01*
X36819Y26681D01*
X37453Y27507D01*
X37851Y28468D01*
X37921Y29000D01*
D02*
G37*
G36*
X33500D02*
X30079D01*
X30149Y28468D01*
X30547Y27507D01*
X31181Y26681D01*
X32007Y26047D01*
X32968Y25649D01*
X33500Y25579D01*
Y29000D01*
D02*
G37*
G36*
X14000Y33487D02*
X12968Y33351D01*
X12007Y32953D01*
X11181Y32319D01*
X10547Y31493D01*
X10149Y30532D01*
X10013Y29500D01*
X10149Y28468D01*
X10547Y27507D01*
X11181Y26681D01*
X12007Y26047D01*
X12968Y25649D01*
X14000Y25513D01*
X15032Y25649D01*
X15993Y26047D01*
X16819Y26681D01*
X17453Y27507D01*
X17851Y28468D01*
X17987Y29500D01*
X17851Y30532D01*
X17453Y31493D01*
X16819Y32319D01*
X15993Y32953D01*
X15032Y33351D01*
X14000Y33487D01*
D02*
G37*
G36*
X83587Y19500D02*
X81118D01*
Y16047D01*
X83587D01*
Y19500D01*
D02*
G37*
G36*
X80118D02*
X77650D01*
Y16047D01*
X80118D01*
Y19500D01*
D02*
G37*
G36*
X17953Y23453D02*
X10047D01*
Y15547D01*
X17953D01*
Y23453D01*
D02*
G37*
%LPD*%
D13*
X120075Y142075D02*
X127717Y149716D01*
Y159000D01*
X130276Y154224D02*
X132700Y151800D01*
X130276Y159000D02*
X130388Y158888D01*
X130276Y154224D02*
Y159000D01*
X110835Y142075D02*
X120075D01*
X110835Y144634D02*
X120134D01*
X125000Y149500D02*
Y158843D01*
X120134Y144634D02*
X125000Y149500D01*
Y158843D02*
X125157Y159000D01*
X203239Y154019D02*
X205252Y156032D01*
Y159968D01*
X202468Y162752D02*
X205252Y159968D01*
X203094Y154019D02*
X203239D01*
X190500Y158000D02*
X195252Y162752D01*
X202468D01*
X160442Y111366D02*
X203094Y154019D01*
X51068Y44000D02*
X54500D01*
X49841Y38538D02*
X49879Y38500D01*
X49841Y42773D02*
X51068Y44000D01*
X49841Y38538D02*
Y42773D01*
X54500Y44000D02*
X59000Y48500D01*
X94890Y37110D02*
X99000D01*
X89000Y43000D02*
Y48500D01*
Y43000D02*
X94890Y37110D01*
X146102Y121602D02*
X153500Y129000D01*
X140165Y121602D02*
X146102D01*
X69000Y58500D02*
Y78500D01*
Y58500D02*
X79000Y48500D01*
X102000Y143000D02*
Y152758D01*
X94500Y154879D02*
X99879D01*
X102000Y152758D01*
Y143000D02*
X105484Y139516D01*
X110687Y139663D02*
X110835Y139516D01*
X105484D02*
X110835D01*
X157500Y121500D02*
X164000D01*
X200500Y158000D01*
X157398Y121602D02*
X157500Y121500D01*
X160442Y109942D02*
Y111366D01*
X140165D02*
X160442D01*
X129000Y78500D02*
X160442Y109942D01*
X95890Y85390D02*
Y91000D01*
X89000Y78500D02*
X95890Y85390D01*
X89000Y78500D02*
X90000D01*
X71000Y38500D02*
Y45461D01*
X69000Y47462D02*
Y48500D01*
Y47462D02*
X71000Y45461D01*
X61000Y20000D02*
X70382D01*
X107110Y91000D02*
X117095D01*
X99000Y47805D02*
X109000Y37805D01*
X94500Y117121D02*
Y126157D01*
Y117121D02*
X94500Y117121D01*
X94500Y126157D02*
X100181Y131839D01*
X110835D01*
X129000Y37110D02*
Y37805D01*
X119000Y47805D02*
Y48500D01*
Y47805D02*
X129000Y37805D01*
X109000Y47805D02*
X119000Y37805D01*
X109000Y47805D02*
Y48500D01*
X119000Y37110D02*
Y37805D01*
X99000Y47805D02*
Y48500D01*
X109000Y37110D02*
Y37805D01*
D17*
X120039Y159000D02*
D03*
X130276D02*
D03*
X127717D02*
D03*
X125157D02*
D03*
X122598D02*
D03*
D20*
X94500Y165121D02*
D03*
Y154879D02*
D03*
Y117121D02*
D03*
Y106879D02*
D03*
D22*
X140165Y121602D02*
D03*
Y111366D02*
D03*
Y113925D02*
D03*
Y116484D02*
D03*
Y119043D02*
D03*
Y124161D02*
D03*
Y126720D02*
D03*
Y129279D02*
D03*
Y131839D02*
D03*
Y134398D02*
D03*
Y136957D02*
D03*
Y139516D02*
D03*
Y142075D02*
D03*
Y144634D02*
D03*
X110835Y111366D02*
D03*
Y113925D02*
D03*
Y116484D02*
D03*
Y119043D02*
D03*
Y121602D02*
D03*
Y124161D02*
D03*
Y126720D02*
D03*
Y129279D02*
D03*
Y131839D02*
D03*
Y134398D02*
D03*
Y136957D02*
D03*
Y139516D02*
D03*
Y142075D02*
D03*
Y144634D02*
D03*
D24*
X71000Y38500D02*
D03*
X81242D02*
D03*
X49879D02*
D03*
X60121D02*
D03*
X87500Y91000D02*
D03*
X77258D02*
D03*
D25*
X70382Y20000D02*
D03*
X80618D02*
D03*
D34*
X140315Y171402D02*
G03*
X140315Y171402I-984J0D01*
G01*
Y167858D02*
G03*
X140315Y167858I-984J0D01*
G01*
X111969Y171402D02*
G03*
X111969Y171402I-984J0D01*
G01*
Y167858D02*
G03*
X111969Y167858I-984J0D01*
G01*
D35*
X9500Y97216D02*
D03*
Y86783D02*
D03*
D36*
X128905Y91000D02*
D03*
X117095D02*
D03*
D37*
X129095Y169630D02*
D03*
X121221D02*
D03*
D38*
X18890Y92000D02*
D03*
X30110D02*
D03*
X107110Y91000D02*
D03*
X95890D02*
D03*
X49779Y20000D02*
D03*
X61000D02*
D03*
D39*
X18890Y90917D02*
X23307Y86500D01*
X37500D01*
X44000Y93000D01*
X24000Y19500D02*
X29002Y14498D01*
X36072D01*
X42114Y20541D01*
Y41614D01*
X49000Y48500D01*
X24000Y29500D02*
Y43500D01*
X29000Y48500D01*
X61000Y28500D02*
X65500Y33000D01*
X50000Y25500D02*
X53000Y28500D01*
X61000D01*
X65500Y33000D02*
Y42000D01*
Y33000D02*
X72500Y26000D01*
X88110D01*
X94110Y20000D01*
X50000Y20221D02*
Y25500D01*
X49779Y20000D02*
X50000Y20221D01*
X59000Y48500D02*
X65500Y42000D01*
X87227Y86727D02*
Y90727D01*
X87500Y91000D01*
X79000Y78500D02*
X87227Y86727D01*
X128414Y20000D02*
X129000Y19414D01*
X118414Y20000D02*
X128414D01*
X129000Y15110D02*
Y19414D01*
X108414Y20000D02*
X118414D01*
X119000Y19414D01*
Y15110D02*
Y19414D01*
X99000Y20000D02*
X108414D01*
X109000Y15110D02*
Y19414D01*
X108414Y20000D02*
X109000Y19414D01*
X94110Y20000D02*
X99000D01*
Y15110D02*
Y20000D01*
X70601Y86399D02*
X78500Y78500D01*
X64000Y93000D02*
X70601Y86399D01*
X18890Y90917D02*
Y92000D01*
X78500Y78500D02*
X79000D01*
X44000Y93000D02*
Y100500D01*
X56500Y113000D01*
Y170000D01*
X14756Y86783D02*
X18890Y90917D01*
X9500Y86783D02*
X14756D01*
X10780Y97216D02*
X26500Y112937D01*
X9500Y97216D02*
X10780D01*
X26500Y112937D02*
Y170000D01*
D40*
X115315Y159000D02*
D03*
X135000D02*
D03*
D41*
X180500Y158000D02*
D03*
X200500D02*
D03*
X210500D02*
D03*
X190500D02*
D03*
X170500D02*
D03*
X160500D02*
D03*
X129000Y78500D02*
D03*
X119000D02*
D03*
X109000D02*
D03*
X99000D02*
D03*
X89000D02*
D03*
X79000D02*
D03*
X69000D02*
D03*
X59000D02*
D03*
X49000D02*
D03*
X39000D02*
D03*
X29000D02*
D03*
X19000D02*
D03*
X9000D02*
D03*
X139000Y48500D02*
D03*
X129000D02*
D03*
X119000D02*
D03*
X109000D02*
D03*
X99000D02*
D03*
X89000D02*
D03*
X79000D02*
D03*
X69000D02*
D03*
X59000D02*
D03*
X49000D02*
D03*
X39000D02*
D03*
X29000D02*
D03*
X19000D02*
D03*
X9000D02*
D03*
X94500Y145843D02*
D03*
X94500Y126157D02*
D03*
X34000Y29500D02*
D03*
Y19500D02*
D03*
X24000Y29500D02*
D03*
Y19500D02*
D03*
X14000Y29500D02*
D03*
X99000Y25110D02*
D03*
X109000Y15110D02*
D03*
Y25110D02*
D03*
X119000Y15110D02*
D03*
Y25110D02*
D03*
X129000Y15110D02*
D03*
Y25110D02*
D03*
X109000Y37110D02*
D03*
X119000D02*
D03*
X129000D02*
D03*
X46500Y170000D02*
D03*
X36500D02*
D03*
X26500D02*
D03*
D42*
X44000Y93000D02*
D03*
D43*
X54602Y67500D02*
D03*
X42398D02*
D03*
D44*
X139000Y78500D02*
D03*
D45*
X64000Y93000D02*
D03*
D46*
X14000Y19500D02*
D03*
X99000Y15110D02*
D03*
Y37110D02*
D03*
X56500Y170000D02*
D03*
D47*
X132700Y151800D02*
D03*
X153500Y129000D02*
D03*
X157500Y121500D02*
D03*
M02*
