G04*
G04 #@! TF.GenerationSoftware,Altium Limited,Altium Designer,22.1.2 (22)*
G04*
G04 Layer_Color=32896*
%FSLAX25Y25*%
%MOIN*%
G70*
G04*
G04 #@! TF.SameCoordinates,7393A906-C076-4882-B3B6-B19C62209B97*
G04*
G04*
G04 #@! TF.FilePolarity,Positive*
G04*
G01*
G75*
%ADD10C,0.00787*%
G36*
X193169Y25139D02*
X193380Y25116D01*
X193569Y25072D01*
X193735Y25027D01*
X193869Y24983D01*
X193968Y24938D01*
X194035Y24916D01*
X194046Y24905D01*
X194057D01*
X194235Y24816D01*
X194391Y24705D01*
X194535Y24605D01*
X194657Y24505D01*
X194757Y24416D01*
X194835Y24350D01*
X194879Y24305D01*
X194902Y24283D01*
X194424Y23716D01*
X194313Y23816D01*
X194213Y23916D01*
X194102Y23994D01*
X194013Y24061D01*
X193924Y24116D01*
X193857Y24161D01*
X193813Y24183D01*
X193802Y24194D01*
X193668Y24261D01*
X193535Y24305D01*
X193413Y24339D01*
X193291Y24361D01*
X193191Y24372D01*
X193113Y24383D01*
X192935D01*
X192835Y24372D01*
X192757Y24350D01*
X192680Y24339D01*
X192613Y24316D01*
X192569Y24294D01*
X192546Y24283D01*
X192535D01*
X192391Y24194D01*
X192269Y24116D01*
X192235Y24072D01*
X192202Y24050D01*
X192191Y24027D01*
X192180Y24016D01*
X192091Y23883D01*
X192024Y23761D01*
X192002Y23705D01*
X191991Y23661D01*
X191980Y23639D01*
Y23628D01*
X191935Y23472D01*
X191924Y23316D01*
X191913Y23261D01*
Y23216D01*
Y23183D01*
Y23172D01*
X191924Y22994D01*
X191935Y22905D01*
Y22839D01*
X191946Y22783D01*
X191958Y22739D01*
X191969Y22705D01*
Y22694D01*
X192013Y22528D01*
X192080Y22383D01*
X192113Y22317D01*
X192146Y22272D01*
X192157Y22239D01*
X192169Y22228D01*
X192291Y22039D01*
X192358Y21950D01*
X192424Y21861D01*
X192480Y21794D01*
X192524Y21739D01*
X192558Y21694D01*
X192569Y21683D01*
X192669Y21572D01*
X192780Y21450D01*
X192891Y21328D01*
X193002Y21217D01*
X193102Y21117D01*
X193180Y21039D01*
X193224Y20994D01*
X193246Y20972D01*
X194924Y19295D01*
Y18517D01*
X190613D01*
Y19350D01*
X193791D01*
X192613Y20506D01*
X192457Y20650D01*
X192324Y20795D01*
X192202Y20917D01*
X192091Y21028D01*
X192013Y21117D01*
X191946Y21183D01*
X191902Y21228D01*
X191891Y21239D01*
X191780Y21361D01*
X191680Y21483D01*
X191591Y21594D01*
X191513Y21694D01*
X191458Y21783D01*
X191413Y21839D01*
X191391Y21883D01*
X191380Y21894D01*
X191246Y22128D01*
X191191Y22239D01*
X191147Y22339D01*
X191113Y22416D01*
X191091Y22483D01*
X191069Y22528D01*
Y22539D01*
X191013Y22783D01*
X190991Y22905D01*
X190980Y23005D01*
X190969Y23105D01*
Y23172D01*
Y23228D01*
Y23239D01*
X190980Y23405D01*
X190991Y23550D01*
X191013Y23683D01*
X191035Y23805D01*
X191069Y23905D01*
X191091Y23972D01*
X191102Y24027D01*
X191113Y24039D01*
X191169Y24172D01*
X191235Y24283D01*
X191302Y24383D01*
X191369Y24472D01*
X191435Y24539D01*
X191480Y24594D01*
X191513Y24627D01*
X191524Y24638D01*
X191724Y24805D01*
X191824Y24861D01*
X191924Y24916D01*
X192013Y24961D01*
X192080Y24994D01*
X192124Y25005D01*
X192135Y25016D01*
X192269Y25061D01*
X192413Y25094D01*
X192546Y25116D01*
X192669Y25139D01*
X192780D01*
X192858Y25150D01*
X192935D01*
X193169Y25139D01*
D02*
G37*
G36*
X187536D02*
X187747Y25116D01*
X187936Y25072D01*
X188102Y25027D01*
X188236Y24983D01*
X188336Y24938D01*
X188402Y24916D01*
X188414Y24905D01*
X188425D01*
X188602Y24816D01*
X188758Y24705D01*
X188902Y24605D01*
X189024Y24505D01*
X189125Y24416D01*
X189202Y24350D01*
X189247Y24305D01*
X189269Y24283D01*
X188791Y23716D01*
X188680Y23816D01*
X188580Y23916D01*
X188469Y23994D01*
X188380Y24061D01*
X188291Y24116D01*
X188225Y24161D01*
X188180Y24183D01*
X188169Y24194D01*
X188036Y24261D01*
X187902Y24305D01*
X187780Y24339D01*
X187658Y24361D01*
X187558Y24372D01*
X187480Y24383D01*
X187302D01*
X187203Y24372D01*
X187125Y24350D01*
X187047Y24339D01*
X186980Y24316D01*
X186936Y24294D01*
X186914Y24283D01*
X186902D01*
X186758Y24194D01*
X186636Y24116D01*
X186602Y24072D01*
X186569Y24050D01*
X186558Y24027D01*
X186547Y24016D01*
X186458Y23883D01*
X186391Y23761D01*
X186369Y23705D01*
X186358Y23661D01*
X186347Y23639D01*
Y23628D01*
X186303Y23472D01*
X186292Y23316D01*
X186280Y23261D01*
Y23216D01*
Y23183D01*
Y23172D01*
X186292Y22994D01*
X186303Y22905D01*
Y22839D01*
X186314Y22783D01*
X186325Y22739D01*
X186336Y22705D01*
Y22694D01*
X186380Y22528D01*
X186447Y22383D01*
X186480Y22317D01*
X186514Y22272D01*
X186525Y22239D01*
X186536Y22228D01*
X186658Y22039D01*
X186725Y21950D01*
X186791Y21861D01*
X186847Y21794D01*
X186891Y21739D01*
X186925Y21694D01*
X186936Y21683D01*
X187036Y21572D01*
X187147Y21450D01*
X187258Y21328D01*
X187369Y21217D01*
X187469Y21117D01*
X187547Y21039D01*
X187591Y20994D01*
X187614Y20972D01*
X189291Y19295D01*
Y18517D01*
X184980D01*
Y19350D01*
X188158D01*
X186980Y20506D01*
X186825Y20650D01*
X186691Y20795D01*
X186569Y20917D01*
X186458Y21028D01*
X186380Y21117D01*
X186314Y21183D01*
X186269Y21228D01*
X186258Y21239D01*
X186147Y21361D01*
X186047Y21483D01*
X185958Y21594D01*
X185880Y21694D01*
X185825Y21783D01*
X185780Y21839D01*
X185758Y21883D01*
X185747Y21894D01*
X185614Y22128D01*
X185558Y22239D01*
X185514Y22339D01*
X185480Y22416D01*
X185458Y22483D01*
X185436Y22528D01*
Y22539D01*
X185380Y22783D01*
X185358Y22905D01*
X185347Y23005D01*
X185336Y23105D01*
Y23172D01*
Y23228D01*
Y23239D01*
X185347Y23405D01*
X185358Y23550D01*
X185380Y23683D01*
X185403Y23805D01*
X185436Y23905D01*
X185458Y23972D01*
X185469Y24027D01*
X185480Y24039D01*
X185536Y24172D01*
X185603Y24283D01*
X185669Y24383D01*
X185736Y24472D01*
X185803Y24539D01*
X185847Y24594D01*
X185880Y24627D01*
X185891Y24638D01*
X186091Y24805D01*
X186191Y24861D01*
X186292Y24916D01*
X186380Y24961D01*
X186447Y24994D01*
X186491Y25005D01*
X186503Y25016D01*
X186636Y25061D01*
X186780Y25094D01*
X186914Y25116D01*
X187036Y25139D01*
X187147D01*
X187225Y25150D01*
X187302D01*
X187536Y25139D01*
D02*
G37*
G36*
X142474D02*
X142685Y25116D01*
X142874Y25072D01*
X143040Y25027D01*
X143174Y24983D01*
X143273Y24938D01*
X143340Y24916D01*
X143351Y24905D01*
X143362D01*
X143540Y24816D01*
X143696Y24705D01*
X143840Y24605D01*
X143962Y24505D01*
X144062Y24416D01*
X144140Y24350D01*
X144185Y24305D01*
X144207Y24283D01*
X143729Y23716D01*
X143618Y23816D01*
X143518Y23916D01*
X143407Y23994D01*
X143318Y24061D01*
X143229Y24116D01*
X143162Y24161D01*
X143118Y24183D01*
X143107Y24194D01*
X142974Y24261D01*
X142840Y24305D01*
X142718Y24339D01*
X142596Y24361D01*
X142496Y24372D01*
X142418Y24383D01*
X142240D01*
X142140Y24372D01*
X142063Y24350D01*
X141985Y24339D01*
X141918Y24316D01*
X141874Y24294D01*
X141851Y24283D01*
X141840D01*
X141696Y24194D01*
X141574Y24116D01*
X141540Y24072D01*
X141507Y24050D01*
X141496Y24027D01*
X141485Y24016D01*
X141396Y23883D01*
X141329Y23761D01*
X141307Y23705D01*
X141296Y23661D01*
X141285Y23639D01*
Y23628D01*
X141240Y23472D01*
X141229Y23316D01*
X141218Y23261D01*
Y23216D01*
Y23183D01*
Y23172D01*
X141229Y22994D01*
X141240Y22905D01*
Y22839D01*
X141252Y22783D01*
X141263Y22739D01*
X141274Y22705D01*
Y22694D01*
X141318Y22528D01*
X141385Y22383D01*
X141418Y22317D01*
X141452Y22272D01*
X141463Y22239D01*
X141474Y22228D01*
X141596Y22039D01*
X141663Y21950D01*
X141729Y21861D01*
X141785Y21794D01*
X141829Y21739D01*
X141863Y21694D01*
X141874Y21683D01*
X141974Y21572D01*
X142085Y21450D01*
X142196Y21328D01*
X142307Y21217D01*
X142407Y21117D01*
X142485Y21039D01*
X142529Y20994D01*
X142551Y20972D01*
X144229Y19295D01*
Y18517D01*
X139918D01*
Y19350D01*
X143096D01*
X141918Y20506D01*
X141763Y20650D01*
X141629Y20795D01*
X141507Y20917D01*
X141396Y21028D01*
X141318Y21117D01*
X141252Y21183D01*
X141207Y21228D01*
X141196Y21239D01*
X141085Y21361D01*
X140985Y21483D01*
X140896Y21594D01*
X140818Y21694D01*
X140763Y21783D01*
X140718Y21839D01*
X140696Y21883D01*
X140685Y21894D01*
X140552Y22128D01*
X140496Y22239D01*
X140452Y22339D01*
X140418Y22416D01*
X140396Y22483D01*
X140374Y22528D01*
Y22539D01*
X140318Y22783D01*
X140296Y22905D01*
X140285Y23005D01*
X140274Y23105D01*
Y23172D01*
Y23228D01*
Y23239D01*
X140285Y23405D01*
X140296Y23550D01*
X140318Y23683D01*
X140340Y23805D01*
X140374Y23905D01*
X140396Y23972D01*
X140407Y24027D01*
X140418Y24039D01*
X140474Y24172D01*
X140541Y24283D01*
X140607Y24383D01*
X140674Y24472D01*
X140741Y24539D01*
X140785Y24594D01*
X140818Y24627D01*
X140829Y24638D01*
X141029Y24805D01*
X141129Y24861D01*
X141229Y24916D01*
X141318Y24961D01*
X141385Y24994D01*
X141429Y25005D01*
X141440Y25016D01*
X141574Y25061D01*
X141718Y25094D01*
X141851Y25116D01*
X141974Y25139D01*
X142085D01*
X142163Y25150D01*
X142240D01*
X142474Y25139D01*
D02*
G37*
G36*
X149906Y23994D02*
X149595Y23250D01*
X148029Y24094D01*
Y19328D01*
X149706D01*
Y18517D01*
X145607D01*
Y19328D01*
X147062D01*
Y25083D01*
X147840D01*
X149906Y23994D01*
D02*
G37*
G36*
X159672Y23616D02*
X159772Y23594D01*
X159850Y23572D01*
X159861Y23561D01*
X159872D01*
X159972Y23505D01*
X160061Y23450D01*
X160127Y23405D01*
X160138Y23394D01*
X160150Y23383D01*
X160250Y23283D01*
X160327Y23172D01*
X160361Y23128D01*
X160383Y23094D01*
X160394Y23072D01*
X160405Y23061D01*
X160494Y22905D01*
X160583Y22750D01*
X160616Y22683D01*
X160638Y22628D01*
X160650Y22594D01*
X160661Y22583D01*
X160705Y23539D01*
X161416D01*
Y18517D01*
X160550D01*
Y21739D01*
X160494Y21861D01*
X160439Y21983D01*
X160394Y22083D01*
X160361Y22161D01*
X160327Y22228D01*
X160305Y22272D01*
X160283Y22305D01*
Y22317D01*
X160205Y22461D01*
X160138Y22572D01*
X160094Y22639D01*
X160083Y22661D01*
X160016Y22750D01*
X159961Y22805D01*
X159927Y22839D01*
X159916Y22850D01*
X159861Y22883D01*
X159805Y22894D01*
X159761Y22905D01*
X159750D01*
X159694Y22894D01*
X159650Y22883D01*
X159627Y22872D01*
X159616Y22861D01*
X159583Y22828D01*
X159550Y22783D01*
X159539Y22739D01*
X159528Y22728D01*
X159494Y22650D01*
X159483Y22561D01*
X159472Y22494D01*
Y22472D01*
Y22461D01*
X159461Y22328D01*
X159450Y22183D01*
Y22117D01*
Y22072D01*
Y22039D01*
Y22028D01*
Y18517D01*
X158583D01*
Y21739D01*
X158528Y21850D01*
X158483Y21961D01*
X158439Y22050D01*
X158405Y22128D01*
X158372Y22194D01*
X158350Y22239D01*
X158328Y22272D01*
Y22283D01*
X158250Y22428D01*
X158183Y22550D01*
X158161Y22583D01*
X158139Y22616D01*
X158128Y22628D01*
Y22639D01*
X158061Y22728D01*
X158005Y22794D01*
X157972Y22828D01*
X157961Y22839D01*
X157894Y22883D01*
X157839Y22894D01*
X157794Y22905D01*
X157783D01*
X157728Y22894D01*
X157683Y22883D01*
X157661Y22872D01*
X157650Y22861D01*
X157617Y22828D01*
X157583Y22783D01*
X157572Y22750D01*
X157561Y22739D01*
X157528Y22661D01*
X157517Y22583D01*
X157505Y22516D01*
Y22505D01*
Y22494D01*
X157494Y22372D01*
X157483Y22250D01*
Y22194D01*
Y22161D01*
Y22128D01*
Y22117D01*
Y18517D01*
X156617D01*
Y22172D01*
X156628Y22428D01*
X156661Y22650D01*
X156705Y22850D01*
X156761Y23017D01*
X156839Y23150D01*
X156917Y23272D01*
X157006Y23372D01*
X157094Y23450D01*
X157183Y23505D01*
X157272Y23550D01*
X157350Y23583D01*
X157428Y23605D01*
X157483Y23616D01*
X157528Y23628D01*
X157572D01*
X157717Y23616D01*
X157839Y23594D01*
X157883Y23572D01*
X157916Y23561D01*
X157939Y23550D01*
X157950D01*
X158061Y23483D01*
X158150Y23416D01*
X158217Y23361D01*
X158228Y23350D01*
X158239Y23339D01*
X158328Y23228D01*
X158405Y23117D01*
X158439Y23072D01*
X158461Y23028D01*
X158483Y23005D01*
Y22994D01*
X158561Y22839D01*
X158639Y22694D01*
X158672Y22628D01*
X158694Y22583D01*
X158705Y22550D01*
X158716Y22539D01*
X158728Y22739D01*
X158750Y22905D01*
X158783Y23039D01*
X158816Y23161D01*
X158861Y23250D01*
X158894Y23316D01*
X158916Y23350D01*
X158928Y23361D01*
X159016Y23450D01*
X159116Y23516D01*
X159216Y23561D01*
X159316Y23594D01*
X159405Y23616D01*
X159483Y23628D01*
X159550D01*
X159672Y23616D01*
D02*
G37*
G36*
X164916D02*
X164994D01*
X165060Y23605D01*
X165105D01*
X165138Y23594D01*
X165149D01*
X165327Y23572D01*
X165405Y23561D01*
X165471Y23550D01*
X165527Y23539D01*
X165571Y23528D01*
X165605Y23516D01*
X165616D01*
X165771Y23483D01*
X165916Y23450D01*
X165971Y23439D01*
X166016Y23427D01*
X166038Y23416D01*
X166049D01*
X166193Y23372D01*
X166305Y23339D01*
X166349Y23327D01*
X166371Y23316D01*
X166393Y23305D01*
X166405D01*
Y22516D01*
X166249Y22572D01*
X166094Y22628D01*
X165949Y22672D01*
X165816Y22716D01*
X165716Y22739D01*
X165627Y22761D01*
X165582Y22783D01*
X165560D01*
X165249Y22839D01*
X165116Y22861D01*
X164982Y22872D01*
X164871Y22883D01*
X164716D01*
X164516Y22872D01*
X164338Y22839D01*
X164183Y22794D01*
X164060Y22750D01*
X163971Y22705D01*
X163905Y22661D01*
X163860Y22628D01*
X163849Y22616D01*
X163749Y22505D01*
X163683Y22394D01*
X163627Y22272D01*
X163594Y22161D01*
X163572Y22061D01*
X163560Y21983D01*
Y21928D01*
Y21905D01*
Y21472D01*
X164805D01*
X164994Y21450D01*
X165171Y21428D01*
X165327Y21406D01*
X165482Y21372D01*
X165616Y21339D01*
X165738Y21294D01*
X165849Y21261D01*
X165949Y21217D01*
X166038Y21172D01*
X166105Y21139D01*
X166160Y21105D01*
X166216Y21083D01*
X166249Y21061D01*
X166260Y21039D01*
X166271D01*
X166371Y20950D01*
X166449Y20861D01*
X166527Y20772D01*
X166593Y20672D01*
X166693Y20472D01*
X166760Y20283D01*
X166793Y20117D01*
X166805Y20039D01*
X166816Y19972D01*
X166827Y19928D01*
Y19883D01*
Y19861D01*
Y19850D01*
X166816Y19639D01*
X166793Y19539D01*
X166782Y19450D01*
X166760Y19384D01*
X166749Y19328D01*
X166738Y19295D01*
Y19284D01*
X166660Y19106D01*
X166604Y19028D01*
X166560Y18961D01*
X166516Y18906D01*
X166482Y18861D01*
X166460Y18839D01*
X166449Y18828D01*
X166282Y18706D01*
X166127Y18606D01*
X166049Y18573D01*
X165993Y18550D01*
X165960Y18528D01*
X165949D01*
X165705Y18473D01*
X165582Y18450D01*
X165460Y18439D01*
X165360D01*
X165282Y18428D01*
X165216D01*
X165038Y18439D01*
X164883Y18461D01*
X164727Y18484D01*
X164594Y18517D01*
X164482Y18550D01*
X164405Y18584D01*
X164349Y18595D01*
X164327Y18606D01*
X164172Y18684D01*
X164016Y18772D01*
X163883Y18872D01*
X163749Y18961D01*
X163649Y19050D01*
X163560Y19117D01*
X163516Y19161D01*
X163494Y19184D01*
X163471Y18517D01*
X162683D01*
Y21972D01*
X162694Y22128D01*
X162705Y22261D01*
X162727Y22394D01*
X162749Y22494D01*
X162783Y22583D01*
X162805Y22650D01*
X162816Y22694D01*
X162827Y22705D01*
X162883Y22817D01*
X162938Y22917D01*
X163005Y23005D01*
X163072Y23083D01*
X163127Y23139D01*
X163172Y23183D01*
X163205Y23205D01*
X163216Y23216D01*
X163316Y23294D01*
X163416Y23350D01*
X163516Y23405D01*
X163616Y23450D01*
X163694Y23483D01*
X163760Y23505D01*
X163816Y23528D01*
X163827D01*
X164105Y23583D01*
X164249Y23605D01*
X164371Y23616D01*
X164482Y23628D01*
X164838D01*
X164916Y23616D01*
D02*
G37*
G36*
X170460D02*
X170638Y23594D01*
X170804Y23561D01*
X170949Y23528D01*
X171060Y23483D01*
X171149Y23450D01*
X171204Y23427D01*
X171226Y23416D01*
X171382Y23327D01*
X171515Y23239D01*
X171637Y23139D01*
X171748Y23050D01*
X171826Y22961D01*
X171893Y22894D01*
X171937Y22850D01*
X171949Y22839D01*
X172048Y22705D01*
X172137Y22561D01*
X172215Y22416D01*
X172282Y22294D01*
X172326Y22172D01*
X172360Y22083D01*
X172382Y22028D01*
X172393Y22017D01*
Y22005D01*
X172437Y21828D01*
X172471Y21650D01*
X172504Y21483D01*
X172515Y21339D01*
X172526Y21205D01*
X172537Y21105D01*
Y21039D01*
Y21028D01*
Y21017D01*
X172526Y20795D01*
X172515Y20583D01*
X172493Y20406D01*
X172471Y20239D01*
X172448Y20106D01*
X172426Y20006D01*
X172404Y19939D01*
Y19928D01*
Y19917D01*
X172348Y19750D01*
X172271Y19583D01*
X172204Y19450D01*
X172126Y19328D01*
X172060Y19239D01*
X172004Y19161D01*
X171971Y19117D01*
X171960Y19106D01*
X171837Y18983D01*
X171715Y18883D01*
X171582Y18795D01*
X171460Y18728D01*
X171360Y18673D01*
X171271Y18628D01*
X171215Y18606D01*
X171193Y18595D01*
X171015Y18539D01*
X170826Y18495D01*
X170638Y18473D01*
X170460Y18450D01*
X170315Y18439D01*
X170193Y18428D01*
X169904D01*
X169738Y18439D01*
X169582Y18450D01*
X169438Y18461D01*
X169326Y18473D01*
X169238Y18484D01*
X169182Y18495D01*
X169160D01*
X168993Y18517D01*
X168838Y18539D01*
X168704Y18573D01*
X168582Y18595D01*
X168482Y18617D01*
X168415Y18639D01*
X168360Y18650D01*
X168349D01*
Y19361D01*
X168471Y19328D01*
X168593Y19306D01*
X168638Y19295D01*
X168671Y19284D01*
X168693Y19272D01*
X168704D01*
X168849Y19250D01*
X168971Y19228D01*
X169027Y19217D01*
X169071D01*
X169093Y19206D01*
X169104D01*
X169249Y19195D01*
X169393Y19172D01*
X169449D01*
X169493Y19161D01*
X169527D01*
X169682Y19150D01*
X169960D01*
X170249Y19172D01*
X170493Y19217D01*
X170704Y19284D01*
X170882Y19361D01*
X171026Y19428D01*
X171126Y19495D01*
X171182Y19539D01*
X171204Y19561D01*
X171349Y19728D01*
X171449Y19917D01*
X171526Y20117D01*
X171571Y20306D01*
X171604Y20483D01*
X171615Y20561D01*
Y20628D01*
X171626Y20672D01*
Y20717D01*
Y20739D01*
Y20750D01*
X168104D01*
X168093Y20828D01*
Y20895D01*
Y20950D01*
Y20972D01*
X168082Y21083D01*
Y21183D01*
Y21228D01*
Y21261D01*
Y21283D01*
Y21294D01*
X168093Y21494D01*
X168104Y21672D01*
X168127Y21828D01*
X168149Y21972D01*
X168182Y22083D01*
X168204Y22172D01*
X168216Y22228D01*
X168227Y22250D01*
X168282Y22405D01*
X168349Y22550D01*
X168427Y22672D01*
X168493Y22783D01*
X168549Y22861D01*
X168604Y22928D01*
X168638Y22972D01*
X168649Y22983D01*
X168760Y23094D01*
X168871Y23194D01*
X168993Y23272D01*
X169093Y23339D01*
X169193Y23394D01*
X169271Y23427D01*
X169315Y23450D01*
X169338Y23461D01*
X169493Y23516D01*
X169649Y23561D01*
X169804Y23583D01*
X169949Y23605D01*
X170071Y23616D01*
X170171Y23628D01*
X170260D01*
X170460Y23616D01*
D02*
G37*
G36*
X206378Y18517D02*
X204756D01*
X204545Y18539D01*
X204356Y18550D01*
X204190Y18573D01*
X204056Y18595D01*
X203956Y18606D01*
X203890Y18628D01*
X203868D01*
X203690Y18673D01*
X203523Y18728D01*
X203379Y18784D01*
X203256Y18839D01*
X203156Y18883D01*
X203079Y18928D01*
X203023Y18950D01*
X203012Y18961D01*
X202879Y19039D01*
X202757Y19128D01*
X202645Y19217D01*
X202556Y19295D01*
X202479Y19361D01*
X202423Y19428D01*
X202390Y19461D01*
X202379Y19472D01*
X202201Y19706D01*
X202134Y19828D01*
X202079Y19928D01*
X202034Y20017D01*
X202001Y20083D01*
X201979Y20139D01*
X201968Y20150D01*
X201868Y20428D01*
X201823Y20561D01*
X201790Y20683D01*
X201768Y20795D01*
X201746Y20872D01*
X201734Y20928D01*
Y20950D01*
X201690Y21272D01*
X201679Y21428D01*
X201668Y21561D01*
X201657Y21683D01*
Y21772D01*
Y21828D01*
Y21850D01*
X201668Y22150D01*
X201690Y22416D01*
X201723Y22672D01*
X201779Y22917D01*
X201834Y23128D01*
X201890Y23327D01*
X201968Y23505D01*
X202034Y23661D01*
X202101Y23805D01*
X202168Y23927D01*
X202234Y24027D01*
X202290Y24116D01*
X202345Y24183D01*
X202379Y24227D01*
X202401Y24250D01*
X202412Y24261D01*
X202556Y24405D01*
X202723Y24516D01*
X202901Y24627D01*
X203090Y24716D01*
X203279Y24794D01*
X203467Y24861D01*
X203656Y24905D01*
X203834Y24950D01*
X204012Y24983D01*
X204179Y25005D01*
X204323Y25027D01*
X204445Y25038D01*
X204556Y25050D01*
X206378D01*
Y18517D01*
D02*
G37*
G36*
X200501D02*
X199612D01*
Y20861D01*
X198812D01*
X198568Y20872D01*
X198335Y20895D01*
X198135Y20917D01*
X197968Y20961D01*
X197824Y20994D01*
X197724Y21017D01*
X197657Y21039D01*
X197635Y21050D01*
X197457Y21128D01*
X197301Y21205D01*
X197168Y21294D01*
X197046Y21372D01*
X196957Y21439D01*
X196890Y21494D01*
X196846Y21539D01*
X196835Y21550D01*
X196724Y21672D01*
X196624Y21794D01*
X196546Y21905D01*
X196479Y22017D01*
X196435Y22105D01*
X196390Y22183D01*
X196379Y22228D01*
X196368Y22250D01*
X196313Y22394D01*
X196279Y22539D01*
X196246Y22683D01*
X196235Y22805D01*
X196224Y22905D01*
X196213Y22983D01*
Y23028D01*
Y23050D01*
X196224Y23250D01*
X196246Y23427D01*
X196279Y23583D01*
X196313Y23716D01*
X196346Y23828D01*
X196379Y23905D01*
X196402Y23950D01*
X196413Y23972D01*
X196490Y24105D01*
X196579Y24227D01*
X196668Y24327D01*
X196757Y24416D01*
X196835Y24494D01*
X196902Y24539D01*
X196946Y24572D01*
X196957Y24583D01*
X197090Y24672D01*
X197224Y24738D01*
X197346Y24805D01*
X197468Y24850D01*
X197579Y24894D01*
X197657Y24916D01*
X197713Y24938D01*
X197735D01*
X198068Y25005D01*
X198224Y25027D01*
X198368Y25038D01*
X198490Y25050D01*
X200501D01*
Y18517D01*
D02*
G37*
G36*
X178326Y24294D02*
X176392D01*
Y18517D01*
X175493D01*
Y24294D01*
X173559D01*
Y25050D01*
X178326D01*
Y24294D01*
D02*
G37*
G36*
X209722Y25139D02*
X209933Y25127D01*
X210122Y25105D01*
X210289Y25072D01*
X210422Y25038D01*
X210511Y25016D01*
X210578Y25005D01*
X210600Y24994D01*
X210767Y24927D01*
X210911Y24861D01*
X211045Y24794D01*
X211144Y24727D01*
X211233Y24672D01*
X211300Y24627D01*
X211345Y24594D01*
X211356Y24583D01*
X211456Y24483D01*
X211544Y24383D01*
X211622Y24283D01*
X211678Y24194D01*
X211722Y24116D01*
X211767Y24061D01*
X211778Y24016D01*
X211789Y24005D01*
X211833Y23883D01*
X211867Y23761D01*
X211889Y23650D01*
X211900Y23550D01*
X211911Y23461D01*
X211922Y23394D01*
Y23350D01*
Y23339D01*
X211911Y23205D01*
X211900Y23072D01*
X211878Y22961D01*
X211844Y22861D01*
X211822Y22783D01*
X211800Y22728D01*
X211789Y22683D01*
X211778Y22672D01*
X211656Y22483D01*
X211589Y22394D01*
X211533Y22328D01*
X211478Y22261D01*
X211433Y22217D01*
X211411Y22194D01*
X211400Y22183D01*
X211211Y22039D01*
X211111Y21983D01*
X211033Y21928D01*
X210956Y21883D01*
X210900Y21861D01*
X210856Y21839D01*
X210845Y21828D01*
X210611Y21717D01*
X210511Y21672D01*
X210411Y21628D01*
X210333Y21594D01*
X210278Y21561D01*
X210233Y21550D01*
X210222Y21539D01*
X209989Y21450D01*
X209878Y21406D01*
X209789Y21372D01*
X209700Y21339D01*
X209645Y21317D01*
X209600Y21305D01*
X209589Y21294D01*
X209367Y21194D01*
X209278Y21150D01*
X209200Y21105D01*
X209134Y21072D01*
X209089Y21039D01*
X209056Y21028D01*
X209045Y21017D01*
X208878Y20906D01*
X208811Y20850D01*
X208756Y20795D01*
X208711Y20750D01*
X208678Y20717D01*
X208667Y20695D01*
X208656Y20683D01*
X208600Y20606D01*
X208567Y20539D01*
X208523Y20394D01*
X208511Y20328D01*
X208500Y20283D01*
Y20250D01*
Y20239D01*
X208511Y20072D01*
X208523Y19995D01*
X208545Y19928D01*
X208556Y19872D01*
X208578Y19828D01*
X208589Y19806D01*
Y19795D01*
X208667Y19661D01*
X208767Y19561D01*
X208811Y19528D01*
X208845Y19495D01*
X208867Y19484D01*
X208878Y19472D01*
X209034Y19395D01*
X209189Y19328D01*
X209267Y19317D01*
X209311Y19295D01*
X209356Y19284D01*
X209367D01*
X209489Y19261D01*
X209611Y19250D01*
X209734Y19228D01*
X209845D01*
X209945Y19217D01*
X210322D01*
X210522Y19228D01*
X210700Y19239D01*
X210856Y19261D01*
X210989Y19272D01*
X211089Y19284D01*
X211144Y19295D01*
X211167D01*
X211333Y19328D01*
X211489Y19361D01*
X211633Y19395D01*
X211756Y19439D01*
X211856Y19472D01*
X211933Y19495D01*
X211978Y19506D01*
X212000Y19517D01*
Y18661D01*
X211867Y18628D01*
X211744Y18595D01*
X211700Y18584D01*
X211656Y18573D01*
X211633Y18561D01*
X211622D01*
X211467Y18539D01*
X211322Y18517D01*
X211267D01*
X211222Y18506D01*
X211178D01*
X211000Y18484D01*
X210845Y18461D01*
X210778D01*
X210734Y18450D01*
X210689D01*
X210489Y18439D01*
X210411D01*
X210322Y18428D01*
X209956D01*
X209756Y18450D01*
X209578Y18461D01*
X209422Y18484D01*
X209289Y18506D01*
X209189Y18517D01*
X209134Y18539D01*
X209111D01*
X208934Y18584D01*
X208778Y18639D01*
X208645Y18695D01*
X208523Y18750D01*
X208434Y18806D01*
X208356Y18850D01*
X208312Y18872D01*
X208300Y18883D01*
X208178Y18972D01*
X208067Y19072D01*
X207978Y19172D01*
X207900Y19261D01*
X207845Y19339D01*
X207800Y19406D01*
X207778Y19450D01*
X207767Y19461D01*
X207700Y19595D01*
X207656Y19739D01*
X207611Y19883D01*
X207589Y20006D01*
X207578Y20117D01*
X207567Y20206D01*
Y20261D01*
Y20283D01*
X207578Y20428D01*
X207589Y20550D01*
X207611Y20672D01*
X207645Y20772D01*
X207678Y20850D01*
X207700Y20906D01*
X207712Y20950D01*
X207723Y20961D01*
X207845Y21161D01*
X207911Y21250D01*
X207967Y21317D01*
X208023Y21383D01*
X208067Y21428D01*
X208100Y21450D01*
X208112Y21461D01*
X208289Y21606D01*
X208467Y21728D01*
X208545Y21772D01*
X208600Y21805D01*
X208645Y21817D01*
X208656Y21828D01*
X208889Y21939D01*
X208989Y21983D01*
X209089Y22028D01*
X209167Y22061D01*
X209234Y22083D01*
X209278Y22105D01*
X209289D01*
X209523Y22205D01*
X209623Y22250D01*
X209711Y22283D01*
X209800Y22317D01*
X209856Y22339D01*
X209900Y22361D01*
X209911D01*
X210134Y22450D01*
X210222Y22494D01*
X210300Y22539D01*
X210378Y22572D01*
X210422Y22605D01*
X210456Y22616D01*
X210467Y22628D01*
X210622Y22750D01*
X210745Y22861D01*
X210789Y22905D01*
X210822Y22939D01*
X210833Y22961D01*
X210845Y22972D01*
X210889Y23050D01*
X210922Y23128D01*
X210967Y23272D01*
X210978Y23339D01*
X210989Y23383D01*
Y23416D01*
Y23427D01*
X210978Y23583D01*
X210933Y23716D01*
X210878Y23839D01*
X210811Y23939D01*
X210745Y24016D01*
X210689Y24072D01*
X210645Y24105D01*
X210633Y24116D01*
X210478Y24205D01*
X210311Y24272D01*
X210122Y24316D01*
X209933Y24350D01*
X209767Y24372D01*
X209634Y24383D01*
X209511D01*
X209245Y24372D01*
X209111Y24361D01*
X209000Y24350D01*
X208900Y24339D01*
X208834Y24327D01*
X208778Y24316D01*
X208767D01*
X208478Y24272D01*
X208345Y24239D01*
X208234Y24216D01*
X208134Y24194D01*
X208056Y24183D01*
X208012Y24161D01*
X207989D01*
Y24961D01*
X208112Y24983D01*
X208234Y25005D01*
X208278Y25016D01*
X208323Y25027D01*
X208356D01*
X208500Y25050D01*
X208623Y25072D01*
X208667D01*
X208711Y25083D01*
X208745D01*
X208889Y25105D01*
X209011Y25116D01*
X209067Y25127D01*
X209134D01*
X209267Y25139D01*
X209378Y25150D01*
X209489D01*
X209722Y25139D01*
D02*
G37*
G36*
X154095Y15088D02*
X154173D01*
X154239Y15077D01*
X154283D01*
X154317Y15066D01*
X154328D01*
X154506Y15044D01*
X154584Y15033D01*
X154650Y15022D01*
X154706Y15011D01*
X154750Y14999D01*
X154783Y14988D01*
X154795D01*
X154950Y14955D01*
X155095Y14922D01*
X155150Y14911D01*
X155195Y14899D01*
X155217Y14888D01*
X155228D01*
X155372Y14844D01*
X155483Y14811D01*
X155528Y14799D01*
X155550Y14788D01*
X155572Y14777D01*
X155583D01*
Y13988D01*
X155428Y14044D01*
X155272Y14100D01*
X155128Y14144D01*
X154995Y14188D01*
X154895Y14211D01*
X154806Y14233D01*
X154761Y14255D01*
X154739D01*
X154428Y14311D01*
X154295Y14333D01*
X154161Y14344D01*
X154050Y14355D01*
X153895D01*
X153695Y14344D01*
X153517Y14311D01*
X153361Y14266D01*
X153239Y14222D01*
X153150Y14177D01*
X153084Y14133D01*
X153039Y14100D01*
X153028Y14088D01*
X152928Y13977D01*
X152861Y13866D01*
X152806Y13744D01*
X152773Y13633D01*
X152750Y13533D01*
X152739Y13455D01*
Y13400D01*
Y13377D01*
Y12944D01*
X153984D01*
X154173Y12922D01*
X154350Y12900D01*
X154506Y12878D01*
X154661Y12844D01*
X154795Y12811D01*
X154917Y12766D01*
X155028Y12733D01*
X155128Y12689D01*
X155217Y12644D01*
X155283Y12611D01*
X155339Y12577D01*
X155395Y12555D01*
X155428Y12533D01*
X155439Y12511D01*
X155450D01*
X155550Y12422D01*
X155628Y12333D01*
X155706Y12244D01*
X155772Y12144D01*
X155872Y11944D01*
X155939Y11755D01*
X155972Y11589D01*
X155983Y11511D01*
X155994Y11444D01*
X156006Y11400D01*
Y11355D01*
Y11333D01*
Y11322D01*
X155994Y11111D01*
X155972Y11011D01*
X155961Y10922D01*
X155939Y10855D01*
X155928Y10800D01*
X155917Y10767D01*
Y10756D01*
X155839Y10578D01*
X155783Y10500D01*
X155739Y10433D01*
X155694Y10378D01*
X155661Y10333D01*
X155639Y10311D01*
X155628Y10300D01*
X155461Y10178D01*
X155306Y10078D01*
X155228Y10044D01*
X155172Y10022D01*
X155139Y10000D01*
X155128D01*
X154884Y9944D01*
X154761Y9922D01*
X154639Y9911D01*
X154539D01*
X154461Y9900D01*
X154395D01*
X154217Y9911D01*
X154061Y9933D01*
X153906Y9956D01*
X153772Y9989D01*
X153661Y10022D01*
X153584Y10056D01*
X153528Y10067D01*
X153506Y10078D01*
X153350Y10155D01*
X153195Y10244D01*
X153061Y10344D01*
X152928Y10433D01*
X152828Y10522D01*
X152739Y10589D01*
X152695Y10633D01*
X152673Y10655D01*
X152650Y9989D01*
X151862D01*
Y13444D01*
X151873Y13600D01*
X151884Y13733D01*
X151906Y13866D01*
X151928Y13966D01*
X151962Y14055D01*
X151984Y14122D01*
X151995Y14166D01*
X152006Y14177D01*
X152062Y14288D01*
X152117Y14388D01*
X152184Y14477D01*
X152250Y14555D01*
X152306Y14611D01*
X152350Y14655D01*
X152384Y14677D01*
X152395Y14688D01*
X152495Y14766D01*
X152595Y14822D01*
X152695Y14877D01*
X152795Y14922D01*
X152873Y14955D01*
X152939Y14977D01*
X152995Y14999D01*
X153006D01*
X153284Y15055D01*
X153428Y15077D01*
X153550Y15088D01*
X153661Y15100D01*
X154017D01*
X154095Y15088D01*
D02*
G37*
G36*
X207123Y9989D02*
X206278D01*
X206167Y14000D01*
X206145Y15622D01*
X205845Y14622D01*
X204923Y12122D01*
X204312D01*
X203345Y14722D01*
X203034Y15622D01*
X202979Y14066D01*
X202845Y9989D01*
X201979D01*
X202290Y16522D01*
X203379D01*
X204312Y14055D01*
X204578Y13222D01*
X204867Y14055D01*
X205745Y16522D01*
X206801D01*
X207123Y9989D01*
D02*
G37*
G36*
X198557Y16610D02*
X198801Y16588D01*
X199012Y16544D01*
X199201Y16511D01*
X199357Y16466D01*
X199479Y16422D01*
X199523Y16410D01*
X199557Y16399D01*
X199568Y16388D01*
X199579D01*
X199779Y16288D01*
X199968Y16188D01*
X200134Y16077D01*
X200279Y15966D01*
X200401Y15866D01*
X200479Y15788D01*
X200535Y15733D01*
X200557Y15710D01*
X200701Y15533D01*
X200823Y15355D01*
X200934Y15166D01*
X201012Y14999D01*
X201090Y14844D01*
X201134Y14733D01*
X201157Y14688D01*
X201168Y14655D01*
X201179Y14633D01*
Y14622D01*
X201257Y14377D01*
X201312Y14133D01*
X201345Y13889D01*
X201368Y13666D01*
X201390Y13466D01*
Y13388D01*
X201401Y13311D01*
Y13255D01*
Y13211D01*
Y13189D01*
Y13177D01*
X201390Y12889D01*
X201368Y12611D01*
X201334Y12366D01*
X201301Y12166D01*
X201268Y11989D01*
X201245Y11922D01*
X201234Y11867D01*
X201223Y11822D01*
X201212Y11789D01*
X201201Y11767D01*
Y11755D01*
X201123Y11533D01*
X201023Y11333D01*
X200934Y11155D01*
X200834Y11011D01*
X200757Y10889D01*
X200690Y10800D01*
X200635Y10744D01*
X200623Y10722D01*
X200479Y10578D01*
X200323Y10456D01*
X200168Y10344D01*
X200023Y10255D01*
X199901Y10189D01*
X199801Y10144D01*
X199735Y10111D01*
X199723Y10100D01*
X199712D01*
X199501Y10033D01*
X199290Y9989D01*
X199090Y9944D01*
X198901Y9922D01*
X198746Y9911D01*
X198612Y9900D01*
X198501D01*
X198335Y9911D01*
X198190Y9922D01*
X198135D01*
X198090Y9933D01*
X198046D01*
X197879Y9956D01*
X197724Y9978D01*
X197668Y9989D01*
X197624D01*
X197590Y10000D01*
X197579D01*
X197401Y10033D01*
X197324Y10056D01*
X197257Y10078D01*
X197190Y10089D01*
X197146Y10100D01*
X197124Y10111D01*
X197113D01*
X196946Y10167D01*
X196801Y10233D01*
X196746Y10255D01*
X196702Y10278D01*
X196679Y10289D01*
X196668D01*
Y13633D01*
X198890D01*
Y12900D01*
X197546D01*
Y10822D01*
X197613Y10800D01*
X197668Y10778D01*
X197713Y10767D01*
X197735Y10756D01*
X197812Y10744D01*
X197879Y10722D01*
X197924Y10711D01*
X197946D01*
X198024Y10700D01*
X198101D01*
X198146Y10689D01*
X198368D01*
X198568Y10700D01*
X198746Y10711D01*
X198912Y10744D01*
X199057Y10778D01*
X199168Y10800D01*
X199257Y10833D01*
X199301Y10844D01*
X199323Y10855D01*
X199468Y10933D01*
X199590Y11011D01*
X199701Y11089D01*
X199801Y11178D01*
X199879Y11244D01*
X199934Y11300D01*
X199968Y11344D01*
X199979Y11355D01*
X200068Y11489D01*
X200146Y11622D01*
X200212Y11755D01*
X200268Y11889D01*
X200301Y12000D01*
X200335Y12089D01*
X200346Y12144D01*
X200357Y12166D01*
X200390Y12355D01*
X200423Y12533D01*
X200446Y12722D01*
X200457Y12889D01*
Y13033D01*
X200468Y13144D01*
Y13189D01*
Y13222D01*
Y13233D01*
Y13244D01*
X200457Y13455D01*
X200446Y13655D01*
X200423Y13833D01*
X200390Y13988D01*
X200368Y14111D01*
X200346Y14211D01*
X200335Y14266D01*
X200323Y14288D01*
X200268Y14466D01*
X200201Y14622D01*
X200123Y14755D01*
X200057Y14877D01*
X200001Y14966D01*
X199946Y15044D01*
X199912Y15088D01*
X199901Y15100D01*
X199790Y15222D01*
X199679Y15333D01*
X199568Y15422D01*
X199457Y15499D01*
X199368Y15555D01*
X199290Y15599D01*
X199246Y15622D01*
X199223Y15633D01*
X199068Y15699D01*
X198901Y15744D01*
X198746Y15777D01*
X198601Y15799D01*
X198479Y15811D01*
X198379Y15822D01*
X198124D01*
X197968Y15799D01*
X197835Y15788D01*
X197701Y15766D01*
X197601Y15744D01*
X197524Y15733D01*
X197479Y15710D01*
X197457D01*
X197179Y15622D01*
X197046Y15566D01*
X196935Y15522D01*
X196835Y15477D01*
X196768Y15444D01*
X196713Y15422D01*
X196702Y15411D01*
Y16299D01*
X196979Y16410D01*
X197101Y16455D01*
X197224Y16488D01*
X197324Y16511D01*
X197401Y16533D01*
X197446Y16544D01*
X197468D01*
X197768Y16588D01*
X197913Y16599D01*
X198035Y16610D01*
X198146Y16622D01*
X198301D01*
X198557Y16610D01*
D02*
G37*
G36*
X147929Y15066D02*
X148117Y15044D01*
X148295Y15022D01*
X148451Y14988D01*
X148573Y14944D01*
X148673Y14922D01*
X148729Y14899D01*
X148751Y14888D01*
X148917Y14811D01*
X149073Y14722D01*
X149206Y14633D01*
X149328Y14555D01*
X149417Y14477D01*
X149495Y14411D01*
X149540Y14366D01*
X149551Y14355D01*
X149673Y14222D01*
X149773Y14077D01*
X149862Y13944D01*
X149940Y13811D01*
X149995Y13700D01*
X150040Y13600D01*
X150062Y13544D01*
X150073Y13533D01*
Y13522D01*
X150128Y13344D01*
X150173Y13155D01*
X150206Y12966D01*
X150228Y12800D01*
X150240Y12655D01*
X150251Y12544D01*
Y12500D01*
Y12466D01*
Y12455D01*
Y12444D01*
X150240Y12222D01*
X150228Y12011D01*
X150195Y11811D01*
X150151Y11633D01*
X150106Y11467D01*
X150051Y11311D01*
X149995Y11167D01*
X149928Y11044D01*
X149873Y10933D01*
X149817Y10833D01*
X149762Y10756D01*
X149717Y10689D01*
X149673Y10633D01*
X149640Y10600D01*
X149628Y10578D01*
X149617Y10567D01*
X149495Y10456D01*
X149351Y10356D01*
X149206Y10267D01*
X149062Y10200D01*
X148906Y10133D01*
X148751Y10078D01*
X148462Y10000D01*
X148318Y9978D01*
X148195Y9956D01*
X148084Y9944D01*
X147984Y9933D01*
X147895Y9922D01*
X147784D01*
X147506Y9933D01*
X147373Y9944D01*
X147262Y9956D01*
X147173Y9967D01*
X147107Y9978D01*
X147051Y9989D01*
X147040D01*
X146784Y10044D01*
X146662Y10078D01*
X146551Y10100D01*
X146462Y10133D01*
X146396Y10155D01*
X146351Y10178D01*
X146340D01*
Y10989D01*
X146573Y10878D01*
X146684Y10833D01*
X146773Y10800D01*
X146862Y10778D01*
X146929Y10756D01*
X146973Y10744D01*
X146984D01*
X147229Y10700D01*
X147351Y10689D01*
X147451Y10678D01*
X147540Y10667D01*
X147673D01*
X147951Y10689D01*
X148195Y10733D01*
X148406Y10811D01*
X148584Y10889D01*
X148729Y10967D01*
X148828Y11044D01*
X148884Y11089D01*
X148906Y11111D01*
X149051Y11300D01*
X149162Y11511D01*
X149229Y11744D01*
X149284Y11955D01*
X149317Y12155D01*
X149328Y12244D01*
Y12322D01*
X149340Y12377D01*
Y12422D01*
Y12455D01*
Y12466D01*
X149328Y12633D01*
X149317Y12777D01*
X149295Y12911D01*
X149273Y13033D01*
X149251Y13122D01*
X149240Y13200D01*
X149217Y13244D01*
Y13255D01*
X149162Y13377D01*
X149106Y13488D01*
X149051Y13589D01*
X148984Y13677D01*
X148940Y13744D01*
X148895Y13789D01*
X148873Y13822D01*
X148862Y13833D01*
X148773Y13922D01*
X148684Y13988D01*
X148595Y14055D01*
X148518Y14111D01*
X148451Y14144D01*
X148384Y14177D01*
X148351Y14200D01*
X148340D01*
X148229Y14244D01*
X148117Y14277D01*
X148006Y14300D01*
X147906Y14322D01*
X147829D01*
X147762Y14333D01*
X147706D01*
X147440Y14322D01*
X147329Y14311D01*
X147218Y14300D01*
X147129Y14277D01*
X147062Y14266D01*
X147018Y14255D01*
X147006D01*
X146762Y14188D01*
X146651Y14144D01*
X146551Y14100D01*
X146462Y14066D01*
X146396Y14033D01*
X146351Y14022D01*
X146340Y14011D01*
Y14844D01*
X146573Y14922D01*
X146684Y14955D01*
X146784Y14977D01*
X146873Y14999D01*
X146940Y15011D01*
X146984Y15022D01*
X146995D01*
X147251Y15055D01*
X147373Y15066D01*
X147495D01*
X147584Y15077D01*
X147729D01*
X147929Y15066D01*
D02*
G37*
G36*
X177492Y16388D02*
Y15011D01*
X178892D01*
Y14277D01*
X177492D01*
Y11655D01*
X177470Y11344D01*
X177415Y11078D01*
X177348Y10855D01*
X177259Y10667D01*
X177170Y10522D01*
X177103Y10422D01*
X177048Y10367D01*
X177026Y10344D01*
X176937Y10267D01*
X176826Y10200D01*
X176603Y10100D01*
X176370Y10022D01*
X176148Y9978D01*
X175937Y9944D01*
X175848Y9933D01*
X175770D01*
X175704Y9922D01*
X175615D01*
X175381Y9933D01*
X175270D01*
X175181Y9944D01*
X175093D01*
X175037Y9956D01*
X174981D01*
X174748Y9989D01*
X174648Y10000D01*
X174548Y10022D01*
X174470Y10033D01*
X174415Y10044D01*
X174370Y10056D01*
X174359D01*
Y10811D01*
X174582Y10756D01*
X174681Y10733D01*
X174770Y10722D01*
X174848Y10700D01*
X174904D01*
X174948Y10689D01*
X174959D01*
X175159Y10667D01*
X175259D01*
X175337Y10655D01*
X175493D01*
X175692Y10667D01*
X175859Y10700D01*
X176004Y10744D01*
X176126Y10789D01*
X176215Y10833D01*
X176281Y10878D01*
X176326Y10911D01*
X176337Y10922D01*
X176437Y11033D01*
X176504Y11155D01*
X176559Y11289D01*
X176592Y11422D01*
X176615Y11544D01*
X176626Y11633D01*
Y11700D01*
Y11711D01*
Y11722D01*
Y14277D01*
X174359D01*
Y15011D01*
X176626D01*
Y16622D01*
X177492Y16388D01*
D02*
G37*
G36*
X170904Y15088D02*
X171082Y15066D01*
X171248Y15033D01*
X171393Y14999D01*
X171504Y14955D01*
X171593Y14922D01*
X171649Y14899D01*
X171671Y14888D01*
X171826Y14799D01*
X171960Y14711D01*
X172082Y14611D01*
X172193Y14522D01*
X172271Y14433D01*
X172337Y14366D01*
X172382Y14322D01*
X172393Y14311D01*
X172493Y14177D01*
X172582Y14033D01*
X172660Y13889D01*
X172726Y13766D01*
X172771Y13644D01*
X172804Y13555D01*
X172826Y13500D01*
X172837Y13488D01*
Y13477D01*
X172882Y13300D01*
X172915Y13122D01*
X172948Y12955D01*
X172959Y12811D01*
X172971Y12677D01*
X172982Y12577D01*
Y12511D01*
Y12500D01*
Y12489D01*
X172971Y12266D01*
X172959Y12055D01*
X172937Y11878D01*
X172915Y11711D01*
X172893Y11578D01*
X172871Y11478D01*
X172848Y11411D01*
Y11400D01*
Y11389D01*
X172793Y11222D01*
X172715Y11055D01*
X172648Y10922D01*
X172571Y10800D01*
X172504Y10711D01*
X172448Y10633D01*
X172415Y10589D01*
X172404Y10578D01*
X172282Y10456D01*
X172160Y10356D01*
X172026Y10267D01*
X171904Y10200D01*
X171804Y10144D01*
X171715Y10100D01*
X171660Y10078D01*
X171637Y10067D01*
X171460Y10011D01*
X171271Y9967D01*
X171082Y9944D01*
X170904Y9922D01*
X170760Y9911D01*
X170638Y9900D01*
X170349D01*
X170182Y9911D01*
X170026Y9922D01*
X169882Y9933D01*
X169771Y9944D01*
X169682Y9956D01*
X169626Y9967D01*
X169604D01*
X169438Y9989D01*
X169282Y10011D01*
X169149Y10044D01*
X169027Y10067D01*
X168927Y10089D01*
X168860Y10111D01*
X168804Y10122D01*
X168793D01*
Y10833D01*
X168915Y10800D01*
X169038Y10778D01*
X169082Y10767D01*
X169115Y10756D01*
X169138Y10744D01*
X169149D01*
X169293Y10722D01*
X169415Y10700D01*
X169471Y10689D01*
X169515D01*
X169538Y10678D01*
X169549D01*
X169693Y10667D01*
X169838Y10644D01*
X169893D01*
X169938Y10633D01*
X169971D01*
X170126Y10622D01*
X170404D01*
X170693Y10644D01*
X170937Y10689D01*
X171149Y10756D01*
X171326Y10833D01*
X171471Y10900D01*
X171571Y10967D01*
X171626Y11011D01*
X171649Y11033D01*
X171793Y11200D01*
X171893Y11389D01*
X171971Y11589D01*
X172015Y11778D01*
X172048Y11955D01*
X172060Y12033D01*
Y12100D01*
X172071Y12144D01*
Y12189D01*
Y12211D01*
Y12222D01*
X168549D01*
X168538Y12300D01*
Y12366D01*
Y12422D01*
Y12444D01*
X168527Y12555D01*
Y12655D01*
Y12700D01*
Y12733D01*
Y12755D01*
Y12766D01*
X168538Y12966D01*
X168549Y13144D01*
X168571Y13300D01*
X168593Y13444D01*
X168627Y13555D01*
X168649Y13644D01*
X168660Y13700D01*
X168671Y13722D01*
X168727Y13877D01*
X168793Y14022D01*
X168871Y14144D01*
X168938Y14255D01*
X168993Y14333D01*
X169049Y14400D01*
X169082Y14444D01*
X169093Y14455D01*
X169204Y14566D01*
X169315Y14666D01*
X169438Y14744D01*
X169538Y14811D01*
X169638Y14866D01*
X169715Y14899D01*
X169760Y14922D01*
X169782Y14933D01*
X169938Y14988D01*
X170093Y15033D01*
X170249Y15055D01*
X170393Y15077D01*
X170515Y15088D01*
X170615Y15100D01*
X170704D01*
X170904Y15088D01*
D02*
G37*
G36*
X142740D02*
X142918Y15066D01*
X143085Y15033D01*
X143229Y14999D01*
X143340Y14955D01*
X143429Y14922D01*
X143485Y14899D01*
X143507Y14888D01*
X143662Y14799D01*
X143796Y14711D01*
X143918Y14611D01*
X144029Y14522D01*
X144107Y14433D01*
X144174Y14366D01*
X144218Y14322D01*
X144229Y14311D01*
X144329Y14177D01*
X144418Y14033D01*
X144496Y13889D01*
X144562Y13766D01*
X144607Y13644D01*
X144640Y13555D01*
X144662Y13500D01*
X144673Y13488D01*
Y13477D01*
X144718Y13300D01*
X144751Y13122D01*
X144784Y12955D01*
X144796Y12811D01*
X144807Y12677D01*
X144818Y12577D01*
Y12511D01*
Y12500D01*
Y12489D01*
X144807Y12266D01*
X144796Y12055D01*
X144773Y11878D01*
X144751Y11711D01*
X144729Y11578D01*
X144707Y11478D01*
X144685Y11411D01*
Y11400D01*
Y11389D01*
X144629Y11222D01*
X144551Y11055D01*
X144484Y10922D01*
X144407Y10800D01*
X144340Y10711D01*
X144284Y10633D01*
X144251Y10589D01*
X144240Y10578D01*
X144118Y10456D01*
X143996Y10356D01*
X143862Y10267D01*
X143740Y10200D01*
X143640Y10144D01*
X143551Y10100D01*
X143496Y10078D01*
X143473Y10067D01*
X143296Y10011D01*
X143107Y9967D01*
X142918Y9944D01*
X142740Y9922D01*
X142596Y9911D01*
X142474Y9900D01*
X142185D01*
X142018Y9911D01*
X141863Y9922D01*
X141718Y9933D01*
X141607Y9944D01*
X141518Y9956D01*
X141463Y9967D01*
X141440D01*
X141274Y9989D01*
X141118Y10011D01*
X140985Y10044D01*
X140863Y10067D01*
X140763Y10089D01*
X140696Y10111D01*
X140640Y10122D01*
X140629D01*
Y10833D01*
X140752Y10800D01*
X140874Y10778D01*
X140918Y10767D01*
X140952Y10756D01*
X140974Y10744D01*
X140985D01*
X141129Y10722D01*
X141252Y10700D01*
X141307Y10689D01*
X141351D01*
X141374Y10678D01*
X141385D01*
X141529Y10667D01*
X141674Y10644D01*
X141729D01*
X141774Y10633D01*
X141807D01*
X141963Y10622D01*
X142240D01*
X142529Y10644D01*
X142774Y10689D01*
X142985Y10756D01*
X143162Y10833D01*
X143307Y10900D01*
X143407Y10967D01*
X143462Y11011D01*
X143485Y11033D01*
X143629Y11200D01*
X143729Y11389D01*
X143807Y11589D01*
X143851Y11778D01*
X143885Y11955D01*
X143896Y12033D01*
Y12100D01*
X143907Y12144D01*
Y12189D01*
Y12211D01*
Y12222D01*
X140385D01*
X140374Y12300D01*
Y12366D01*
Y12422D01*
Y12444D01*
X140363Y12555D01*
Y12655D01*
Y12700D01*
Y12733D01*
Y12755D01*
Y12766D01*
X140374Y12966D01*
X140385Y13144D01*
X140407Y13300D01*
X140429Y13444D01*
X140463Y13555D01*
X140485Y13644D01*
X140496Y13700D01*
X140507Y13722D01*
X140563Y13877D01*
X140629Y14022D01*
X140707Y14144D01*
X140774Y14255D01*
X140829Y14333D01*
X140885Y14400D01*
X140918Y14444D01*
X140929Y14455D01*
X141040Y14566D01*
X141151Y14666D01*
X141274Y14744D01*
X141374Y14811D01*
X141474Y14866D01*
X141551Y14899D01*
X141596Y14922D01*
X141618Y14933D01*
X141774Y14988D01*
X141929Y15033D01*
X142085Y15055D01*
X142229Y15077D01*
X142351Y15088D01*
X142451Y15100D01*
X142540D01*
X142740Y15088D01*
D02*
G37*
G36*
X212000Y9989D02*
X208278D01*
Y10744D01*
X211111D01*
Y13000D01*
X208389D01*
Y13755D01*
X211111D01*
Y15766D01*
X208278D01*
Y16522D01*
X212000D01*
Y9989D01*
D02*
G37*
G36*
X189613Y15766D02*
X188102D01*
Y10744D01*
X189613D01*
Y9989D01*
X185691D01*
Y10744D01*
X187203D01*
Y15766D01*
X185691D01*
Y16522D01*
X189613D01*
Y15766D01*
D02*
G37*
G36*
X181736Y15088D02*
X181881Y15077D01*
X181936Y15066D01*
X181981D01*
X182003Y15055D01*
X182014D01*
X182159Y15011D01*
X182292Y14966D01*
X182336Y14933D01*
X182381Y14922D01*
X182403Y14899D01*
X182414D01*
X182559Y14811D01*
X182681Y14722D01*
X182736Y14688D01*
X182781Y14655D01*
X182803Y14633D01*
X182814Y14622D01*
X182958Y14488D01*
X183103Y14344D01*
X183158Y14288D01*
X183203Y14244D01*
X183225Y14211D01*
X183236Y14200D01*
X183270Y15011D01*
X184036D01*
Y9989D01*
X183170D01*
Y13311D01*
X183081Y13422D01*
X183003Y13511D01*
X182936Y13600D01*
X182870Y13677D01*
X182814Y13733D01*
X182781Y13777D01*
X182758Y13800D01*
X182747Y13811D01*
X182603Y13944D01*
X182492Y14044D01*
X182447Y14077D01*
X182414Y14100D01*
X182392Y14122D01*
X182381D01*
X182258Y14200D01*
X182159Y14255D01*
X182092Y14277D01*
X182081Y14288D01*
X182070D01*
X181959Y14322D01*
X181848Y14333D01*
X181803Y14344D01*
X181747D01*
X181592Y14333D01*
X181459Y14300D01*
X181348Y14255D01*
X181259Y14200D01*
X181181Y14144D01*
X181136Y14100D01*
X181103Y14066D01*
X181092Y14055D01*
X181014Y13944D01*
X180959Y13800D01*
X180925Y13655D01*
X180892Y13522D01*
X180881Y13388D01*
X180870Y13289D01*
Y13244D01*
Y13211D01*
Y13200D01*
Y13189D01*
Y9989D01*
X180003D01*
Y13255D01*
X180025Y13577D01*
X180070Y13855D01*
X180125Y14100D01*
X180203Y14288D01*
X180281Y14444D01*
X180336Y14544D01*
X180381Y14611D01*
X180403Y14633D01*
X180570Y14788D01*
X180759Y14899D01*
X180948Y14988D01*
X181136Y15044D01*
X181314Y15077D01*
X181392Y15088D01*
X181448D01*
X181503Y15100D01*
X181581D01*
X181736Y15088D01*
D02*
G37*
G36*
X164538D02*
X164694Y15066D01*
X164849Y15022D01*
X164971Y14977D01*
X165094Y14933D01*
X165171Y14888D01*
X165227Y14866D01*
X165249Y14855D01*
X165416Y14755D01*
X165571Y14633D01*
X165716Y14500D01*
X165849Y14377D01*
X165960Y14255D01*
X166049Y14166D01*
X166105Y14100D01*
X166127Y14088D01*
Y14077D01*
X166149Y15011D01*
X166938D01*
Y9989D01*
X166060D01*
Y13211D01*
X165971Y13322D01*
X165893Y13422D01*
X165816Y13500D01*
X165749Y13577D01*
X165693Y13644D01*
X165649Y13689D01*
X165627Y13711D01*
X165616Y13722D01*
X165460Y13866D01*
X165338Y13988D01*
X165282Y14022D01*
X165249Y14055D01*
X165227Y14066D01*
X165216Y14077D01*
X165083Y14166D01*
X164960Y14233D01*
X164916Y14255D01*
X164883Y14266D01*
X164860Y14277D01*
X164849D01*
X164716Y14322D01*
X164605Y14333D01*
X164571Y14344D01*
X164505D01*
X164360Y14333D01*
X164238Y14300D01*
X164138Y14244D01*
X164049Y14200D01*
X163983Y14144D01*
X163927Y14088D01*
X163905Y14055D01*
X163894Y14044D01*
X163827Y13922D01*
X163771Y13766D01*
X163738Y13611D01*
X163716Y13455D01*
X163705Y13322D01*
X163694Y13211D01*
Y13166D01*
Y13133D01*
Y13111D01*
Y13100D01*
X162816D01*
Y13277D01*
X162827Y13444D01*
X162838Y13600D01*
X162861Y13755D01*
X162894Y13889D01*
X162927Y14011D01*
X162961Y14111D01*
X162994Y14211D01*
X163027Y14300D01*
X163072Y14377D01*
X163105Y14444D01*
X163127Y14500D01*
X163160Y14533D01*
X163172Y14566D01*
X163194Y14588D01*
X163271Y14677D01*
X163360Y14755D01*
X163549Y14888D01*
X163738Y14977D01*
X163927Y15033D01*
X164105Y15077D01*
X164183Y15088D01*
X164238D01*
X164294Y15100D01*
X164371D01*
X164538Y15088D01*
D02*
G37*
G36*
X158572Y17099D02*
X158739Y17077D01*
X158894Y17033D01*
X159172Y16933D01*
X159416Y16810D01*
X159616Y16655D01*
X159783Y16488D01*
X159927Y16299D01*
X160027Y16122D01*
X160116Y15933D01*
X160183Y15744D01*
X160227Y15577D01*
X160261Y15422D01*
X160283Y15300D01*
X160294Y15200D01*
Y15133D01*
Y15122D01*
Y15111D01*
Y14277D01*
X161905D01*
Y13555D01*
X160294D01*
Y9989D01*
X159405D01*
Y13555D01*
X157205D01*
Y14277D01*
X159405D01*
Y15155D01*
X159394Y15377D01*
X159350Y15566D01*
X159294Y15733D01*
X159228Y15877D01*
X159139Y15999D01*
X159039Y16099D01*
X158928Y16177D01*
X158816Y16244D01*
X158716Y16299D01*
X158605Y16333D01*
X158505Y16366D01*
X158416Y16377D01*
X158350Y16388D01*
X158283Y16399D01*
X158239D01*
X158039Y16388D01*
X157839Y16377D01*
X157639Y16355D01*
X157461Y16333D01*
X157294Y16299D01*
X157161Y16277D01*
X157117Y16266D01*
X157083D01*
X157061Y16255D01*
X157050D01*
Y17010D01*
X157283Y17044D01*
X157494Y17077D01*
X157694Y17099D01*
X157861Y17110D01*
X158005Y17121D01*
X158394D01*
X158572Y17099D01*
D02*
G37*
G36*
X60967Y68965D02*
X60701Y68299D01*
X59731Y68825D01*
Y66035D01*
X60841D01*
Y65310D01*
X57941D01*
Y66035D01*
X58895D01*
Y69690D01*
X59583D01*
X60967Y68965D01*
D02*
G37*
G36*
X63646Y66841D02*
Y65310D01*
X62810D01*
Y66849D01*
X61382Y69661D01*
X62255D01*
X62928Y68329D01*
X63224Y67655D01*
X63513Y68314D01*
X64149Y69661D01*
X65059D01*
X63646Y66841D01*
D02*
G37*
G36*
X179276Y140698D02*
X179417Y140683D01*
X179535Y140668D01*
X179639Y140653D01*
X179706Y140639D01*
X179735Y140631D01*
X179757D01*
X179765Y140624D01*
X179772D01*
X179898Y140587D01*
X180016Y140550D01*
X180120Y140513D01*
X180209Y140476D01*
X180275Y140439D01*
X180334Y140409D01*
X180364Y140394D01*
X180379Y140387D01*
X180468Y140328D01*
X180549Y140261D01*
X180623Y140202D01*
X180682Y140143D01*
X180734Y140091D01*
X180771Y140047D01*
X180793Y140017D01*
X180801Y140010D01*
X180912Y139839D01*
X180964Y139751D01*
X181000Y139677D01*
X181030Y139610D01*
X181052Y139551D01*
X181067Y139521D01*
X181075Y139506D01*
X181141Y139299D01*
X181163Y139196D01*
X181185Y139107D01*
X181200Y139025D01*
X181215Y138959D01*
X181222Y138922D01*
Y138914D01*
Y138907D01*
X181245Y138670D01*
X181252Y138552D01*
Y138448D01*
X181260Y138359D01*
Y138285D01*
Y138241D01*
Y138234D01*
Y138226D01*
X181252Y138049D01*
X181245Y137878D01*
X181222Y137723D01*
X181200Y137582D01*
X181163Y137449D01*
X181134Y137331D01*
X181097Y137220D01*
X181060Y137124D01*
X181023Y137042D01*
X180986Y136968D01*
X180949Y136902D01*
X180919Y136850D01*
X180897Y136813D01*
X180875Y136783D01*
X180867Y136768D01*
X180860Y136761D01*
X180779Y136680D01*
X180697Y136606D01*
X180601Y136539D01*
X180512Y136487D01*
X180416Y136443D01*
X180320Y136406D01*
X180127Y136347D01*
X180038Y136324D01*
X179957Y136310D01*
X179891Y136302D01*
X179824Y136295D01*
X179772Y136287D01*
X179698D01*
X179565Y136295D01*
X179446Y136302D01*
X179335Y136317D01*
X179239Y136339D01*
X179165Y136354D01*
X179106Y136369D01*
X179069Y136376D01*
X179054Y136384D01*
X178951Y136428D01*
X178847Y136472D01*
X178766Y136524D01*
X178692Y136569D01*
X178632Y136613D01*
X178588Y136650D01*
X178559Y136672D01*
X178551Y136680D01*
X178477Y136754D01*
X178410Y136835D01*
X178351Y136909D01*
X178307Y136983D01*
X178270Y137042D01*
X178240Y137094D01*
X178226Y137124D01*
X178218Y137138D01*
X178174Y137242D01*
X178144Y137346D01*
X178122Y137449D01*
X178107Y137538D01*
X178100Y137619D01*
X178092Y137686D01*
Y137723D01*
Y137738D01*
Y137849D01*
X178107Y137952D01*
X178122Y138049D01*
X178137Y138130D01*
X178152Y138197D01*
X178166Y138248D01*
X178174Y138285D01*
X178181Y138293D01*
X178218Y138382D01*
X178262Y138463D01*
X178307Y138537D01*
X178351Y138596D01*
X178388Y138648D01*
X178425Y138685D01*
X178447Y138707D01*
X178455Y138715D01*
X178522Y138774D01*
X178595Y138833D01*
X178670Y138877D01*
X178744Y138914D01*
X178803Y138944D01*
X178855Y138966D01*
X178884Y138974D01*
X178899Y138981D01*
X179002Y139011D01*
X179106Y139040D01*
X179210Y139055D01*
X179306Y139062D01*
X179387Y139070D01*
X179454Y139077D01*
X179513D01*
X179691Y139070D01*
X179765Y139062D01*
X179839Y139048D01*
X179898Y139040D01*
X179942Y139025D01*
X179972Y139018D01*
X179979D01*
X180061Y138996D01*
X180135Y138974D01*
X180201Y138951D01*
X180261Y138929D01*
X180305Y138914D01*
X180342Y138900D01*
X180364Y138892D01*
X180371Y138885D01*
X180364Y138959D01*
X180357Y139048D01*
X180342Y139136D01*
X180327Y139210D01*
X180305Y139277D01*
X180290Y139329D01*
X180283Y139366D01*
X180268Y139395D01*
Y139403D01*
X180238Y139477D01*
X180201Y139536D01*
X180164Y139595D01*
X180127Y139647D01*
X180090Y139684D01*
X180061Y139714D01*
X180046Y139728D01*
X180038Y139736D01*
X179979Y139788D01*
X179913Y139832D01*
X179780Y139899D01*
X179728Y139921D01*
X179676Y139936D01*
X179646Y139950D01*
X179639D01*
X179543Y139973D01*
X179439Y139995D01*
X179343Y140010D01*
X179247Y140017D01*
X179165Y140024D01*
X178455D01*
Y140713D01*
X179121D01*
X179276Y140698D01*
D02*
G37*
G36*
X184908Y136361D02*
X184086D01*
Y138167D01*
X183931D01*
X183857Y138160D01*
X183783Y138152D01*
X183724Y138137D01*
X183672Y138115D01*
X183627Y138093D01*
X183598Y138078D01*
X183576Y138071D01*
X183568Y138063D01*
X183517Y138019D01*
X183465Y137975D01*
X183391Y137871D01*
X183369Y137827D01*
X183346Y137790D01*
X183332Y137767D01*
Y137760D01*
X182717Y136361D01*
X181755D01*
X182451Y137819D01*
X182503Y137915D01*
X182547Y138004D01*
X182591Y138078D01*
X182636Y138137D01*
X182666Y138189D01*
X182695Y138219D01*
X182710Y138241D01*
X182717Y138248D01*
X182769Y138300D01*
X182821Y138337D01*
X182873Y138367D01*
X182917Y138396D01*
X182954Y138411D01*
X182984Y138419D01*
X183006Y138426D01*
X183013D01*
X182865Y138463D01*
X182799Y138478D01*
X182739Y138500D01*
X182695Y138515D01*
X182658Y138530D01*
X182636Y138544D01*
X182629D01*
X182503Y138611D01*
X182451Y138648D01*
X182406Y138685D01*
X182377Y138715D01*
X182347Y138737D01*
X182333Y138752D01*
X182325Y138759D01*
X182244Y138870D01*
X182185Y138974D01*
X182162Y139018D01*
X182148Y139055D01*
X182133Y139077D01*
Y139085D01*
X182088Y139225D01*
X182073Y139299D01*
X182066Y139366D01*
X182059Y139425D01*
Y139469D01*
Y139499D01*
Y139506D01*
X182066Y139625D01*
X182073Y139736D01*
X182096Y139832D01*
X182118Y139913D01*
X182140Y139980D01*
X182155Y140024D01*
X182170Y140061D01*
X182177Y140069D01*
X182221Y140150D01*
X182273Y140224D01*
X182325Y140283D01*
X182377Y140343D01*
X182421Y140380D01*
X182458Y140417D01*
X182488Y140431D01*
X182495Y140439D01*
X182577Y140491D01*
X182658Y140535D01*
X182739Y140572D01*
X182821Y140602D01*
X182887Y140616D01*
X182939Y140631D01*
X182976Y140646D01*
X182991D01*
X183221Y140683D01*
X183324Y140698D01*
X183428Y140705D01*
X183517Y140713D01*
X184908D01*
Y136361D01*
D02*
G37*
G36*
X184337Y126858D02*
X183516D01*
Y128663D01*
X183361D01*
X183287Y128656D01*
X183213Y128648D01*
X183153Y128634D01*
X183102Y128612D01*
X183057Y128589D01*
X183028Y128575D01*
X183005Y128567D01*
X182998Y128560D01*
X182946Y128515D01*
X182894Y128471D01*
X182820Y128367D01*
X182798Y128323D01*
X182776Y128286D01*
X182761Y128264D01*
Y128256D01*
X182147Y126858D01*
X181185D01*
X181881Y128315D01*
X181932Y128412D01*
X181977Y128500D01*
X182021Y128575D01*
X182066Y128634D01*
X182095Y128685D01*
X182125Y128715D01*
X182140Y128737D01*
X182147Y128745D01*
X182199Y128797D01*
X182251Y128833D01*
X182302Y128863D01*
X182347Y128893D01*
X182384Y128908D01*
X182413Y128915D01*
X182436Y128922D01*
X182443D01*
X182295Y128959D01*
X182228Y128974D01*
X182169Y128996D01*
X182125Y129011D01*
X182088Y129026D01*
X182066Y129041D01*
X182058D01*
X181932Y129107D01*
X181881Y129144D01*
X181836Y129181D01*
X181807Y129211D01*
X181777Y129233D01*
X181762Y129248D01*
X181755Y129255D01*
X181673Y129366D01*
X181614Y129470D01*
X181592Y129514D01*
X181577Y129551D01*
X181562Y129574D01*
Y129581D01*
X181518Y129721D01*
X181503Y129796D01*
X181496Y129862D01*
X181488Y129921D01*
Y129966D01*
Y129995D01*
Y130003D01*
X181496Y130121D01*
X181503Y130232D01*
X181525Y130328D01*
X181548Y130410D01*
X181570Y130476D01*
X181585Y130521D01*
X181599Y130558D01*
X181607Y130565D01*
X181651Y130647D01*
X181703Y130720D01*
X181755Y130780D01*
X181807Y130839D01*
X181851Y130876D01*
X181888Y130913D01*
X181918Y130928D01*
X181925Y130935D01*
X182006Y130987D01*
X182088Y131031D01*
X182169Y131068D01*
X182251Y131098D01*
X182317Y131113D01*
X182369Y131128D01*
X182406Y131142D01*
X182421D01*
X182650Y131179D01*
X182754Y131194D01*
X182857Y131202D01*
X182946Y131209D01*
X184337D01*
Y126858D01*
D02*
G37*
G36*
X180415Y128893D02*
X179564D01*
X179372Y128885D01*
X179217Y128863D01*
X179076Y128833D01*
X178972Y128804D01*
X178884Y128774D01*
X178824Y128745D01*
X178795Y128723D01*
X178780Y128715D01*
X178699Y128641D01*
X178639Y128560D01*
X178595Y128478D01*
X178565Y128390D01*
X178551Y128315D01*
X178536Y128256D01*
Y128212D01*
Y128205D01*
Y128197D01*
X178551Y128079D01*
X178580Y127968D01*
X178617Y127879D01*
X178669Y127805D01*
X178721Y127746D01*
X178758Y127701D01*
X178787Y127672D01*
X178802Y127664D01*
X178906Y127605D01*
X179032Y127561D01*
X179157Y127524D01*
X179283Y127501D01*
X179394Y127487D01*
X179439D01*
X179483Y127479D01*
X179564D01*
X179749Y127487D01*
X179831D01*
X179912Y127494D01*
X179971D01*
X180023Y127501D01*
X180068D01*
X180156Y127516D01*
X180238Y127524D01*
X180312Y127539D01*
X180371Y127553D01*
X180423Y127568D01*
X180467Y127576D01*
X180489Y127583D01*
X180497D01*
Y126873D01*
X180423Y126865D01*
X180356Y126850D01*
X180327D01*
X180312Y126843D01*
X180290D01*
X180208Y126836D01*
X180134Y126828D01*
X180105Y126821D01*
X180060D01*
X179971Y126813D01*
X179897Y126806D01*
X179868Y126798D01*
X179823D01*
X179742Y126791D01*
X179601D01*
X179446Y126798D01*
X179305Y126806D01*
X179172Y126821D01*
X179061Y126843D01*
X178965Y126858D01*
X178891Y126873D01*
X178869Y126880D01*
X178847D01*
X178839Y126887D01*
X178832D01*
X178706Y126924D01*
X178588Y126969D01*
X178484Y127021D01*
X178388Y127065D01*
X178321Y127102D01*
X178262Y127139D01*
X178232Y127161D01*
X178218Y127169D01*
X178129Y127243D01*
X178047Y127316D01*
X177973Y127391D01*
X177914Y127464D01*
X177870Y127524D01*
X177840Y127576D01*
X177818Y127605D01*
X177811Y127620D01*
X177759Y127724D01*
X177722Y127834D01*
X177700Y127938D01*
X177677Y128034D01*
X177670Y128123D01*
X177663Y128190D01*
Y128234D01*
Y128242D01*
Y128249D01*
X177670Y128390D01*
X177685Y128508D01*
X177707Y128619D01*
X177729Y128715D01*
X177759Y128789D01*
X177781Y128841D01*
X177796Y128870D01*
X177803Y128885D01*
X177862Y128974D01*
X177922Y129056D01*
X177981Y129122D01*
X178040Y129181D01*
X178092Y129226D01*
X178136Y129255D01*
X178166Y129278D01*
X178173Y129285D01*
X178262Y129337D01*
X178351Y129381D01*
X178440Y129418D01*
X178528Y129448D01*
X178595Y129463D01*
X178654Y129477D01*
X178691Y129492D01*
X178706D01*
X178935Y129529D01*
X179039Y129544D01*
X179135Y129551D01*
X179224Y129559D01*
X179653D01*
Y130439D01*
X177899D01*
Y131209D01*
X180415D01*
Y128893D01*
D02*
G37*
G36*
X17717Y60435D02*
X17872Y60420D01*
X18013Y60390D01*
X18131Y60368D01*
X18235Y60339D01*
X18309Y60309D01*
X18338Y60302D01*
X18361Y60294D01*
X18368Y60287D01*
X18375D01*
X18509Y60220D01*
X18627Y60154D01*
X18738Y60080D01*
X18834Y60006D01*
X18908Y59939D01*
X18968Y59887D01*
X18997Y59850D01*
X19012Y59835D01*
X19101Y59717D01*
X19182Y59599D01*
X19249Y59473D01*
X19308Y59362D01*
X19352Y59258D01*
X19382Y59184D01*
X19397Y59155D01*
X19404Y59132D01*
X19411Y59118D01*
Y59110D01*
X19456Y58947D01*
X19486Y58777D01*
X19515Y58614D01*
X19530Y58459D01*
X19537Y58333D01*
Y58274D01*
X19545Y58230D01*
Y58185D01*
Y58156D01*
Y58141D01*
Y58133D01*
X19537Y57941D01*
X19523Y57756D01*
X19508Y57593D01*
X19478Y57460D01*
X19456Y57342D01*
X19448Y57297D01*
X19441Y57260D01*
X19434Y57231D01*
X19426Y57208D01*
X19419Y57194D01*
Y57186D01*
X19367Y57046D01*
X19308Y56912D01*
X19249Y56801D01*
X19189Y56698D01*
X19130Y56624D01*
X19086Y56565D01*
X19056Y56528D01*
X19049Y56513D01*
X18953Y56417D01*
X18849Y56335D01*
X18745Y56261D01*
X18649Y56202D01*
X18561Y56158D01*
X18494Y56128D01*
X18450Y56106D01*
X18442Y56098D01*
X18435D01*
X18294Y56054D01*
X18154Y56024D01*
X18013Y55995D01*
X17887Y55980D01*
X17769Y55973D01*
X17724D01*
X17687Y55965D01*
X17495D01*
X17391Y55973D01*
X17295Y55987D01*
X17214Y55995D01*
X17140Y56010D01*
X17088Y56017D01*
X17058Y56024D01*
X17043D01*
X16836Y56076D01*
X16740Y56098D01*
X16659Y56128D01*
X16585Y56158D01*
X16525Y56172D01*
X16488Y56187D01*
X16474Y56195D01*
Y56964D01*
X16555Y56927D01*
X16636Y56890D01*
X16666Y56883D01*
X16696Y56868D01*
X16711Y56861D01*
X16718D01*
X16814Y56831D01*
X16895Y56801D01*
X16925Y56794D01*
X16955Y56787D01*
X16970Y56779D01*
X16977D01*
X17073Y56757D01*
X17154Y56735D01*
X17184Y56727D01*
X17214D01*
X17229Y56720D01*
X17236D01*
X17325Y56713D01*
X17399Y56705D01*
X17473D01*
X17584Y56713D01*
X17680Y56720D01*
X17769Y56735D01*
X17850Y56757D01*
X17909Y56772D01*
X17961Y56787D01*
X17991Y56794D01*
X17998Y56801D01*
X18079Y56846D01*
X18146Y56890D01*
X18213Y56942D01*
X18264Y56986D01*
X18309Y57031D01*
X18338Y57068D01*
X18361Y57090D01*
X18368Y57097D01*
X18420Y57171D01*
X18457Y57253D01*
X18494Y57327D01*
X18523Y57401D01*
X18546Y57467D01*
X18561Y57519D01*
X18575Y57549D01*
Y57564D01*
X18612Y57786D01*
X18627Y57889D01*
X18634Y57985D01*
Y58074D01*
X18642Y58141D01*
Y58185D01*
Y58193D01*
Y58200D01*
Y58318D01*
X18634Y58437D01*
X18620Y58540D01*
X18612Y58629D01*
X18598Y58703D01*
X18590Y58762D01*
X18583Y58792D01*
Y58807D01*
X18553Y58910D01*
X18523Y58999D01*
X18486Y59081D01*
X18457Y59155D01*
X18420Y59206D01*
X18398Y59251D01*
X18383Y59280D01*
X18375Y59288D01*
X18316Y59362D01*
X18257Y59421D01*
X18198Y59473D01*
X18139Y59517D01*
X18087Y59554D01*
X18050Y59576D01*
X18020Y59591D01*
X18013Y59599D01*
X17924Y59636D01*
X17835Y59665D01*
X17747Y59687D01*
X17665Y59702D01*
X17591Y59710D01*
X17532Y59717D01*
X17480D01*
X17317Y59710D01*
X17243Y59702D01*
X17169Y59687D01*
X17110Y59680D01*
X17066Y59665D01*
X17029Y59658D01*
X17021D01*
X16829Y59606D01*
X16733Y59576D01*
X16651Y59547D01*
X16577Y59517D01*
X16525Y59495D01*
X16488Y59480D01*
X16474Y59473D01*
Y60287D01*
X16577Y60316D01*
X16666Y60339D01*
X16696Y60346D01*
X16725Y60353D01*
X16740Y60361D01*
X16748D01*
X16844Y60383D01*
X16925Y60398D01*
X16962D01*
X16984Y60405D01*
X17007D01*
X17103Y60420D01*
X17184Y60427D01*
X17214Y60435D01*
X17266D01*
X17362Y60442D01*
X17547D01*
X17717Y60435D01*
D02*
G37*
G36*
X14306Y60442D02*
X14431Y60435D01*
X14542Y60420D01*
X14638Y60405D01*
X14713Y60383D01*
X14772Y60368D01*
X14809Y60361D01*
X14823Y60353D01*
X14920Y60316D01*
X15009Y60279D01*
X15090Y60235D01*
X15157Y60198D01*
X15208Y60161D01*
X15245Y60139D01*
X15275Y60117D01*
X15282Y60109D01*
X15341Y60050D01*
X15401Y59991D01*
X15445Y59924D01*
X15482Y59872D01*
X15512Y59821D01*
X15534Y59784D01*
X15541Y59754D01*
X15549Y59747D01*
X15578Y59665D01*
X15600Y59591D01*
X15615Y59517D01*
X15623Y59451D01*
X15630Y59391D01*
X15638Y59340D01*
Y59310D01*
Y59303D01*
X15630Y59155D01*
X15623Y59095D01*
X15608Y59044D01*
X15600Y58992D01*
X15593Y58962D01*
X15586Y58940D01*
Y58933D01*
X15534Y58822D01*
X15482Y58733D01*
X15467Y58696D01*
X15445Y58666D01*
X15438Y58651D01*
X15430Y58644D01*
X15349Y58555D01*
X15275Y58481D01*
X15238Y58452D01*
X15216Y58429D01*
X15201Y58422D01*
X15193Y58415D01*
X15090Y58341D01*
X15001Y58281D01*
X14964Y58259D01*
X14934Y58244D01*
X14920Y58237D01*
X14912Y58230D01*
X15031Y58156D01*
X15082Y58119D01*
X15127Y58089D01*
X15164Y58059D01*
X15193Y58037D01*
X15216Y58022D01*
X15223Y58015D01*
X15327Y57926D01*
X15408Y57845D01*
X15445Y57808D01*
X15467Y57778D01*
X15482Y57763D01*
X15489Y57756D01*
X15563Y57645D01*
X15623Y57541D01*
X15638Y57504D01*
X15652Y57467D01*
X15667Y57445D01*
Y57438D01*
X15704Y57305D01*
X15711Y57238D01*
X15719Y57179D01*
X15726Y57127D01*
Y57083D01*
Y57053D01*
Y57046D01*
X15719Y56957D01*
X15711Y56868D01*
X15697Y56787D01*
X15675Y56720D01*
X15660Y56668D01*
X15645Y56624D01*
X15638Y56594D01*
X15630Y56587D01*
X15593Y56513D01*
X15541Y56446D01*
X15497Y56394D01*
X15452Y56343D01*
X15408Y56298D01*
X15371Y56269D01*
X15349Y56254D01*
X15341Y56246D01*
X15268Y56195D01*
X15186Y56150D01*
X15105Y56113D01*
X15031Y56084D01*
X14964Y56061D01*
X14912Y56039D01*
X14883Y56032D01*
X14868Y56024D01*
X14757Y56002D01*
X14646Y55980D01*
X14542Y55965D01*
X14439Y55958D01*
X14350D01*
X14283Y55950D01*
X14098D01*
X13987Y55965D01*
X13884Y55973D01*
X13795Y55987D01*
X13713Y56002D01*
X13662Y56010D01*
X13625Y56024D01*
X13610D01*
X13506Y56054D01*
X13410Y56091D01*
X13329Y56128D01*
X13255Y56165D01*
X13195Y56202D01*
X13151Y56232D01*
X13122Y56246D01*
X13114Y56254D01*
X13040Y56313D01*
X12973Y56380D01*
X12914Y56439D01*
X12870Y56498D01*
X12833Y56550D01*
X12803Y56594D01*
X12788Y56624D01*
X12781Y56631D01*
X12737Y56720D01*
X12707Y56809D01*
X12685Y56898D01*
X12670Y56979D01*
X12663Y57053D01*
X12655Y57105D01*
Y57142D01*
Y57157D01*
X12663Y57312D01*
X12677Y57379D01*
X12685Y57438D01*
X12700Y57490D01*
X12715Y57527D01*
X12722Y57549D01*
Y57556D01*
X12781Y57682D01*
X12811Y57734D01*
X12833Y57786D01*
X12863Y57823D01*
X12877Y57852D01*
X12892Y57867D01*
X12900Y57874D01*
X12988Y57978D01*
X13070Y58059D01*
X13107Y58089D01*
X13136Y58111D01*
X13151Y58119D01*
X13159Y58126D01*
X13270Y58207D01*
X13366Y58267D01*
X13410Y58289D01*
X13440Y58311D01*
X13462Y58318D01*
X13469Y58326D01*
X13366Y58400D01*
X13270Y58459D01*
X13240Y58489D01*
X13210Y58511D01*
X13195Y58518D01*
X13188Y58526D01*
X13099Y58614D01*
X13025Y58688D01*
X12996Y58725D01*
X12973Y58748D01*
X12966Y58762D01*
X12959Y58770D01*
X12892Y58873D01*
X12848Y58970D01*
X12825Y59007D01*
X12811Y59036D01*
X12803Y59058D01*
Y59066D01*
X12766Y59199D01*
X12759Y59258D01*
X12752Y59317D01*
X12744Y59369D01*
Y59406D01*
Y59436D01*
Y59443D01*
X12752Y59525D01*
X12759Y59599D01*
X12774Y59673D01*
X12788Y59732D01*
X12811Y59784D01*
X12825Y59821D01*
X12833Y59843D01*
X12840Y59850D01*
X12877Y59917D01*
X12922Y59976D01*
X12973Y60035D01*
X13018Y60080D01*
X13055Y60117D01*
X13092Y60146D01*
X13114Y60161D01*
X13122Y60168D01*
X13188Y60213D01*
X13262Y60257D01*
X13336Y60294D01*
X13410Y60324D01*
X13469Y60346D01*
X13521Y60361D01*
X13551Y60376D01*
X13566D01*
X13773Y60420D01*
X13876Y60435D01*
X13965Y60442D01*
X14054Y60450D01*
X14172D01*
X14306Y60442D01*
D02*
G37*
G36*
X17802Y69931D02*
X17957Y69916D01*
X18098Y69887D01*
X18216Y69864D01*
X18320Y69835D01*
X18394Y69805D01*
X18424Y69798D01*
X18446Y69791D01*
X18453Y69783D01*
X18461D01*
X18594Y69717D01*
X18712Y69650D01*
X18823Y69576D01*
X18920Y69502D01*
X18993Y69435D01*
X19053Y69384D01*
X19082Y69346D01*
X19097Y69332D01*
X19186Y69213D01*
X19267Y69095D01*
X19334Y68969D01*
X19393Y68858D01*
X19437Y68755D01*
X19467Y68681D01*
X19482Y68651D01*
X19489Y68629D01*
X19497Y68614D01*
Y68607D01*
X19541Y68444D01*
X19571Y68274D01*
X19600Y68111D01*
X19615Y67955D01*
X19623Y67830D01*
Y67770D01*
X19630Y67726D01*
Y67681D01*
Y67652D01*
Y67637D01*
Y67630D01*
X19623Y67437D01*
X19608Y67252D01*
X19593Y67089D01*
X19563Y66956D01*
X19541Y66838D01*
X19534Y66794D01*
X19526Y66756D01*
X19519Y66727D01*
X19512Y66705D01*
X19504Y66690D01*
Y66682D01*
X19452Y66542D01*
X19393Y66409D01*
X19334Y66298D01*
X19275Y66194D01*
X19216Y66120D01*
X19171Y66061D01*
X19141Y66024D01*
X19134Y66009D01*
X19038Y65913D01*
X18934Y65832D01*
X18831Y65758D01*
X18734Y65698D01*
X18646Y65654D01*
X18579Y65624D01*
X18535Y65602D01*
X18527Y65595D01*
X18520D01*
X18379Y65550D01*
X18239Y65521D01*
X18098Y65491D01*
X17972Y65476D01*
X17854Y65469D01*
X17809D01*
X17773Y65461D01*
X17580D01*
X17477Y65469D01*
X17380Y65484D01*
X17299Y65491D01*
X17225Y65506D01*
X17173Y65513D01*
X17143Y65521D01*
X17129D01*
X16921Y65573D01*
X16825Y65595D01*
X16744Y65624D01*
X16670Y65654D01*
X16611Y65669D01*
X16574Y65684D01*
X16559Y65691D01*
Y66461D01*
X16640Y66423D01*
X16722Y66386D01*
X16751Y66379D01*
X16781Y66364D01*
X16796Y66357D01*
X16803D01*
X16899Y66327D01*
X16981Y66298D01*
X17010Y66290D01*
X17040Y66283D01*
X17055Y66276D01*
X17062D01*
X17158Y66253D01*
X17240Y66231D01*
X17269Y66224D01*
X17299D01*
X17314Y66216D01*
X17321D01*
X17410Y66209D01*
X17484Y66202D01*
X17558D01*
X17669Y66209D01*
X17765Y66216D01*
X17854Y66231D01*
X17935Y66253D01*
X17995Y66268D01*
X18046Y66283D01*
X18076Y66290D01*
X18083Y66298D01*
X18165Y66342D01*
X18231Y66386D01*
X18298Y66438D01*
X18350Y66483D01*
X18394Y66527D01*
X18424Y66564D01*
X18446Y66586D01*
X18453Y66594D01*
X18505Y66668D01*
X18542Y66749D01*
X18579Y66823D01*
X18609Y66897D01*
X18631Y66964D01*
X18646Y67015D01*
X18661Y67045D01*
Y67060D01*
X18698Y67282D01*
X18712Y67386D01*
X18720Y67482D01*
Y67571D01*
X18727Y67637D01*
Y67681D01*
Y67689D01*
Y67696D01*
Y67815D01*
X18720Y67933D01*
X18705Y68037D01*
X18698Y68125D01*
X18683Y68199D01*
X18675Y68259D01*
X18668Y68288D01*
Y68303D01*
X18638Y68407D01*
X18609Y68496D01*
X18572Y68577D01*
X18542Y68651D01*
X18505Y68703D01*
X18483Y68747D01*
X18468Y68777D01*
X18461Y68784D01*
X18402Y68858D01*
X18342Y68917D01*
X18283Y68969D01*
X18224Y69014D01*
X18172Y69051D01*
X18135Y69073D01*
X18105Y69087D01*
X18098Y69095D01*
X18009Y69132D01*
X17921Y69161D01*
X17832Y69184D01*
X17750Y69199D01*
X17676Y69206D01*
X17617Y69213D01*
X17565D01*
X17402Y69206D01*
X17328Y69199D01*
X17255Y69184D01*
X17195Y69176D01*
X17151Y69161D01*
X17114Y69154D01*
X17107D01*
X16914Y69102D01*
X16818Y69073D01*
X16736Y69043D01*
X16662Y69014D01*
X16611Y68991D01*
X16574Y68976D01*
X16559Y68969D01*
Y69783D01*
X16662Y69813D01*
X16751Y69835D01*
X16781Y69842D01*
X16811Y69850D01*
X16825Y69857D01*
X16833D01*
X16929Y69879D01*
X17010Y69894D01*
X17047D01*
X17070Y69902D01*
X17092D01*
X17188Y69916D01*
X17269Y69924D01*
X17299Y69931D01*
X17351D01*
X17447Y69938D01*
X17632D01*
X17802Y69931D01*
D02*
G37*
G36*
X15797Y69087D02*
X13710D01*
X15449Y65521D01*
X14524D01*
X12770Y69161D01*
Y69872D01*
X15797D01*
Y69087D01*
D02*
G37*
%LPC*%
G36*
X164783Y20806D02*
X163560D01*
Y19906D01*
X163716Y19761D01*
X163872Y19650D01*
X164016Y19550D01*
X164138Y19472D01*
X164238Y19406D01*
X164316Y19361D01*
X164360Y19339D01*
X164383Y19328D01*
X164527Y19272D01*
X164649Y19228D01*
X164771Y19195D01*
X164871Y19172D01*
X164960Y19161D01*
X165016Y19150D01*
X165071D01*
X165227Y19161D01*
X165349Y19184D01*
X165394D01*
X165427Y19195D01*
X165449Y19206D01*
X165460D01*
X165560Y19250D01*
X165649Y19306D01*
X165693Y19350D01*
X165716Y19361D01*
X165782Y19450D01*
X165827Y19528D01*
X165849Y19583D01*
X165860Y19595D01*
Y19606D01*
X165882Y19706D01*
X165893Y19795D01*
X165905Y19861D01*
Y19872D01*
Y19883D01*
X165893Y20028D01*
X165871Y20150D01*
X165860Y20195D01*
X165849Y20228D01*
X165838Y20250D01*
Y20261D01*
X165771Y20372D01*
X165693Y20472D01*
X165638Y20528D01*
X165627Y20550D01*
X165616D01*
X165494Y20628D01*
X165360Y20695D01*
X165305Y20717D01*
X165260Y20728D01*
X165238Y20739D01*
X165227D01*
X165038Y20783D01*
X164860Y20795D01*
X164783Y20806D01*
D02*
G37*
G36*
X170404Y22928D02*
X170182D01*
X170071Y22905D01*
X169971Y22894D01*
X169893Y22872D01*
X169826Y22850D01*
X169771Y22828D01*
X169738Y22817D01*
X169726Y22805D01*
X169549Y22705D01*
X169482Y22661D01*
X169415Y22605D01*
X169371Y22561D01*
X169338Y22528D01*
X169315Y22505D01*
X169304Y22494D01*
X169193Y22339D01*
X169115Y22183D01*
X169093Y22117D01*
X169071Y22061D01*
X169060Y22028D01*
Y22017D01*
X169004Y21805D01*
X168993Y21705D01*
X168982Y21617D01*
Y21539D01*
Y21472D01*
Y21428D01*
Y21417D01*
X171626D01*
X171593Y21650D01*
X171582Y21761D01*
X171560Y21850D01*
X171537Y21928D01*
X171515Y21983D01*
X171504Y22017D01*
Y22028D01*
X171415Y22217D01*
X171371Y22305D01*
X171326Y22372D01*
X171282Y22428D01*
X171248Y22472D01*
X171237Y22494D01*
X171226Y22505D01*
X171093Y22639D01*
X170960Y22739D01*
X170904Y22772D01*
X170860Y22794D01*
X170837Y22817D01*
X170826D01*
X170638Y22883D01*
X170549Y22905D01*
X170471Y22917D01*
X170404Y22928D01*
D02*
G37*
G36*
X205489Y24294D02*
X204534D01*
X204356Y24272D01*
X204201Y24250D01*
X204056Y24227D01*
X203945Y24205D01*
X203856Y24183D01*
X203812Y24172D01*
X203790Y24161D01*
X203645Y24105D01*
X203512Y24039D01*
X203401Y23961D01*
X203301Y23894D01*
X203223Y23828D01*
X203168Y23772D01*
X203134Y23739D01*
X203123Y23728D01*
X203034Y23616D01*
X202945Y23483D01*
X202879Y23350D01*
X202823Y23228D01*
X202779Y23117D01*
X202745Y23028D01*
X202734Y22972D01*
X202723Y22961D01*
Y22950D01*
X202679Y22761D01*
X202645Y22561D01*
X202623Y22372D01*
X202601Y22183D01*
Y22028D01*
X202590Y21894D01*
Y21850D01*
Y21817D01*
Y21794D01*
Y21783D01*
X202601Y21561D01*
X202612Y21339D01*
X202645Y21139D01*
X202690Y20961D01*
X202734Y20783D01*
X202801Y20628D01*
X202868Y20472D01*
X202945Y20339D01*
X203112Y20095D01*
X203301Y19895D01*
X203501Y19728D01*
X203712Y19595D01*
X203923Y19495D01*
X204123Y19417D01*
X204312Y19361D01*
X204479Y19328D01*
X204623Y19306D01*
X204734Y19284D01*
X205489D01*
Y24294D01*
D02*
G37*
G36*
X199612Y24305D02*
X198712D01*
X198446Y24294D01*
X198213Y24250D01*
X198024Y24194D01*
X197857Y24139D01*
X197724Y24072D01*
X197635Y24016D01*
X197579Y23972D01*
X197557Y23961D01*
X197413Y23828D01*
X197313Y23672D01*
X197235Y23516D01*
X197190Y23361D01*
X197157Y23216D01*
X197146Y23105D01*
X197135Y23061D01*
Y23028D01*
Y23017D01*
Y23005D01*
X197157Y22761D01*
X197202Y22550D01*
X197268Y22372D01*
X197346Y22217D01*
X197435Y22105D01*
X197501Y22028D01*
X197546Y21972D01*
X197568Y21961D01*
X197746Y21850D01*
X197946Y21761D01*
X198146Y21705D01*
X198346Y21661D01*
X198512Y21639D01*
X198590Y21628D01*
X198657D01*
X198712Y21617D01*
X199612D01*
Y24305D01*
D02*
G37*
G36*
X153961Y12278D02*
X152739D01*
Y11378D01*
X152895Y11233D01*
X153050Y11122D01*
X153195Y11022D01*
X153317Y10944D01*
X153417Y10878D01*
X153495Y10833D01*
X153539Y10811D01*
X153561Y10800D01*
X153706Y10744D01*
X153828Y10700D01*
X153950Y10667D01*
X154050Y10644D01*
X154139Y10633D01*
X154195Y10622D01*
X154250D01*
X154406Y10633D01*
X154528Y10655D01*
X154572D01*
X154606Y10667D01*
X154628Y10678D01*
X154639D01*
X154739Y10722D01*
X154828Y10778D01*
X154872Y10822D01*
X154895Y10833D01*
X154961Y10922D01*
X155006Y11000D01*
X155028Y11055D01*
X155039Y11067D01*
Y11078D01*
X155061Y11178D01*
X155072Y11266D01*
X155084Y11333D01*
Y11344D01*
Y11355D01*
X155072Y11500D01*
X155050Y11622D01*
X155039Y11666D01*
X155028Y11700D01*
X155017Y11722D01*
Y11733D01*
X154950Y11844D01*
X154872Y11944D01*
X154817Y12000D01*
X154806Y12022D01*
X154795D01*
X154672Y12100D01*
X154539Y12166D01*
X154483Y12189D01*
X154439Y12200D01*
X154417Y12211D01*
X154406D01*
X154217Y12255D01*
X154039Y12266D01*
X153961Y12278D01*
D02*
G37*
G36*
X170849Y14400D02*
X170626D01*
X170515Y14377D01*
X170415Y14366D01*
X170337Y14344D01*
X170271Y14322D01*
X170215Y14300D01*
X170182Y14288D01*
X170171Y14277D01*
X169993Y14177D01*
X169926Y14133D01*
X169860Y14077D01*
X169815Y14033D01*
X169782Y14000D01*
X169760Y13977D01*
X169749Y13966D01*
X169638Y13811D01*
X169560Y13655D01*
X169538Y13589D01*
X169515Y13533D01*
X169504Y13500D01*
Y13488D01*
X169449Y13277D01*
X169438Y13177D01*
X169427Y13089D01*
Y13011D01*
Y12944D01*
Y12900D01*
Y12889D01*
X172071D01*
X172037Y13122D01*
X172026Y13233D01*
X172004Y13322D01*
X171982Y13400D01*
X171960Y13455D01*
X171949Y13488D01*
Y13500D01*
X171860Y13689D01*
X171815Y13777D01*
X171771Y13844D01*
X171726Y13900D01*
X171693Y13944D01*
X171682Y13966D01*
X171671Y13977D01*
X171537Y14111D01*
X171404Y14211D01*
X171349Y14244D01*
X171304Y14266D01*
X171282Y14288D01*
X171271D01*
X171082Y14355D01*
X170993Y14377D01*
X170915Y14388D01*
X170849Y14400D01*
D02*
G37*
G36*
X142685D02*
X142463D01*
X142351Y14377D01*
X142251Y14366D01*
X142174Y14344D01*
X142107Y14322D01*
X142051Y14300D01*
X142018Y14288D01*
X142007Y14277D01*
X141829Y14177D01*
X141763Y14133D01*
X141696Y14077D01*
X141651Y14033D01*
X141618Y14000D01*
X141596Y13977D01*
X141585Y13966D01*
X141474Y13811D01*
X141396Y13655D01*
X141374Y13589D01*
X141351Y13533D01*
X141340Y13500D01*
Y13488D01*
X141285Y13277D01*
X141274Y13177D01*
X141263Y13089D01*
Y13011D01*
Y12944D01*
Y12900D01*
Y12889D01*
X143907D01*
X143874Y13122D01*
X143862Y13233D01*
X143840Y13322D01*
X143818Y13400D01*
X143796Y13455D01*
X143785Y13488D01*
Y13500D01*
X143696Y13689D01*
X143651Y13777D01*
X143607Y13844D01*
X143562Y13900D01*
X143529Y13944D01*
X143518Y13966D01*
X143507Y13977D01*
X143374Y14111D01*
X143240Y14211D01*
X143185Y14244D01*
X143140Y14266D01*
X143118Y14288D01*
X143107D01*
X142918Y14355D01*
X142829Y14377D01*
X142751Y14388D01*
X142685Y14400D01*
D02*
G37*
G36*
X179706Y138404D02*
X179639D01*
X179513Y138396D01*
X179454Y138389D01*
X179410Y138382D01*
X179373Y138367D01*
X179343Y138359D01*
X179328Y138352D01*
X179321D01*
X179232Y138308D01*
X179165Y138256D01*
X179121Y138219D01*
X179106Y138211D01*
Y138204D01*
X179047Y138130D01*
X179010Y138063D01*
X178995Y138026D01*
X178988Y138004D01*
X178980Y137989D01*
Y137982D01*
X178951Y137886D01*
X178943Y137797D01*
X178936Y137760D01*
Y137730D01*
Y137708D01*
Y137701D01*
X178943Y137590D01*
X178951Y137538D01*
X178958Y137494D01*
X178973Y137457D01*
X178980Y137427D01*
X178988Y137412D01*
Y137405D01*
X179032Y137309D01*
X179084Y137235D01*
X179099Y137205D01*
X179121Y137190D01*
X179128Y137175D01*
X179136Y137168D01*
X179210Y137101D01*
X179276Y137057D01*
X179313Y137042D01*
X179335Y137027D01*
X179350Y137020D01*
X179358D01*
X179454Y136990D01*
X179550Y136976D01*
X179587Y136968D01*
X179646D01*
X179772Y136976D01*
X179831Y136990D01*
X179876Y136998D01*
X179920Y137013D01*
X179950Y137020D01*
X179964Y137027D01*
X179972D01*
X180024Y137057D01*
X180068Y137087D01*
X180142Y137161D01*
X180172Y137190D01*
X180194Y137220D01*
X180201Y137235D01*
X180209Y137242D01*
X180246Y137301D01*
X180268Y137360D01*
X180312Y137486D01*
X180327Y137538D01*
X180342Y137582D01*
X180349Y137612D01*
Y137619D01*
X180364Y137708D01*
X180371Y137804D01*
X180386Y137901D01*
Y137989D01*
X180394Y138071D01*
Y138130D01*
Y138174D01*
Y138189D01*
X180342Y138219D01*
X180290Y138241D01*
X180253Y138256D01*
X180246Y138263D01*
X180238D01*
X180172Y138293D01*
X180113Y138308D01*
X180068Y138322D01*
X180061Y138330D01*
X180053D01*
X179979Y138352D01*
X179920Y138367D01*
X179868Y138382D01*
X179853D01*
X179772Y138396D01*
X179706Y138404D01*
D02*
G37*
G36*
X184086Y140032D02*
X183731D01*
X183590Y140024D01*
X183465Y140010D01*
X183361Y139987D01*
X183272Y139965D01*
X183206Y139936D01*
X183161Y139913D01*
X183132Y139899D01*
X183124Y139891D01*
X183058Y139832D01*
X183006Y139758D01*
X182969Y139684D01*
X182939Y139610D01*
X182924Y139543D01*
X182917Y139484D01*
Y139447D01*
Y139440D01*
Y139432D01*
X182924Y139321D01*
X182947Y139240D01*
X182961Y139203D01*
X182976Y139181D01*
X182984Y139166D01*
Y139159D01*
X183036Y139077D01*
X183087Y139018D01*
X183132Y138974D01*
X183147Y138966D01*
X183154Y138959D01*
X183235Y138907D01*
X183324Y138870D01*
X183361Y138855D01*
X183383Y138848D01*
X183405Y138840D01*
X183413D01*
X183531Y138818D01*
X183642Y138811D01*
X183694Y138803D01*
X184086D01*
Y140032D01*
D02*
G37*
G36*
X183516Y130528D02*
X183161D01*
X183020Y130521D01*
X182894Y130506D01*
X182791Y130484D01*
X182702Y130462D01*
X182635Y130432D01*
X182591Y130410D01*
X182561Y130395D01*
X182554Y130387D01*
X182487Y130328D01*
X182436Y130254D01*
X182399Y130180D01*
X182369Y130106D01*
X182354Y130040D01*
X182347Y129981D01*
Y129944D01*
Y129936D01*
Y129929D01*
X182354Y129818D01*
X182376Y129736D01*
X182391Y129699D01*
X182406Y129677D01*
X182413Y129662D01*
Y129655D01*
X182465Y129574D01*
X182517Y129514D01*
X182561Y129470D01*
X182576Y129463D01*
X182584Y129455D01*
X182665Y129403D01*
X182754Y129366D01*
X182791Y129351D01*
X182813Y129344D01*
X182835Y129337D01*
X182843D01*
X182961Y129314D01*
X183072Y129307D01*
X183124Y129300D01*
X183516D01*
Y130528D01*
D02*
G37*
G36*
X14246Y59821D02*
X14195D01*
X14084Y59813D01*
X13987Y59806D01*
X13898Y59784D01*
X13832Y59761D01*
X13780Y59739D01*
X13736Y59724D01*
X13713Y59710D01*
X13706Y59702D01*
X13647Y59658D01*
X13602Y59606D01*
X13573Y59554D01*
X13551Y59495D01*
X13536Y59451D01*
X13529Y59414D01*
Y59384D01*
Y59377D01*
X13536Y59288D01*
X13551Y59214D01*
X13566Y59184D01*
X13573Y59162D01*
X13580Y59147D01*
Y59140D01*
X13617Y59066D01*
X13662Y59007D01*
X13691Y58962D01*
X13699Y58955D01*
X13706Y58947D01*
X13765Y58881D01*
X13825Y58829D01*
X13869Y58792D01*
X13876Y58785D01*
X13884Y58777D01*
X13965Y58725D01*
X14039Y58681D01*
X14069Y58659D01*
X14091Y58651D01*
X14106Y58637D01*
X14113D01*
X14217Y58688D01*
X14313Y58740D01*
X14350Y58755D01*
X14379Y58770D01*
X14394Y58785D01*
X14402D01*
X14498Y58844D01*
X14572Y58888D01*
X14602Y58910D01*
X14616Y58925D01*
X14631Y58940D01*
X14638D01*
X14705Y59007D01*
X14750Y59066D01*
X14786Y59110D01*
X14794Y59118D01*
Y59125D01*
X14823Y59206D01*
X14838Y59280D01*
X14846Y59310D01*
Y59332D01*
Y59347D01*
Y59354D01*
X14838Y59436D01*
X14816Y59502D01*
X14794Y59569D01*
X14757Y59613D01*
X14727Y59650D01*
X14705Y59680D01*
X14683Y59695D01*
X14675Y59702D01*
X14609Y59739D01*
X14527Y59769D01*
X14446Y59791D01*
X14372Y59806D01*
X14298Y59813D01*
X14246Y59821D01*
D02*
G37*
G36*
X14291Y57904D02*
X14283D01*
X14165Y57845D01*
X14113Y57815D01*
X14069Y57793D01*
X14024Y57771D01*
X13995Y57756D01*
X13980Y57749D01*
X13972Y57741D01*
X13869Y57682D01*
X13788Y57623D01*
X13758Y57601D01*
X13736Y57578D01*
X13728Y57571D01*
X13721Y57564D01*
X13647Y57490D01*
X13588Y57423D01*
X13573Y57393D01*
X13558Y57379D01*
X13543Y57364D01*
Y57356D01*
X13506Y57268D01*
X13484Y57186D01*
X13477Y57157D01*
Y57127D01*
Y57112D01*
Y57105D01*
X13484Y57016D01*
X13506Y56942D01*
X13514Y56912D01*
X13529Y56890D01*
X13536Y56883D01*
Y56875D01*
X13588Y56809D01*
X13632Y56757D01*
X13677Y56727D01*
X13684Y56713D01*
X13691D01*
X13765Y56676D01*
X13839Y56646D01*
X13876Y56639D01*
X13898Y56631D01*
X13913Y56624D01*
X13921D01*
X14017Y56609D01*
X14106Y56602D01*
X14143Y56594D01*
X14195D01*
X14313Y56602D01*
X14409Y56616D01*
X14498Y56631D01*
X14572Y56661D01*
X14631Y56683D01*
X14675Y56698D01*
X14705Y56713D01*
X14713Y56720D01*
X14779Y56772D01*
X14823Y56838D01*
X14861Y56898D01*
X14883Y56964D01*
X14897Y57016D01*
X14905Y57060D01*
Y57097D01*
Y57105D01*
X14897Y57208D01*
X14883Y57290D01*
X14875Y57319D01*
X14868Y57342D01*
X14861Y57356D01*
Y57364D01*
X14816Y57445D01*
X14772Y57519D01*
X14742Y57564D01*
X14727Y57571D01*
Y57578D01*
X14661Y57645D01*
X14594Y57697D01*
X14542Y57734D01*
X14535Y57749D01*
X14527D01*
X14439Y57808D01*
X14357Y57860D01*
X14328Y57874D01*
X14306Y57889D01*
X14291Y57904D01*
D02*
G37*
%LPD*%
D10*
X43818Y63540D02*
G03*
X53048Y63476I4643J3960D01*
G01*
X53088Y71524D02*
G03*
X43857Y71460I-4588J-4024D01*
G01*
X167248Y131658D02*
X171185D01*
X167248Y126342D02*
X171185D01*
X167142Y135146D02*
X171079D01*
X167142Y140854D02*
X171079D01*
X26335Y54457D02*
X30665D01*
X26335Y61543D02*
X30665D01*
X26335Y63957D02*
X30665D01*
X26335Y71043D02*
X30665D01*
M02*
